SplineFontDB: 3.0
FontName: GoudyBookltr1911-Medium
FullName: Goudy Bookletter 1911 Medium
FamilyName: Goudy Bookletter 1911
Weight: Medium
Copyright: Copyright (c) 2009 Barry Schwartz\n\nPermission is hereby granted, free of charge, to any person obtaining a copy\nof this software and associated documentation files (the "Software"), to deal\nin the Software without restriction, including without limitation the rights\nto use, copy, modify, merge, publish, distribute, sublicense, and/or sell\ncopies of the Software, and to permit persons to whom the Software is\nfurnished to do so, subject to the following conditions:\n\nThe above copyright notice and this permission notice shall be included in\nall copies or substantial portions of the Software.\n\nTHE SOFTWARE IS PROVIDED "AS IS", WITHOUT WARRANTY OF ANY KIND, EXPRESS OR\nIMPLIED, INCLUDING BUT NOT LIMITED TO THE WARRANTIES OF MERCHANTABILITY,\nFITNESS FOR A PARTICULAR PURPOSE AND NONINFRINGEMENT. IN NO EVENT SHALL THE\nAUTHORS OR COPYRIGHT HOLDERS BE LIABLE FOR ANY CLAIM, DAMAGES OR OTHER\nLIABILITY, WHETHER IN AN ACTION OF CONTRACT, TORT OR OTHERWISE, ARISING FROM,\nOUT OF OR IN CONNECTION WITH THE SOFTWARE OR THE USE OR OTHER DEALINGS IN\nTHE SOFTWARE.\n
UComments: "Glyphs derived from GoudyBookltr1911-Book emboldened by 10 em units, using _CJK_ settings.+AAoACgAA-The desired effect is that of a firmer impression, rather than a different cutting." 
FontLog: "On account of disabilities that limit my typing, I don't do FONTLOGs. You, however, are free to start one. :)" 
Version: 001.000
ItalicAngle: 0
UnderlinePosition: -204
UnderlineWidth: 102
Ascent: 1548
Descent: 500
LayerCount: 3
Layer: 0 0 "Back"  1
Layer: 1 0 "Fore"  0
Layer: 2 0 "backup"  1
NeedsXUIDChange: 1
XUID: [1021 658 797806517 11473725]
FSType: 0
OS2Version: 0
OS2_WeightWidthSlopeOnly: 0
OS2_UseTypoMetrics: 1
CreationTime: 1249326201
ModificationTime: 1251789195
PfmFamily: 17
TTFWeight: 400
TTFWidth: 5
LineGap: 184
VLineGap: 0
OS2TypoAscent: 0

StartChar: a
Encoding: 97 97 0
Width: 851
Flags: W
HStem: -28 103<260.712 455.893> -16 134<649.846 760.741> 788 80<250.537 447.973>
VStem: 61 168<100.452 331.34> 495 146<123.242 411 476.272 747.713>
LayerCount: 3
Back
SplineSet
364 868 m 4
 503 868 641 805 641 618 c 6
 641 218 l 6
 641 125 692 118 706 118 c 4
 763 119 753 185 788 185 c 4
 803 185 820 173 820 155 c 4
 820 64 739 -16 658 -16 c 4
 566 -16 533 56 524 83 c 5
 506 55 448 -28 294 -28 c 4
 125 -28 61 52 61 173 c 4
 61 361 188 423 295 444 c 4
 330 451 348 455 375 460 c 4
 442 474 495 477 495 526 c 6
 495 582 l 6
 495 688 467 788 355 788 c 4
 185 788 237 621 140 621 c 4
 94 621 71 665 71 704 c 4
 71 825 264 868 364 868 c 4
229 234 m 4
 229 169 251 75 340 75 c 4
 395 75 495 112 495 206 c 6
 495 411 l 5
 345 367 l 6
 274 346 229 341 229 234 c 4
EndSplineSet
Fore
SplineSet
364 868 m 0xb8
 503 868 641 805 641 618 c 2
 641 218 l 2
 641 125 692 118 706 118 c 0
 763 119 753 185 788 185 c 0
 803 185 820 173 820 155 c 0
 820 64 739 -16 658 -16 c 0x78
 566 -16 533 56 524 83 c 1
 506 55 448 -28 294 -28 c 0
 125 -28 61 52 61 173 c 0
 61 361 189 420 295 441 c 2
 375 457 l 2
 442 471 495 480 495 529 c 2
 495 582 l 2
 495 688 467 788 355 788 c 0
 185 788 237 621 140 621 c 0
 94 621 71 665 71 704 c 0
 71 825 264 868 364 868 c 0xb8
229 234 m 0
 229 169 251 75 340 75 c 0xb8
 395 75 495 112 495 206 c 2
 495 411 l 1
 345 367 l 2
 274 346 229 341 229 234 c 0
EndSplineSet
Validated: 1
AlternateSubs2: "'aalt' Access All Alternates in Latin lookup 0 subtable" a.sc
Substitution2: "'smcp' Lowercase to Small Capitals in Latin lookup 0 subtable" a.sc
EndChar

StartChar: b
Encoding: 98 98 1
Width: 982
Flags: W
HStem: -17 83<295.871 632.384> 747 120<367.636 623.77> 1391 20G<242.5 254.5>
VStem: 107 151<100.379 518.592> 130 142<755 1240.02> 778 145<223.011 577.05>
LayerCount: 3
Fore
SplineSet
110 1226 m 2xec
 43 1265 l 2
 25 1275 12 1285 12 1298 c 0
 12 1318 30 1332 53 1341 c 2
 213 1403 l 2
 232 1410 240 1411 245 1411 c 0
 264 1411 276 1402 276 1355 c 0
 276 1317 274 1336 274 1259 c 2
 272 755 l 1xec
 359 834 450 867 536 867 c 0
 784 867 923 645 923 425 c 0
 923 203 784 -17 478 -17 c 0
 276 -17 273 3 216 3 c 0
 183 3 164 -22 136 -22 c 0
 113 -22 107 -6 107 28 c 0xf4
 107 40 130 540 130 1021 c 0
 130 1090 129 1154 128 1208 c 0
 128 1215 113 1224 110 1226 c 2xec
258 245 m 2xf4
 258 85 319 66 476 66 c 0
 685 66 778 230 778 383 c 0
 778 579 663 747 460 747 c 0
 279 747 258 614 258 560 c 2
 258 245 l 2xf4
EndSplineSet
Validated: 1
AlternateSubs2: "'aalt' Access All Alternates in Latin lookup 0 subtable" b.sc
Substitution2: "'smcp' Lowercase to Small Capitals in Latin lookup 0 subtable" b.sc
EndChar

StartChar: c
Encoding: 99 99 2
Width: 835
Flags: W
HStem: -23 146<341.924 624.802> 768 114<304.297 525.881>
VStem: 40 149<288.217 597.328>
LayerCount: 3
Fore
SplineSet
752 720 m 0
 752 670 705 640 662 640 c 0
 586 640 537 768 390 768 c 0
 311 768 189 688 189 466 c 0
 189 321 282 123 487 123 c 0
 631 123 696 178 734 212 c 0
 757 233 772 236 781 236 c 0
 801 236 805 218 805 202 c 0
 805 149 665 -23 435 -23 c 0
 210 -23 40 177 40 403 c 0
 40 656 259 882 470 882 c 0
 626 882 752 785 752 720 c 0
EndSplineSet
Validated: 1
AlternateSubs2: "'aalt' Access All Alternates in Latin lookup 0 subtable" c.sc
Substitution2: "'smcp' Lowercase to Small Capitals in Latin lookup 0 subtable" c.sc
EndChar

StartChar: d
Encoding: 100 100 3
Width: 988
Flags: W
HStem: -38 139<365.018 619.964> 783 75<313.415 644.139> 1400 20G<794.5 816.5>
VStem: 48 134<298.488 630.563> 707 135<160.267 737.053 819 1223.25>
LayerCount: 3
Back
SplineSet
707 819 m 5
 698 1208 l 6
 698 1208 698 1209 697 1210 c 4
 694 1214 685 1218 668 1222 c 4
 641 1229 615 1235 588 1242 c 4
 570 1246 558 1259 558 1276 c 4
 558 1295 576 1308 605 1324 c 4
 667 1358 700 1377 748 1403 c 4
 769 1415 787 1420 802 1420 c 4
 831 1420 846 1400 846 1371 c 4
 846 1299 846 1226 846 1154 c 4
 846 910 842 728 842 588 c 4
 842 156 846 158 875 158 c 4
 894 158 912 158 931 158 c 4
 964 158 969 144 969 134 c 4
 969 107 951 97 938 89 c 4
 897 66 837 40 767 -18 c 4
 746 -35 736 -41 728 -41 c 4
 724 -41 720 -40 716 -34 c 4
 711 -26 711 -12 711 -6 c 6
 711 82 l 5
 678 48 602 -38 451 -38 c 4
 209 -38 48 164 48 428 c 4
 48 597 136 858 481 858 c 4
 596 858 682 829 707 819 c 5
520 101 m 4
 654 101 707 185 707 238 c 4
 707 427 707 529 707 674 c 4
 707 739 584 783 472 783 c 4
 267 783 182 649 182 500 c 4
 182 255 349 101 520 101 c 4
EndSplineSet
Fore
SplineSet
711 -6 m 2
 711 82 l 1
 678 48 602 -38 451 -38 c 0
 209 -38 48 164 48 428 c 0
 48 597 136 858 481 858 c 0
 596 858 681 829 706 819 c 1
 698 1206 l 2
 698 1213 686 1217 668 1222 c 2
 588 1242 l 2
 570 1246 558 1259 558 1276 c 0
 558 1295 576 1308 605 1324 c 2
 748 1403 l 2
 769 1415 787 1420 802 1420 c 0
 831 1420 846 1400 846 1371 c 2
 846 1154 l 2
 846 910 842 728 842 588 c 0
 842 160 846 158 874 158 c 2
 931 158 l 2
 964 158 969 144 969 134 c 0
 969 107 951 97 938 89 c 0
 897 66 837 40 767 -18 c 0
 757 -26 741 -41 728 -41 c 0
 718 -41 711 -32 711 -6 c 2
520 101 m 0
 654 101 707 185 707 238 c 2
 707 674 l 2
 707 739 584 783 472 783 c 0
 267 783 182 649 182 500 c 0
 182 255 349 101 520 101 c 0
EndSplineSet
Validated: 1
AlternateSubs2: "'aalt' Access All Alternates in Latin lookup 0 subtable" d.sc
Substitution2: "'smcp' Lowercase to Small Capitals in Latin lookup 0 subtable" d.sc
EndChar

StartChar: e
Encoding: 101 101 4
Width: 842
Flags: W
HStem: -29 136<326.677 615.025> 763 108<256.707 479.185>
VStem: 42 135<343.841 624.238> 573 194<601.633 682.534>
LayerCount: 3
Fore
SplineSet
417 -29 m 0
 161 -29 42 182 42 399 c 0
 42 631 176 871 422 871 c 0
 621 871 767 699 767 626 c 0
 767 591 684 563 668 557 c 2
 193 383 l 1
 198 343 249 107 466 107 c 0
 647 107 713 196 758 228 c 0
 762 231 767 233 773 233 c 0
 781 233 793 228 793 207 c 0
 793 113 630 -29 417 -29 c 0
179 474 m 1
 539 604 l 2
 564 613 573 616 573 630 c 0
 572 652 462 763 346 763 c 0
 211 763 177 606 177 511 c 0
 177 498 178 485 179 474 c 1
EndSplineSet
Validated: 1
AlternateSubs2: "'aalt' Access All Alternates in Latin lookup 0 subtable" e.sc
Substitution2: "'smcp' Lowercase to Small Capitals in Latin lookup 0 subtable" e.sc
EndChar

StartChar: f
Encoding: 102 102 5
Width: 575
Flags: W
HStem: -11 103<42.1808 174 319.832 452.91> 726 100<38.117 181 316 550.753> 1294 118<448.959 681.458>
VStem: 181 135<92.8292 726 826 1093.36>
LayerCount: 3
Fore
SplineSet
504 1294 m 0
 473 1294 313 1279 313 894 c 2
 313 826 l 1
 529 826 l 2
 551 826 551 799 551 781 c 0
 551 734 537 726 528 726 c 2
 316 726 l 1
 316 200 l 2
 316 104 330 101 363 92 c 0
 392 84 454 94 454 46 c 0
 454 1 425 -10 384 -10 c 0
 373 -10 271 -5 232 -5 c 0
 202 -5 99 -11 88 -11 c 0
 57 -11 41 8 41 34 c 0
 41 90 87 82 140 92 c 0
 168 97 173 102 174 136 c 0
 178 323 181 141 181 726 c 1
 62 727 l 2
 45 727 38 739 38 778 c 0
 38 819 56 826 76 826 c 2
 181 826 l 1
 183 1277 460 1412 606 1412 c 0
 698 1412 731 1366 731 1335 c 0
 731 1295 708 1254 647 1254 c 0
 571 1254 573 1294 504 1294 c 0
EndSplineSet
Validated: 1
AlternateSubs2: "'aalt' Access All Alternates in Latin lookup 0 subtable" f.sc
Substitution2: "'smcp' Lowercase to Small Capitals in Latin lookup 0 subtable" f.sc
EndChar

StartChar: g
Encoding: 103 103 6
Width: 871
Flags: MW
HStem: -485 112<275.793 653.654> 211 80<311.658 507.617> 778 78<265.096 474.952>
VStem: 41 122<-279.595 -111.916> 57 145<403.257 684.81> 83 118<82.0101 192.827> 571 156<380.097 680.134> 686 160<808 813> 715 131<-315.664 -145.489>
LayerCount: 3
Fore
SplineSet
170 -52 m 1xf080
 145 -37 83 8 83 94 c 0xe4
 83 171 175 241 200 259 c 1
 171 278 57 363 57 530 c 0
 57 660 163 856 389 856 c 0
 504 856 575 799 630 799 c 0
 659 799 674 802 686 813 c 0
 717 841 722 894 770 894 c 0
 816 894 846 847 846 808 c 0xe9
 846 747 803 706 736 706 c 0
 719 706 696 711 679 713 c 1
 694 692 727 638 727 550 c 0
 727 347 565 211 403 211 c 0
 337 211 313 221 288 221 c 0
 271 221 201 177 201 138 c 0
 201 89 257 57 420 57 c 0
 472 57 523 60 571 60 c 0xe6
 798 60 846 -91 846 -189 c 0
 846 -394 631 -485 442 -485 c 0
 244 -485 41 -396 41 -226 c 0
 41 -116 138 -66 170 -52 c 1xf080
163 -190 m 0xf080
 163 -307 345 -373 454 -373 c 0
 671 -373 715 -287 715 -225 c 0
 715 -64 436 -139 266 -78 c 1
 254 -79 163 -94 163 -190 c 0xf080
367 778 m 0
 281 778 202 711 202 573 c 0
 202 404 314 291 414 291 c 0
 519 291 571 398 571 511 c 0xea
 571 641 501 778 367 778 c 0
EndSplineSet
Validated: 1
AlternateSubs2: "'aalt' Access All Alternates in Latin lookup 0 subtable" g.sc
Substitution2: "'smcp' Lowercase to Small Capitals in Latin lookup 0 subtable" g.sc
EndChar

StartChar: h
Encoding: 104 104 7
Width: 998
Flags: W
HStem: -5 97<31.8308 141.647 350 462.68 548.068 699.93 870.625 970.292> 743 110<374.368 618.259> 1402 20G<257 274>
VStem: 154 149<97.2969 687.528 747 1216> 710 156<93.3965 637.862>
LayerCount: 3
Back
SplineSet
654 92 m 0
 691 92 710 101 710 300 c 0
 710 564 683 659 599 714 c 0
 567 735 531 743 496 743 c 0
 349 741 304 638 304 597 c 0
 302 421 300 326 299 191 c 0
 298 116 305 96 350 90 c 0
 381 86 398 84 422 81 c 0
 449 78 463 66 463 42 c 0
 463 -5 435 -15 414 -15 c 0
 375 -15 323 -9 226 -9 c 0
 123 -9 86 -5 70 -5 c 0
 46 -5 30 29 30 55 c 0
 30 70 39 88 84 93 c 0
 135 99 152 100 152 285 c 0
 152 611 154 822 154 959 c 0
 154 1223 149 1205 109 1216 c 0
 90 1221 79 1224 64 1228 c 0
 52 1231 27 1244 27 1267 c 0
 27 1277 31 1294 67 1316 c 0
 138 1358 177 1380 232 1413 c 0
 241 1418 252 1422 262 1422 c 0
 286 1422 309 1405 309 1365 c 0
 309 1298 309 1275 303 747 c 1
 335 781 399 853 546 853 c 0
 623 853 800 811 844 551 c 0
 857 474 863 293 866 194 c 0
 869 93 883 105 903 96 c 0
 931 84 971 85 971 38 c 0
 971 -2 945 -12 904 -12 c 0
 868 -12 821 -5 763 -5 c 0
 568 -5 554 -6 549 27 c 0
 548 34 548 40 548 45 c 0
 548 83 571 92 626 92 c 0
 635 92 645 92 654 92 c 0
EndSplineSet
Fore
SplineSet
654 92 m 2
 691 92 710 101 710 300 c 0
 710 564 683 659 599 714 c 0
 567 735 531 743 496 743 c 0
 349 741 304 638 304 597 c 0
 302 388 299 263 299 179 c 0
 299 114 308 96 350 90 c 2
 422 81 l 2
 449 78 463 66 463 42 c 0
 463 -5 435 -15 414 -15 c 0
 375 -15 323 -9 226 -9 c 0
 123 -9 86 -5 70 -5 c 0
 46 -5 30 29 30 55 c 0
 30 70 39 88 84 93 c 0
 135 99 152 100 152 285 c 0
 152 611 154 822 154 959 c 0
 154 1223 149 1205 109 1216 c 2
 64 1228 l 2
 52 1231 27 1244 27 1267 c 0
 27 1277 31 1294 67 1316 c 2
 232 1413 l 2
 241 1418 252 1422 262 1422 c 0
 286 1422 309 1405 309 1365 c 0
 309 1298 309 1275 303 747 c 1
 335 781 399 853 546 853 c 0
 623 853 800 811 844 551 c 0
 857 474 863 293 866 194 c 0
 869 93 883 105 903 96 c 0
 931 84 971 85 971 38 c 0
 971 -2 945 -12 904 -12 c 0
 868 -12 821 -5 763 -5 c 2
 731 -5 l 2
 566 -5 554 -4 549 27 c 0
 548 34 548 40 548 45 c 0
 548 83 571 92 626 92 c 2
 654 92 l 2
EndSplineSet
Validated: 1
AlternateSubs2: "'aalt' Access All Alternates in Latin lookup 0 subtable" h.sc
Substitution2: "'smcp' Lowercase to Small Capitals in Latin lookup 0 subtable" h.sc
EndChar

StartChar: i
Encoding: 105 105 8
Width: 526
Flags: W
HStem: -13 95<30.7047 182.977 346.75 488.104> 864 20G<298 322.5> 1126 169<245.18 390.194>
VStem: 193 147<91.8267 666.844> 236 164<1135.39 1285.63>
LayerCount: 3
Back
SplineSet
417 -12 m 4
 373 -12 313 -5 251 -5 c 4
 167 -5 114 -13 80 -13 c 4
 50 -13 30 15 30 40 c 4
 30 57 40 82 86 82 c 4
 93 82 101 82 108 82 c 4
 194 82 193 82 193 427 c 4
 193 670 187 653 157 664 c 4
 125 675 108 681 83 690 c 4
 59 699 43 717 43 734 c 4
 43 750 55 765 82 775 c 4
 272 844 282 884 314 884 c 4
 331 884 347 860 347 847 c 4
 347 795 340 728 340 307 c 4
 340 107 342 92 388 91 c 4
 414 91 429 91 449 90 c 4
 471 89 489 69 489 44 c 4
 489 -7 454 -12 417 -12 c 4
319 1295 m 4
 368 1295 400 1255 400 1214 c 4
 400 1144 344 1126 318 1126 c 4
 305 1126 236 1132 236 1214 c 4
 236 1256 269 1295 319 1295 c 4
EndSplineSet
Fore
SplineSet
417 -12 m 0xf0
 373 -12 313 -5 251 -5 c 0
 167 -5 114 -13 80 -13 c 0
 50 -13 30 15 30 40 c 0
 30 57 40 82 86 82 c 2
 108 82 l 2
 192 82 193 82 193 404 c 2
 193 427 l 2
 193 670 187 653 157 664 c 2
 83 690 l 2
 59 699 43 717 43 734 c 0
 43 750 55 765 82 775 c 0
 272 844 282 884 314 884 c 0
 331 884 347 860 347 847 c 0
 347 795 340 728 340 307 c 0
 340 107 342 92 388 91 c 0
 414 91 429 91 449 90 c 0
 471 89 489 69 489 44 c 0
 489 -7 454 -12 417 -12 c 0xf0
319 1295 m 0
 368 1295 400 1255 400 1214 c 0
 400 1144 344 1126 318 1126 c 0
 305 1126 236 1132 236 1214 c 0xe8
 236 1256 269 1295 319 1295 c 0
EndSplineSet
Validated: 1
AlternateSubs2: "'aalt' Access All Alternates in Latin lookup 0 subtable" i.sc
Substitution2: "'smcp' Lowercase to Small Capitals in Latin lookup 0 subtable" i.sc
EndChar

StartChar: j
Encoding: 106 106 9
Width: 627
Flags: W
HStem: -466 166<92.1938 243.397> 853 20G<407 430.5> 1099 166<349.862 496.17>
VStem: 317 144<-237.334 676.062> 341 167<1110.32 1255.74>
LayerCount: 3
Back
SplineSet
79 -312 m 4
 90 -297 119 -284 136 -284 c 4
 163 -284 189 -300 218 -300 c 4
 234 -300 244 -298 256 -295 c 4
 276 -289 302 -250 308 -226 c 4
 314 -204 317 -155 317 -75 c 4
 317 -56 317 -37 317 -18 c 4
 317 90 313 136 313 647 c 4
 313 655 311 662 300 666 c 4
 267 678 249 685 224 694 c 4
 194 705 180 722 180 741 c 4
 180 759 193 775 212 782 c 4
 352 832 390 873 424 873 c 4
 437 873 457 862 457 813 c 4
 457 317 461 155 461 -68 c 4
 461 -123 449 -186 412 -246 c 4
 394 -276 297 -392 220 -438 c 4
 189 -456 156 -466 127 -466 c 4
 79 -466 42 -445 42 -401 c 4
 42 -365 53 -348 79 -312 c 4
425 1265 m 4
 466 1265 508 1241 508 1186 c 4
 508 1137 467 1099 425 1099 c 4
 370 1099 341 1138 341 1181 c 4
 341 1236 382 1265 425 1265 c 4
EndSplineSet
Fore
SplineSet
136 -284 m 0xf0
 163 -284 184 -300 215 -300 c 0
 261 -300 271 -289 280 -277 c 0
 322 -221 313 -201 317 -75 c 0
 317 -56 317 -37 317 -18 c 0
 317 90 313 136 313 647 c 0
 313 655 311 662 300 666 c 2
 224 694 l 2
 194 705 180 722 180 741 c 0
 180 759 193 775 212 782 c 0
 352 832 390 873 424 873 c 0
 437 873 457 862 457 813 c 0
 457 317 461 155 461 -68 c 0
 461 -123 449 -186 412 -246 c 0
 394 -276 297 -392 220 -438 c 0
 189 -456 156 -466 127 -466 c 0
 79 -466 42 -445 42 -401 c 0
 42 -365 53 -348 79 -312 c 0
 90 -297 119 -284 136 -284 c 0xf0
425 1265 m 0
 466 1265 508 1241 508 1186 c 0
 508 1137 467 1099 425 1099 c 0
 370 1099 341 1138 341 1181 c 0xe8
 341 1236 382 1265 425 1265 c 0
EndSplineSet
Validated: 1
AlternateSubs2: "'aalt' Access All Alternates in Latin lookup 0 subtable" j.sc
Substitution2: "'smcp' Lowercase to Small Capitals in Latin lookup 0 subtable" j.sc
EndChar

StartChar: k
Encoding: 107 107 10
Width: 938
Flags: W
HStem: -6 86<33.4375 101 335 431.97 463.52 548.997 753.949 871.272> 757 77<434.184 468 673.014 829.931> 1388 20G<248.5 268.5>
VStem: 136 146<87.5991 336 454 1258.5>
LayerCount: 3
Back
SplineSet
361 -6 m 0
 325 -6 238 -2 216 -2 c 0
 172 -2 179 -5 83 -5 c 0
 55 -5 33 5 33 30 c 0
 33 58 50 71 71 77 c 0
 84 81 91 82 101 85 c 0
 111 88 136 100 136 151 c 0
 136 612 136 860 136 1214 c 0
 136 1238 121 1247 103 1254 c 0
 89 1259 82 1262 71 1266 c 0
 52 1273 29 1288 29 1307 c 0
 29 1316 34 1336 83 1353 c 0
 142 1374 174 1385 219 1401 c 0
 233 1406 244 1408 253 1408 c 0
 284 1408 287 1382 287 1360 c 2
 283 454 l 1
 419 585 516 697 516 717 c 0
 516 731 504 741 493 746 c 0
 482 751 476 753 468 757 c 0
 450 765 434 774 434 799 c 0
 434 811 436 834 479 834 c 0
 580 834 682 834 783 834 c 0
 810 834 830 826 830 793 c 0
 830 768 825 758 773 754 c 0
 762 753 756 753 747 752 c 0
 731 751 673 744 533 595 c 2
 442 498 l 1
 677 205 l 2
 732 135 781 89 835 83 c 0
 863 80 872 58 872 47 c 0
 872 4 844 -8 801 -8 c 0
 762 -8 711 1 653 1 c 0
 620 1 567 -11 526 -11 c 0
 492 -11 463 -2 463 30 c 0
 463 66 488 74 518 80 c 0
 545 86 549 94 549 104 c 0
 549 125 527 160 470 235 c 2
 342 402 l 1
 282 336 l 1
 285 151 280 91 335 86 c 0
 355 84 376 82 396 80 c 0
 415 78 432 58 432 36 c 0
 432 19 422 -6 373 -6 c 0
 369 -6 365 -6 361 -6 c 0
EndSplineSet
Fore
SplineSet
361 -6 m 0
 325 -6 238 -2 216 -2 c 0
 172 -2 179 -5 83 -5 c 0
 55 -5 33 5 33 30 c 0
 33 58 50 71 71 77 c 2
 101 85 l 2
 111 88 136 100 136 151 c 2
 136 1214 l 2
 136 1238 121 1247 103 1254 c 2
 71 1266 l 2
 52 1273 29 1288 29 1307 c 0
 29 1316 34 1336 83 1353 c 2
 219 1401 l 2
 233 1406 244 1408 253 1408 c 0
 284 1408 287 1382 287 1360 c 2
 283 454 l 1
 419 585 516 697 516 717 c 0
 516 731 503 742 493 746 c 2
 468 757 l 2
 450 765 434 774 434 799 c 0
 434 811 436 834 479 834 c 2
 783 834 l 2
 810 834 830 826 830 793 c 0
 830 768 825 758 773 754 c 0
 762 753 756 753 747 752 c 0
 731 751 673 744 533 595 c 2
 442 498 l 1
 677 205 l 2
 732 135 781 89 835 83 c 0
 863 80 872 58 872 47 c 0
 872 4 844 -8 801 -8 c 0
 762 -8 711 1 653 1 c 0
 620 1 567 -11 526 -11 c 0
 492 -11 463 -2 463 30 c 0
 463 66 488 74 518 80 c 0
 545 86 549 94 549 104 c 0
 549 125 527 160 470 235 c 2
 342 402 l 1
 282 336 l 1
 285 151 280 91 335 86 c 2
 396 80 l 2
 415 78 432 58 432 36 c 0
 432 19 422 -6 373 -6 c 0
 369 -6 365 -6 361 -6 c 0
EndSplineSet
Validated: 1
AlternateSubs2: "'aalt' Access All Alternates in Latin lookup 0 subtable" k.sc
Substitution2: "'smcp' Lowercase to Small Capitals in Latin lookup 0 subtable" k.sc
EndChar

StartChar: l
Encoding: 108 108 11
Width: 503
Flags: W
HStem: -17 91<47.496 140 391 450.902> 1399 20G<271.5 285>
VStem: 175 138<97.1383 1204.5>
LayerCount: 3
Back
SplineSet
96 74 m 4
 115 77 125 80 140 82 c 4
 156 85 179 102 179 163 c 4
 179 355 179 825 175 1057 c 4
 173 1172 179 1180 137 1201 c 4
 113 1213 100 1220 81 1229 c 4
 63 1238 49 1245 49 1262 c 4
 49 1281 69 1298 86 1309 c 4
 154 1352 191 1375 243 1408 c 4
 255 1415 266 1419 277 1419 c 4
 293 1419 315 1410 315 1376 c 4
 315 1286 313 1326 313 1024 c 4
 313 927 313 831 313 734 c 4
 313 600 321 433 321 224 c 4
 321 123 347 93 391 79 c 4
 403 75 410 73 419 70 c 4
 436 64 451 59 451 34 c 4
 451 32 451 32 451 30 c 4
 449 -1 444 -11 415 -11 c 4
 392 -11 309 -5 270 -5 c 4
 194 -5 135 -17 97 -17 c 4
 65 -17 47 -8 47 20 c 4
 47 63 76 71 96 74 c 4
EndSplineSet
Fore
SplineSet
96 74 m 2
 140 82 l 2
 156 85 179 102 179 163 c 0
 179 355 179 825 175 1057 c 0
 173 1172 179 1180 137 1201 c 2
 81 1229 l 2
 62 1239 49 1245 49 1262 c 0
 49 1281 69 1298 86 1309 c 2
 243 1408 l 2
 255 1415 266 1419 277 1419 c 0
 293 1419 315 1410 315 1376 c 0
 315 1286 313 1326 313 1024 c 2
 313 734 l 2
 313 600 321 433 321 224 c 0
 321 123 347 93 391 79 c 2
 419 70 l 2
 436 64 451 59 451 34 c 0
 451 7 448 -11 415 -11 c 0
 392 -11 309 -5 270 -5 c 0
 194 -5 135 -17 97 -17 c 0
 65 -17 47 -8 47 20 c 0
 47 63 75 70 96 74 c 2
EndSplineSet
Validated: 1
AlternateSubs2: "'aalt' Access All Alternates in Latin lookup 0 subtable" l.sc
Substitution2: "'smcp' Lowercase to Small Capitals in Latin lookup 0 subtable" l.sc
EndChar

StartChar: m
Encoding: 109 109 12
Width: 1418
Flags: W
HStem: -3 90<24.5505 110 344 435.961 465.023 556 769.419 916.982 965.823 1102.21 1295 1388.79> 759 114<373.742 547.155 821.797 1023.14> 862 20G<248.5 262.5>
VStem: 143 137<90.3442 690.655> 617 134<145.928 688.192> 621 146<93.1716 619.096> 1110 144<97.33 654.264>
LayerCount: 3
Back
SplineSet
1332 -9 m 4
 1269 -9 1247 -3 1184 -3 c 4
 1117 -3 1067 -7 1032 -7 c 4
 988 -7 965 0 965 30 c 4
 965 58 975 84 1014 84 c 4
 1025 84 1035 84 1046 84 c 4
 1081 84 1110 107 1110 200 c 4
 1110 270 1110 341 1110 411 c 4
 1110 714 988 759 907 759 c 4
 806 759 751 688 751 620 c 4
 751 605 762 313 767 160 c 4
 769 107 779 86 822 86 c 4
 837 86 851 86 866 86 c 4
 892 86 917 76 917 41 c 4
 917 22 912 -5 868 -5 c 4
 856 -5 743 1 700 1 c 4
 633 1 579 -4 540 -4 c 4
 491 -4 465 4 465 42 c 4
 465 86 497 86 525 88 c 4
 538 89 546 89 556 90 c 4
 601 93 621 106 621 199 c 4
 621 204 621 209 621 214 c 4
 619 341 618 409 617 506 c 4
 617 534 617 567 612 601 c 4
 601 680 531 757 438 757 c 4
 387 757 349 737 327 716 c 4
 282 674 280 616 280 537 c 4
 280 530 280 522 280 515 c 4
 280 414 285 260 286 174 c 4
 287 102 304 91 344 87 c 4
 361 85 371 84 384 83 c 4
 407 81 436 70 436 41 c 4
 436 15 423 -3 379 -3 c 4
 323 -3 287 1 223 1 c 4
 194 1 124 -3 81 -3 c 4
 55 -3 24 8 24 34 c 4
 24 73 52 85 72 87 c 4
 88 89 97 90 110 91 c 4
 134 94 143 97 143 191 c 4
 143 339 143 486 143 634 c 4
 143 670 128 674 101 690 c 4
 84 700 74 706 61 714 c 4
 45 724 36 734 36 747 c 4
 36 769 60 783 94 802 c 4
 143 828 169 842 206 863 c 4
 232 877 244 882 253 882 c 4
 272 882 277 867 277 847 c 6
 277 746 l 5
 294 760 304 774 328 794 c 4
 390 845 434 867 487 867 c 4
 653 866 713 753 727 722 c 5
 743 745 783 800 827 833 c 4
 863 861 906 873 952 873 c 4
 991 873 1030 862 1068 844 c 4
 1118 820 1165 787 1200 726 c 4
 1237 661 1248 426 1249 388 c 4
 1249 373 1252 351 1254 220 c 4
 1255 118 1269 100 1295 97 c 4
 1311 95 1319 94 1332 93 c 4
 1356 91 1389 75 1389 38 c 4
 1389 14 1381 -9 1332 -9 c 4
EndSplineSet
Fore
SplineSet
1332 -9 m 0xda
 1269 -9 1247 -3 1184 -3 c 0
 1117 -3 1067 -7 1032 -7 c 0
 988 -7 965 0 965 30 c 0
 965 58 975 84 1014 84 c 2
 1046 84 l 2
 1081 84 1110 107 1110 200 c 2
 1110 411 l 2
 1110 714 988 759 907 759 c 0
 806 759 751 688 751 620 c 0xda
 751 605 762 313 767 160 c 0
 769 107 779 86 822 86 c 2
 866 86 l 2
 892 86 917 76 917 41 c 0
 917 22 912 -5 868 -5 c 0
 856 -5 743 1 700 1 c 0
 633 1 579 -4 540 -4 c 0
 491 -4 465 4 465 42 c 0
 465 86 497 86 525 88 c 2
 556 90 l 2
 601 93 621 106 621 199 c 0
 621 204 621 209 621 214 c 0xd6
 619 341 618 409 617 506 c 0
 617 534 617 567 612 601 c 0
 601 680 531 757 438 757 c 0
 387 757 349 737 327 716 c 0
 282 674 280 616 280 537 c 2
 280 515 l 2
 280 414 285 260 286 174 c 0
 287 102 304 91 344 87 c 2
 384 83 l 2
 407 81 436 70 436 41 c 0
 436 15 423 -3 379 -3 c 0
 323 -3 287 1 223 1 c 0
 194 1 124 -3 81 -3 c 0
 55 -3 24 8 24 34 c 0
 24 73 52 85 72 87 c 2
 110 91 l 2
 134 94 143 97 143 191 c 2
 143 634 l 2
 143 670 128 674 101 690 c 2
 61 714 l 2
 45 724 36 734 36 747 c 0
 36 769 60 783 94 802 c 2
 206 863 l 2
 232 877 244 882 253 882 c 0xba
 272 882 277 867 277 847 c 2
 277 746 l 1
 294 760 304 774 328 794 c 0
 390 845 434 867 487 867 c 0
 653 866 713 753 727 722 c 1
 743 745 783 800 827 833 c 0
 863 861 906 873 952 873 c 0
 991 873 1030 862 1068 844 c 0
 1118 820 1165 787 1200 726 c 0
 1237 661 1248 426 1249 388 c 0
 1249 373 1252 351 1254 220 c 0
 1255 118 1269 100 1295 97 c 2
 1332 93 l 2
 1356 91 1389 75 1389 38 c 0
 1389 14 1381 -9 1332 -9 c 0xda
EndSplineSet
Validated: 1
AlternateSubs2: "'aalt' Access All Alternates in Latin lookup 0 subtable" m.sc
Substitution2: "'smcp' Lowercase to Small Capitals in Latin lookup 0 subtable" m.sc
EndChar

StartChar: n
Encoding: 110 110 13
Width: 1046
Flags: W
HStem: -10 97<76.5336 165 400 484.616> -4 96<615.237 758.492 949 1018.69> 768 115<462.549 669.279>
VStem: 194 143<92.9343 674.056> 765 136<101.722 672.092>
LayerCount: 3
Back
SplineSet
901 361 m 4
 901 302 902 239 903 194 c 4
 905 128 912 110 949 100 c 4
 963 96 970 94 981 91 c 4
 1002 85 1019 74 1019 40 c 4
 1019 19 996 3 954 3 c 4
 942 3 872 4 829 4 c 4
 762 4 725 -4 685 -4 c 4
 635 -4 615 5 615 42 c 4
 615 82 646 92 665 92 c 4
 678 92 700 91 709 91 c 4
 751 91 762 114 763 199 c 4
 765 301 765 313 765 379 c 4
 765 412 765 444 765 477 c 4
 765 595 756 618 740 645 c 4
 707 702 633 768 544 768 c 4
 494 768 439 748 383 694 c 4
 337 650 337 618 337 546 c 4
 337 536 337 525 337 515 c 4
 337 414 340 260 341 174 c 4
 342 103 359 96 400 89 c 4
 414 87 421 86 432 84 c 4
 460 80 485 67 485 41 c 4
 485 16 471 -12 425 -12 c 4
 377 -12 342 -6 278 -6 c 4
 249 -6 176 -10 133 -10 c 4
 106 -10 76 9 76 34 c 4
 76 73 104 85 124 87 c 4
 142 89 151 90 165 91 c 4
 188 93 194 96 194 191 c 4
 194 376 194 476 194 618 c 4
 194 654 180 661 154 673 c 4
 137 681 128 685 115 691 c 4
 112 692 70 709 70 733 c 4
 70 748 83 757 116 777 c 4
 174 812 205 830 249 857 c 4
 273 872 292 881 311 881 c 4
 339 881 342 850 342 797 c 6
 342 746 l 5
 361 760 378 774 402 794 c 4
 479 857 531 883 596 883 c 4
 686 883 817 837 869 720 c 4
 900 651 902 575 902 532 c 4
 902 458 901 418 901 361 c 4
EndSplineSet
Fore
SplineSet
901 361 m 0xb8
 901 302 902 239 903 194 c 0
 905 128 912 110 949 100 c 2
 981 91 l 2
 1002 85 1019 74 1019 40 c 0
 1019 19 996 3 954 3 c 0
 942 3 872 4 829 4 c 0
 762 4 725 -4 685 -4 c 0
 635 -4 615 5 615 42 c 0
 615 82 646 92 665 92 c 0x78
 678 92 700 91 709 91 c 0
 751 91 762 114 763 199 c 0
 765 301 765 313 765 379 c 2
 765 477 l 2
 765 595 756 618 740 645 c 0
 707 702 633 768 544 768 c 0
 494 768 439 748 383 694 c 0
 337 650 337 618 337 546 c 2
 337 515 l 2
 337 414 340 260 341 174 c 0
 342 103 359 96 400 89 c 2
 432 84 l 2
 460 80 485 67 485 41 c 0
 485 16 471 -12 425 -12 c 0
 377 -12 342 -6 278 -6 c 0
 249 -6 176 -10 133 -10 c 0
 106 -10 76 9 76 34 c 0
 76 73 104 85 124 87 c 2
 165 91 l 2
 188 93 194 96 194 191 c 2
 194 618 l 2
 194 654 180 661 154 673 c 2
 115 691 l 2
 112 692 70 709 70 733 c 0
 70 748 83 757 116 777 c 2
 249 857 l 2
 273 872 292 881 311 881 c 0
 339 881 342 850 342 797 c 2
 342 746 l 1
 361 760 378 774 402 794 c 0
 479 857 531 883 596 883 c 0
 686 883 817 837 869 720 c 0
 900 651 902 575 902 532 c 0
 902 458 901 418 901 361 c 0xb8
EndSplineSet
Validated: 1
AlternateSubs2: "'aalt' Access All Alternates in Latin lookup 0 subtable" n.sc
Substitution2: "'smcp' Lowercase to Small Capitals in Latin lookup 0 subtable" n.sc
EndChar

StartChar: o
Encoding: 111 111 14
Width: 953
Flags: W
HStem: -24 103<336.587 625.635> 768 106<318.94 605.012>
VStem: 46 160<228.871 639.452> 741 144<204.509 619.577>
LayerCount: 3
Fore
SplineSet
489 874 m 0
 748 874 885 692 885 404 c 0
 885 100 692 -24 456 -24 c 0
 244 -24 46 125 46 429 c 0
 46 668 180 874 489 874 c 0
206 423 m 0
 206 242 308 79 460 79 c 0
 629 79 741 168 741 415 c 0
 741 641 623 768 458 768 c 0
 293 768 206 640 206 423 c 0
EndSplineSet
Validated: 1
AlternateSubs2: "'aalt' Access All Alternates in Latin lookup 0 subtable" o.sc
Substitution2: "'smcp' Lowercase to Small Capitals in Latin lookup 0 subtable" o.sc
EndChar

StartChar: p
Encoding: 112 112 15
Width: 958
Flags: W
HStem: -461 108<21.8213 112 308.384 497.787> -5 74<328.298 636.797> 737 130<406.573 627.413>
VStem: 163 134<-346.227 10 106.584 661.345> 783 137<230.992 561.636>
LayerCount: 3
Back
SplineSet
79.6884765625 -364.009765625 m 4
 93.5546875 -363.143554688 101.024414062 -362.665039062 111.69140625 -362.009765625 c 4
 156.110351562 -359.279296875 163 -358.396484375 163 -138 c 4
 163 101.969726562 154.190429688 569.735351562 154 584.9609375 c 4
 153.245117188 645.418945312 138.26171875 654.838867188 120.083007812 662.381835938 c 4
 101.055664062 670.276367188 90.7734375 674.372070312 76.1064453125 680.372070312 c 4
 57.6025390625 687.94140625 33 699.15625 33 718 c 4
 33 726.4375 37.8544921875 740.67578125 67.244140625 760.171875 c 4
 123.73046875 797.642578125 153.883789062 818.166015625 197.22265625 847.158203125 c 4
 202.407226562 850.626953125 230.690429688 870 253 870 c 4
 278.975585938 870 294 846.544921875 294 801 c 6
 294 730.434570312 l 5
 323.961914062 763.831054688 425.876953125 867 542 867 c 4
 776.34375 867 920 658.032226562 920 445 c 4
 920 265.659179688 833.342773438 -5 490 -5 c 4
 412.251953125 -5 325.9921875 6.8251953125 303.076171875 10.181640625 c 5
 306.999023438 -292.924804688 l 6
 307.384765625 -315.658203125 315.071289062 -353 378 -353 c 4
 400.333007812 -353 422.666992188 -353 445 -353 c 4
 483.400390625 -353 499 -373.700195312 499 -401 c 4
 499 -421.999023438 494.969726562 -461 426 -461 c 4
 413.51953125 -461 344.958984375 -457 256 -457 c 4
 204.099609375 -457 121.924804688 -469 83 -469 c 4
 47.25 -469 19 -458.400390625 19 -416 c 4
 19 -374.408203125 52.916015625 -365.682617188 79.6884765625 -364.009765625 c 4
297 166 m 4
 297 130.115234375 305.9921875 119.657226562 326.536132812 106.303710938 c 5
 346.518554688 95.4140625 412.430664062 69 487 69 c 4
 694.157226562 69 783 218.662109375 783 376 c 4
 783 552.212890625 671.258789062 737 483 737 c 4
 397.934570312 737 297 678.325195312 297 574 c 4
 297 438 297 302 297 166 c 4
EndSplineSet
Fore
SplineSet
80 -364 m 2
 112 -362 l 2
 156 -359 163 -358 163 -138 c 0
 163 102 154 570 154 585 c 0
 153 645 138 654 120 662 c 2
 76 680 l 2
 57 688 33 699 33 718 c 0
 33 726 38 741 67 760 c 2
 197 847 l 2
 202 850 231 870 253 870 c 0
 279 870 294 847 294 801 c 2
 294 730 l 1
 324 763 426 867 542 867 c 0
 776 867 920 658 920 445 c 0
 920 266 833 -5 490 -5 c 0
 412 -5 326 7 303 10 c 1
 307 -293 l 2
 307 -316 315 -353 378 -353 c 2
 445 -353 l 2
 483 -353 499 -374 499 -401 c 0
 499 -422 495 -461 426 -461 c 0
 414 -461 345 -457 256 -457 c 0
 204 -457 122 -469 83 -469 c 0
 47 -469 19 -458 19 -416 c 0
 19 -374 52.9787516957 -365.688828019 80 -364 c 2
297 166 m 0
 297 130 305.692160362 118.472881739 327 106 c 0
 346.692160362 94.4728817391 412 69 487 69 c 0
 694 69 783 219 783 376 c 0
 783 552 671 737 483 737 c 0
 398 737 297 678 297 574 c 0
 297 438 297 302 297 166 c 0
EndSplineSet
Validated: 524289
AlternateSubs2: "'aalt' Access All Alternates in Latin lookup 0 subtable" p.sc
Substitution2: "'smcp' Lowercase to Small Capitals in Latin lookup 0 subtable" p.sc
EndChar

StartChar: q
Encoding: 113 113 16
Width: 1031
Flags: W
HStem: -461 111<553.448 716.089 867.511 997.941> -444 94<870.156 1003.27> -17 138<347.092 625.078> 795 79<324.498 715.417>
VStem: 66 115<303.217 639.56> 718 144<-347.004 93 160.107 754.406>
LayerCount: 3
Back
SplineSet
554 874 m 4
 661 874 754 866 760 866 c 4
 783 866 808 892 837 892 c 4
 863 892 881 874 881 825 c 4
 881 779 865 681 865 592 c 4
 864 225 863 27 862 -256 c 4
 862 -316 876 -350 932 -350 c 4
 939 -350 947 -350 954 -350 c 4
 975 -350 1004 -361 1004 -389 c 4
 1004 -416 994 -437 942 -444 c 4
 843 -457 722 -461 687 -461 c 4
 636 -461 600 -456 597 -456 c 4
 577 -456 544 -446 544 -419 c 4
 544 -388 578 -372 610 -368 c 4
 626 -366 635 -365 648 -363 c 4
 710 -354 718 -313 718 -285 c 4
 718 -281 718 -278 718 -274 c 4
 718 -166 716 11 715 93 c 5
 685 66 593 -17 452 -17 c 4
 213 -17 66 187 66 438 c 4
 66 524 88 610 133 683 c 4
 242 859 391 874 554 874 c 4
181 480 m 4
 181 354 261 121 514 121 c 4
 702 121 717 205 717 264 c 4
 717 290 717 315 717 341 c 4
 717 385 717 414 713 686 c 4
 712 739 660 795 491 795 c 4
 265 795 181 643 181 480 c 4
EndSplineSet
Fore
SplineSet
554 874 m 4xbc
 661 874 754 866 760 866 c 4
 783 866 808 892 837 892 c 4
 863 892 881 874 881 825 c 4
 881 779 865 681 865 592 c 4
 864 225 863 27 862 -256 c 4
 862 -316 876 -350 932 -350 c 6
 954 -350 l 6xbc
 975 -350 1004 -361 1004 -389 c 4
 1004 -416 994 -437 942 -444 c 4x7c
 843 -457 722 -461 687 -461 c 4
 636 -461 600 -456 597 -456 c 4
 577 -456 544 -446 544 -419 c 4
 545 -375 605 -368 648 -363 c 4
 710 -355 718 -313 718 -285 c 6
 718 -274 l 6
 718 -166 716 11 715 93 c 5
 685 66 593 -17 452 -17 c 4
 213 -17 66 187 66 438 c 4
 66 524 88 610 133 683 c 4
 242 859 391 874 554 874 c 4xbc
181 480 m 4
 181 354 261 121 514 121 c 4
 702 121 717 205 717 264 c 6
 717 341 l 6
 717 385 717 414 713 686 c 4
 712 739 660 795 491 795 c 4
 265 795 181 643 181 480 c 4
EndSplineSet
Validated: 1
AlternateSubs2: "'aalt' Access All Alternates in Latin lookup 0 subtable" q.sc
Substitution2: "'smcp' Lowercase to Small Capitals in Latin lookup 0 subtable" q.sc
EndChar

StartChar: r
Encoding: 114 114 17
Width: 735
Flags: W
HStem: -13 81<53.0638 169.293 398 519.98> 722 148<450.759 630.249>
VStem: 174 145<86.2065 663.322>
LayerCount: 3
Back
SplineSet
347 646 m 4
 326 621 314 601 315 559 c 4
 318 403 321 320 323 200 c 4
 325 95 353 83 398 77 c 4
 428 73 445 71 468 68 c 4
 499 64 520 60 520 26 c 4
 520 -10 492 -19 454 -19 c 4
 404 -19 330 -5 241 -5 c 4
 159 -5 114 -13 88 -13 c 4
 57 -13 53 2 53 32 c 4
 53 60 75 66 96 67 c 4
 107 67 113 68 122 68 c 4
 156 69 174 90 174 151 c 4
 174 351 174 459 174 613 c 4
 174 643 167 670 151 676 c 4
 128 685 115 690 97 696 c 4
 68 706 55 719 55 733 c 4
 55 750 78 765 98 776 c 4
 156 806 187 824 231 847 c 4
 256 860 274 866 286 866 c 4
 311 866 314 847 314 828 c 6
 314 725 l 5
 402 792 489 870 581 870 c 4
 638 870 687 846 687 792 c 4
 687 761 645 691 583 691 c 4
 541 691 518 722 479 722 c 4
 426 721 368 670 347 646 c 4
EndSplineSet
Fore
SplineSet
347 646 m 0
 322 616 319 617 319 511 c 0
 319 450 321 354 323 200 c 0
 325 95 353 83 398 77 c 2
 468 68 l 2
 499 64 520 60 520 26 c 0
 520 -10 492 -19 454 -19 c 0
 404 -19 330 -5 241 -5 c 0
 159 -5 114 -13 88 -13 c 0
 57 -13 53 2 53 32 c 0
 53 60 75 66 96 67 c 0
 107 67 113 68 122 68 c 0
 156 69 174 90 174 151 c 2
 174 613 l 2
 174 643 167 669 151 676 c 0
 116 691 55 702 55 733 c 0
 55 750 78 765 98 776 c 2
 231 847 l 2
 256 860 274 866 286 866 c 0
 311 866 314 847 314 828 c 2
 314 725 l 1
 402 792 489 870 581 870 c 0
 638 870 687 846 687 792 c 0
 687 761 645 691 583 691 c 0
 541 691 518 722 479 722 c 0
 426 721 367 670 347 646 c 0
EndSplineSet
Validated: 1
AlternateSubs2: "'aalt' Access All Alternates in Latin lookup 0 subtable" r.sc
Substitution2: "'smcp' Lowercase to Small Capitals in Latin lookup 0 subtable" r.sc
EndChar

StartChar: s
Encoding: 115 115 18
Width: 718
Flags: W
HStem: -25 99<246.714 523.144> 754 81<220.096 438.214>
VStem: 68 77<170.035 324.254> 102 96<560.596 732.221> 564 107<114.528 291.635>
LayerCount: 3
Back
SplineSet
81 274 m 4
 84 322 114 329 122 329 c 4
 125 329 127 328 129 327 c 4
 141 321 145 300 145 270 c 4
 145 263 145 257 145 250 c 4
 145 223 160 170 252 115 c 4
 300 86 349 74 395 74 c 4
 489 74 564 126 564 200 c 4
 564 306 455 326 401 341 c 4
 359 353 336 359 303 368 c 4
 187 400 103 437 102 598 c 4
 102 718 168 835 346 835 c 4
 397 835 479 815 486 815 c 4
 498 815 531 841 544 841 c 4
 556 841 570 828 573 795 c 4
 579 730 583 695 587 645 c 4
 587 641 588 636 588 631 c 4
 588 603 580 575 558 575 c 4
 540 575 533 590 528 608 c 4
 504 701 371 754 326 754 c 4
 292 754 198 745 198 654 c 4
 198 583 233 553 301 534 c 4
 390 509 438 495 506 476 c 4
 628 441 671 359 671 237 c 4
 671 100 562 -25 357 -25 c 4
 284 -25 218 -3 153 24 c 4
 106 43 68 73 68 105 c 4
 68 130 74 177 81 274 c 4
EndSplineSet
Fore
SplineSet
122 329 m 0xe8
 143 329 145 293 145 270 c 2
 145 250 l 2xe8
 145 223 160 170 252 115 c 0
 300 86 349 74 395 74 c 0
 489 74 564 126 564 200 c 0
 564 306 455 326 401 341 c 2
 303 368 l 2
 187 400 103 437 102 598 c 0
 102 718 168 835 346 835 c 0
 397 835 479 815 486 815 c 0
 498 815 531 841 544 841 c 0
 556 841 570 828 573 795 c 0
 579 730 583 695 587 645 c 0
 587 641 588 636 588 631 c 0
 588 603 580 575 558 575 c 0
 540 575 533 590 528 608 c 0
 504 701 371 754 326 754 c 0
 292 754 198 745 198 654 c 0xd8
 198 583 233 553 301 534 c 2
 506 476 l 2
 628 441 671 359 671 237 c 0
 671 100 562 -25 357 -25 c 0
 284 -25 218 -3 153 24 c 0
 106 43 68 73 68 105 c 0
 68 130 74 177 81 274 c 0
 84 322 114 329 122 329 c 0xe8
EndSplineSet
Validated: 1
AlternateSubs2: "'aalt' Access All Alternates in Latin lookup 0 subtable" s.sc
Substitution2: "'smcp' Lowercase to Small Capitals in Latin lookup 0 subtable" s.sc
EndChar

StartChar: t
Encoding: 116 116 19
Width: 747
Flags: W
HStem: -27 146<334.622 502.178> 724 120<336 624.434>
VStem: 157 148<143.051 718.739> 173 149<375.626 724>
LayerCount: 3
Fore
SplineSet
580 720 m 0xd0
 554 720 529 721 322 724 c 1xd0
 307 549 305 512 305 369 c 0
 305 171 338 119 412 119 c 0
 510 119 562 183 599 218 c 0
 611 229 621 234 632 234 c 0
 646 234 666 222 666 197 c 0
 666 187 663 176 656 163 c 0
 620 94 484 -27 365 -27 c 0
 298 -27 251 1 236 14 c 0
 180 61 157 152 157 314 c 0xe0
 157 331 171 677 173 724 c 1
 117 724 l 2
 66 724 27 731 27 758 c 0
 27 788 60 799 113 845 c 0
 297 1002 269 1073 319 1073 c 0
 349 1073 350 1046 350 1017 c 0
 350 981 343 939 336 844 c 1
 586 844 l 2
 624 844 629 821 629 808 c 0
 627 734 600 720 580 720 c 0xd0
EndSplineSet
Validated: 1
AlternateSubs2: "'aalt' Access All Alternates in Latin lookup 0 subtable" t.sc
Substitution2: "'smcp' Lowercase to Small Capitals in Latin lookup 0 subtable" t.sc
EndChar

StartChar: u
Encoding: 117 117 20
Width: 1016
Flags: W
HStem: -32 111<377.665 618.809> -15 21G<731.5 749> 42 90<925 967.925> 761 89<557.076 649> 767 68<23.0523 50>
VStem: 127 150<195.924 756.312> 693 162<306.214 757.125> 695 145<147.822 723.648>
LayerCount: 3
Back
SplineSet
273 808 m 0
 273 766 277 476 277 392 c 0
 277 229 344 79 506 79 c 0
 548 79 587 92 617 114 c 0
 636 128 695 182 695 285 c 0
 695 326 693 656 693 697 c 0
 693 701 693 704 693 708 c 0
 693 729 689 751 649 757 c 0
 638 759 632 760 624 761 c 0
 577 768 557 780 557 808 c 0
 557 825 568 850 621 850 c 0
 682 850 742 850 803 850 c 0
 832 850 855 847 855 808 c 0
 855 807 855 806 855 805 c 0
 849 565 845 436 840 251 c 0
 840 248 840 245 840 242 c 0
 840 187 849 132 883 132 c 0
 894 132 906 132 917 132 c 0
 942 132 968 123 968 89 c 0
 968 67 958 54 925 42 c 0
 859 19 823 7 772 -11 c 2
 771 -11 l 1
 771 -11 l 2
 766 -12 755 -15 742 -15 c 0
 721 -15 700 -6 700 26 c 2
 700 96 l 1
 677 66 619 -32 472 -32 c 0
 363 -32 127 21 127 318 c 0
 127 381 125 691 125 722 c 0
 125 740 103 749 86 755 c 0
 70 760 62 763 50 767 c 0
 26 775 23 788 23 800 c 0
 23 821 41 833 62 835 c 0
 103 839 220 849 226 849 c 0
 252 849 273 833 273 808 c 0
EndSplineSet
Fore
SplineSet
273 808 m 0x8d
 273 766 277 476 277 392 c 0
 277 229 344 79 506 79 c 0
 548 79 587 92 617 114 c 0
 636 128 695 182 695 285 c 0x8d
 695 326 693 656 693 697 c 2
 693 708 l 2
 693 729 689 751 649 757 c 2
 624 761 l 2
 577 768 557 780 557 808 c 0
 557 825 568 850 621 850 c 2
 803 850 l 2
 832 850 855 847 855 808 c 0x96
 855 790 840 256 840 242 c 0
 840 187 849 132 883 132 c 2
 917 132 l 2
 942 132 968 123 968 89 c 0
 968 67 958 54 925 42 c 2
 781 -8 l 2
 776 -10 756 -15 742 -15 c 0x75
 721 -15 700 -6 700 26 c 2
 700 96 l 1
 677 66 619 -32 472 -32 c 0
 363 -32 127 21 127 318 c 0
 127 381 125 691 125 722 c 0
 125 740 103 749 86 755 c 2
 50 767 l 2
 26 775 23 788 23 800 c 0
 23 821 41 833 62 835 c 0
 103 839 220 849 226 849 c 0
 252 849 273 833 273 808 c 0x8d
EndSplineSet
Validated: 1
AlternateSubs2: "'aalt' Access All Alternates in Latin lookup 0 subtable" u.sc
Substitution2: "'smcp' Lowercase to Small Capitals in Latin lookup 0 subtable" u.sc
EndChar

StartChar: v
Encoding: 118 118 21
Width: 986
Flags: W
HStem: -22 21G<509.5 553> 752 100<33.3647 133.366 362 443.592 612.182 692 856.653 966.832>
VStem: 31 275<691.5 829> 733 235<664 825>
LayerCount: 3
Back
SplineSet
650 389 m 0
 694 500 733 630 733 698 c 0
 733 732 727 744 692 753 c 0
 680 756 673 758 664 760 c 0
 636 766 610 785 610 808 c 0
 610 826 626 852 705 852 c 0
 757 852 751 851 824 851 c 0
 940 851 968 843 968 807 c 0
 968 770 934 763 906 756 c 0
 832 737 852 625 649 164 c 0
 621 100 577 -22 529 -22 c 0
 490 -22 455 40 414 115 c 0
 319 289 264 420 220 514 c 0
 152 659 139 730 91 752 c 0
 73 760 31 766 31 814 c 0
 31 844 59 852 92 852 c 0
 124 852 140 849 225 849 c 0
 316 849 360 853 395 853 c 0
 420 853 441 842 444 804 c 0
 444 803 444 802 444 801 c 0
 444 779 421 767 402 765 c 0
 385 763 375 762 362 760 c 0
 319 754 306 731 306 704 c 0
 306 679 319 650 328 629 c 0
 387 495 537 220 558 204 c 0
 557 204 l 0
 557 204 l 0
 567 209 608 282 650 389 c 0
EndSplineSet
Fore
SplineSet
650 389 m 0
 694 500 733 630 733 698 c 0
 733 732 727 744 692 753 c 2
 664 760 l 2
 636 766 610 785 610 808 c 0
 610 826 626 852 705 852 c 0
 757 852 751 851 824 851 c 0
 940 851 968 843 968 807 c 0
 968 770 934 763 906 756 c 0
 832 737 852 625 649 164 c 0
 621 100 577 -22 529 -22 c 0
 490 -22 455 40 414 115 c 0
 319 289 264 420 220 514 c 0
 152 659 139 730 91 752 c 0
 73 760 31 766 31 814 c 0
 31 844 59 852 92 852 c 0
 124 852 140 849 225 849 c 0
 316 849 360 853 395 853 c 0
 420 853 441 842 444 804 c 0
 444 803 444 802 444 801 c 0
 444 779 421 767 402 765 c 2
 362 760 l 2
 319 754 306 731 306 704 c 0
 306 679 319 650 328 629 c 0
 360 557 539 206 558 206 c 0
 572 206 631 340 650 389 c 0
EndSplineSet
Validated: 1
AlternateSubs2: "'aalt' Access All Alternates in Latin lookup 0 subtable" v.sc
Substitution2: "'smcp' Lowercase to Small Capitals in Latin lookup 0 subtable" v.sc
EndChar

StartChar: w
Encoding: 119 119 22
Width: 1522
Flags: W
HStem: -33 21G<479 507.5 1022.5 1070> 752 103<73 114.993 1418 1488.2> 765 87<323 402.831 481.504 533.294 909.645 975.909 1109.02 1168.59>
VStem: 481 339<712.5 828> 1249 240<606.5 823.5>
LayerCount: 3
Back
SplineSet
699 567 m 5
 627 736 623 741 586 753 c 4
 562 761 537 768 513 776 c 4
 500 780 481 791 481 814 c 4
 481 842 509 857 546 857 c 4
 605 857 681 852 725 852 c 4
 780 852 836 852 891 852 c 4
 945 852 976 843 976 806 c 4
 976 787 963 767 937 765 c 5
 901 761 882 758 855 755 c 4
 833 752 820 746 820 722 c 4
 820 703 830 674 848 629 c 4
 881 547 948 409 1002 312 c 4
 1040 244 1065 209 1076 204 c 4
 1077 204 1077 204 1077 204 c 4
 1076 204 l 4
 1096 215 1200 453 1223 543 c 4
 1238 601 1249 642 1249 673 c 4
 1249 720 1228 743 1182 757 c 4
 1172 760 1167 762 1159 764 c 4
 1136 771 1109 782 1109 809 c 4
 1109 832 1131 854 1160 854 c 4
 1212 854 1271 853 1344 853 c 4
 1362 853 1379 853 1397 853 c 4
 1451 853 1489 847 1489 800 c 4
 1489 781 1475 765 1458 760 c 4
 1441 755 1431 753 1418 749 c 4
 1373 737 1375 700 1327 562 c 4
 1305 499 1291 428 1238 306 c 4
 1180 171 1098 -33 1042 -33 c 4
 1003 -33 977 17 935 94 c 4
 851 249 801 348 760 437 c 5
 729 355 633 148 599 87 c 4
 581 54 563 20 541 -2 c 4
 531 -12 516 -26 499 -26 c 4
 459 -26 418 43 377 118 c 4
 277 301 252 373 169 574 c 4
 115 704 114 734 73 752 c 4
 61 757 55 760 46 764 c 4
 39 767 25 780 25 814 c 4
 25 843 38 855 70 855 c 4
 98 855 142 852 205 852 c 4
 296 852 315 854 350 854 c 4
 377 854 403 841 403 804 c 4
 403 782 382 775 359 771 c 4
 343 768 335 767 323 765 c 4
 299 761 284 751 284 722 c 4
 284 708 294 664 315 616 c 4
 400 422 504 194 525 185 c 4
 525 185 524 185 525 185 c 4
 525 185 523 185 524 185 c 4
 544 200 681 469 699 567 c 5
EndSplineSet
Fore
SplineSet
699 567 m 1xb8
 627 736 623 741 586 753 c 2
 513 776 l 2
 500 780 481 791 481 814 c 0
 481 842 509 857 546 857 c 0
 605 857 681 852 725 852 c 2
 891 852 l 2
 945 852 976 843 976 806 c 0
 976 787 963 768 937 765 c 2xb8
 855 755 l 2
 833 752 820 746 820 722 c 0
 820 703 830 674 848 629 c 0
 897 510 1047 205 1076 205 c 0
 1090 205 1249 540 1249 673 c 0
 1249 720 1228 743 1182 757 c 2
 1159 764 l 2
 1136 771 1109 782 1109 809 c 0
 1109 832 1131 854 1160 854 c 0
 1212 854 1271 853 1344 853 c 2
 1397 853 l 2
 1451 853 1489 847 1489 800 c 0
 1489 781 1475 765 1458 760 c 2
 1418 749 l 2
 1373 737 1375 700 1327 562 c 0
 1305 499 1291 428 1238 306 c 0
 1180 171 1098 -33 1042 -33 c 0
 1003 -33 977 17 935 94 c 0
 851 249 801 348 760 437 c 1
 729 355 633 148 599 87 c 0
 581 54 563 20 541 -2 c 0
 531 -12 516 -26 499 -26 c 0
 459 -26 418 43 377 118 c 0
 277 301 252 373 169 574 c 0
 115 704 114 734 73 752 c 2
 46 764 l 2
 39 767 25 780 25 814 c 0
 25 843 38 855 70 855 c 0xd8
 98 855 142 852 205 852 c 0
 296 852 315 854 350 854 c 0
 377 854 403 841 403 804 c 0
 403 782 382 775 359 771 c 2
 323 765 l 2
 299 761 284 751 284 722 c 0
 284 708 294 664 315 616 c 0
 369 492 506 186 524 186 c 0
 537 186 681 470 699 567 c 1xb8
EndSplineSet
Validated: 1
AlternateSubs2: "'aalt' Access All Alternates in Latin lookup 0 subtable" w.sc
Substitution2: "'smcp' Lowercase to Small Capitals in Latin lookup 0 subtable" w.sc
EndChar

StartChar: x
Encoding: 120 120 23
Width: 980
Flags: W
HStem: 2 79<61.7188 172.157 308.098 343 508.899 586 795.715 834> 754 92<144 204.698> 765 76<372.017 454.68 818.083 888.979>
VStem: 61 247<22 136> 616 285<30.5 132 730.5 811>
LayerCount: 3
Back
SplineSet
152 846 m 4
 163 846 178 846 205 845 c 6
 385 841 l 6
 440 840 455 825 455 808 c 4
 455 782 437 782 421 777 c 4
 396 770 372 768 372 749 c 4
 372 726 392 691 425 643 c 6
 493 544 l 5
 577 653 l 6
 611 697 624 722 624 739 c 4
 624 752 616 760 599 766 c 6
 571 776 l 6
 554 783 544 786 544 805 c 4
 544 833 584 839 599 839 c 6
 715 839 l 6
 745 839 825 841 842 841 c 4
 882 841 889 818 889 804 c 4
 889 773 862 767 843 765 c 6
 811 762 l 6
 770 758 737 733 694 679 c 6
 536 482 l 5
 692 261 l 6
 796 113 800 105 834 93 c 5
 870 79 l 6
 886 72 901 64 901 47 c 4
 901 14 865 4 836 4 c 6
 716 4 l 6
 681 4 590 2 564 2 c 4
 540 2 507 4 507 31 c 4
 507 48 522 70 557 81 c 6
 586 90 l 6
 608 97 616 108 616 124 c 4
 616 140 609 162 578 205 c 6
 462 367 l 5
 363 242 l 6
 317 184 308 148 308 124 c 4
 308 98 323 96 343 86 c 6
 374 71 l 6
 393 62 404 50 404 37 c 4
 404 7 367 2 327 2 c 4
 320 2 116 -1 109 -1 c 4
 74 -1 61 13 61 31 c 4
 61 41 61 74 107 87 c 4
 144 97 146 87 190 141 c 6
 416 425 l 5
 284 606 l 6
 198 724 179 743 144 754 c 6
 111 765 l 6
 94 770 74 782 74 806 c 4
 74 837 124 845 152 846 c 4
EndSplineSet
Fore
SplineSet
385 841 m 0xb8
 415 840 455 836 455 808 c 0
 455 782 437 782 421 777 c 0
 396 770 372 768 372 749 c 0
 372 726 392 691 425 643 c 2
 493 544 l 1
 577 653 l 2
 611 697 624 722 624 739 c 0
 624 752 615 760 599 766 c 2
 571 776 l 2
 555 782 544 786 544 805 c 0
 544 833 584 839 599 839 c 2
 715 839 l 2
 745 839 825 841 842 841 c 0
 882 841 889 818 889 804 c 0
 889 773 862 767 843 765 c 2xb8
 811 762 l 2
 770 758 737 733 694 679 c 2
 536 482 l 1
 692 261 l 2
 796 113 800 106 834 93 c 2
 870 79 l 2
 886 72 901 64 901 47 c 0
 901 14 865 4 836 4 c 0
 796 4 756 4 716 4 c 0
 681 4 590 2 564 2 c 0
 540 2 507 4 507 31 c 0
 507 48 522 70 557 81 c 2
 586 90 l 2
 608 97 616 108 616 124 c 0
 616 140 609 162 578 205 c 2
 462 367 l 1
 363 242 l 2
 317 184 308 148 308 124 c 0
 308 98 323 96 343 86 c 2
 374 71 l 2
 393 62 404 50 404 37 c 0
 404 7 367 2 327 2 c 0
 320 2 116 -1 109 -1 c 0
 74 -1 61 13 61 31 c 0
 61 41 61 74 107 87 c 0
 144 97 146 87 190 141 c 2
 416 425 l 1
 284 606 l 2
 198 724 179 742 144 754 c 2xd8
 111 765 l 2xb8
 94 770 74 782 74 806 c 0
 74 839 130 846 160 846 c 0xd8
 167 846 310 843 385 841 c 0xb8
EndSplineSet
Validated: 1
AlternateSubs2: "'aalt' Access All Alternates in Latin lookup 0 subtable" x.sc
Substitution2: "'smcp' Lowercase to Small Capitals in Latin lookup 0 subtable" x.sc
EndChar

StartChar: y
Encoding: 121 121 24
Width: 1031
Flags: W
HStem: 756 91<108 147.997> 772 74<360 464.594 607.081 686>
VStem: 57 288<682.5 814.5> 725 252<671.5 823>
LayerCount: 3
Back
SplineSet
104 847 m 4
 234 847 305 846 405 846 c 4
 440 846 465 837 465 803 c 4
 465 776 429 773 421 772 c 4
 395 767 380 765 360 762 c 4
 347 760 344 741 345 717 c 4
 347 642 529 241 555 221 c 4
 556 221 554 221 554 221 c 4
 554 221 551 220 552 221 c 4
 560 229 602 306 644 412 c 4
 689 525 725 648 725 695 c 4
 725 738 704 759 686 764 c 4
 677 767 672 768 665 770 c 4
 610 786 607 798 607 811 c 4
 607 834 635 850 669 850 c 4
 682 850 715 851 792 851 c 4
 822 851 915 849 938 849 c 4
 960 849 977 834 977 812 c 4
 977 790 967 783 932 768 c 4
 875 743 879 747 797 544 c 4
 752 432 692 293 629 156 c 4
 433 -274 316 -407 238 -407 c 4
 179 -407 156 -369 156 -318 c 4
 156 -279 194 -237 240 -214 c 4
 312 -178 331 -175 385 -102 c 4
 429 -42 467 28 469 36 c 4
 469 36 l 4
 469 35 l 4
 464 52 311 423 148 719 c 4
 137 739 121 750 108 756 c 4
 96 762 89 765 80 769 c 4
 66 775 57 785 57 807 c 4
 57 822 62 847 104 847 c 4
EndSplineSet
Fore
SplineSet
405 846 m 0x70
 440 846 465 837 465 803 c 0
 465 776 429 773 421 772 c 2x70
 360 762 l 2
 348 760 345 745 345 724 c 0
 345 641 540 223 554 223 c 0
 562 223 617 343 644 412 c 0
 689 525 725 648 725 695 c 0
 725 738 704 759 686 764 c 2
 665 770 l 2
 610 786 607 798 607 811 c 0
 607 834 635 850 669 850 c 0
 682 850 715 851 792 851 c 0
 822 851 915 849 938 849 c 0
 960 849 977 834 977 812 c 0
 977 790 967 783 932 768 c 0
 875 743 879 747 797 544 c 0
 752 432 692 293 629 156 c 0
 433 -274 316 -407 238 -407 c 0
 179 -407 156 -369 156 -318 c 0
 156 -279 194 -237 240 -214 c 0
 312 -178 331 -175 385 -102 c 0
 429 -42 467 28 469 36 c 1
 459 63 309 427 148 719 c 0
 137 739 122 750 108 756 c 2
 80 769 l 2
 66 775 57 785 57 807 c 0
 57 822 62 847 104 847 c 0xb0
 164 847 315 846 405 846 c 0x70
EndSplineSet
Validated: 1
AlternateSubs2: "'aalt' Access All Alternates in Latin lookup 0 subtable" y.sc
Substitution2: "'smcp' Lowercase to Small Capitals in Latin lookup 0 subtable" y.sc
EndChar

StartChar: z
Encoding: 122 122 25
Width: 756
Flags: W
HStem: -5 150<228.185 591.006> 703 138<195.205 479.993>
VStem: 89 64<575.015 634> 111 74<855 911.725> 592 79<-168.951 -7.82919> 625 70<156.006 312.72>
LayerCount: 3
Back
SplineSet
452 651 m 4
 476 685 480 694 480 698 c 4
 480 700 480 700 477 701 c 4
 473 702 466 703 450 703 c 4
 387 703 325 703 262 703 c 4
 200 703 163 662 158 634 c 4
 156 621 155 615 153 605 c 4
 151 592 142 575 122 575 c 4
 93 575 89 596 89 624 c 4
 89 668 111 730 111 800 c 4
 111 808 111 815 111 823 c 4
 111 840 113 913 156 913 c 4
 166 913 180 906 185 890 c 4
 189 875 192 867 195 855 c 4
 199 839 227 837 273 837 c 4
 413 838 489 840 597 841 c 4
 661 841 671 822 671 810 c 4
 671 808 671 807 671 805 c 4
 671 767 559 662 470 529 c 4
 307 287 215 184 215 160 c 4
 215 159 215 159 215 158 c 4
 216 157 l 4
 224 143 319 145 351 145 c 4
 416 145 481 145 546 145 c 4
 591 145 607 149 625 261 c 4
 630 294 632 313 666 313 c 4
 679 313 695 311 695 272 c 4
 695 214 677 49 671 -64 c 4
 669 -102 678 -169 630 -169 c 4
 600 -169 592 -158 592 -131 c 4
 592 -100 592 -69 592 -38 c 4
 592 -19 586 0 503 0 c 4
 501 0 499 0 497 0 c 4
 365 -2 232 -4 100 -5 c 4
 57 -5 42 13 42 37 c 4
 42 76 84 127 99 149 c 4
 251 367 334 484 452 651 c 4
EndSplineSet
Fore
SplineSet
452 651 m 2xc8
 470 676 480 689 480 696 c 0
 480 702 471 703 450 703 c 2
 262 703 l 2
 200 703 163 662 158 634 c 2
 153 605 l 2
 151 592 142 575 122 575 c 0
 93 575 89 596 89 624 c 0xe8
 89 668 111 730 111 800 c 2
 111 823 l 2
 111 840 113 913 156 913 c 0
 166 913 180 906 185 890 c 2
 195 855 l 2
 199 839 227 837 273 837 c 0
 413 838 489 840 597 841 c 0
 661 841 671 822 671 810 c 2
 671 805 l 2xd8
 671 767 559 662 470 529 c 0
 337 332 251 227 224 182 c 0
 210 159 205 145 236 145 c 2
 546 145 l 2
 591 145 607 149 625 261 c 0
 630 294 632 313 666 313 c 0
 679 313 695 311 695 272 c 0xc4
 695 214 677 49 671 -64 c 0
 669 -102 678 -169 630 -169 c 0
 600 -169 592 -158 592 -131 c 0
 592 -100 592 -69 592 -38 c 0
 592 -19 586 0 503 0 c 0
 463 0 342 -3 100 -5 c 0
 57 -5 42 13 42 37 c 0
 42 76 84 127 99 149 c 2
 452 651 l 2xc8
EndSplineSet
Validated: 1
AlternateSubs2: "'aalt' Access All Alternates in Latin lookup 0 subtable" z.sc
Substitution2: "'smcp' Lowercase to Small Capitals in Latin lookup 0 subtable" z.sc
EndChar

StartChar: A
Encoding: 65 65 26
Width: 1715
VWidth: -15
Flags: W
HStem: -10 100<38.618 211.934 1112.53 1270.86 1506.01 1663.65> -9 87<424.353 583.658> 612 114<624 1083> 1413 20G<919.5 955>
LayerCount: 3
Fore
SplineSet
38 34 m 0xb0
 38 84 62 90 92 90 c 2
 111 90 l 2
 178 90 248 123 367 390 c 0
 467 615 547 820 877 1393 c 0
 887 1410 907 1433 932 1433 c 0
 978 1433 1008 1398 1308 632 c 2
 1488 172 l 2
 1515 103 1538 95 1630 95 c 0
 1644 95 1664 87 1664 47 c 0
 1664 12 1659 -10 1616 -10 c 0xb0
 1570 -10 1518 6 1406 6 c 0
 1314 6 1186 -7 1152 -7 c 0
 1114 -7 1112 17 1112 35 c 0
 1112 51 1114 83 1162 83 c 2
 1185 83 l 2
 1249 83 1275 103 1275 152 c 0
 1275 244 1152 551 1127 612 c 1
 573 612 l 1
 528 502 412 270 412 182 c 0
 412 82 477 78 532 78 c 0
 554 78 584 76 584 47 c 0
 584 3 576 -9 549 -9 c 0x70
 534 -9 334 0 298 0 c 0
 225 0 100 -10 82 -10 c 0
 54 -10 38 2 38 34 c 0xb0
624 726 m 1
 1083 726 l 1
 923 1164 904 1183 887 1183 c 0
 846 1183 650 780 624 726 c 1
EndSplineSet
Validated: 1
AlternateSubs2: "'aalt' Access All Alternates in Latin lookup 0 subtable" a.sc
Substitution2: "'c2sc' Capitals to Small Capitals in Latin lookup 1 subtable" a.sc
EndChar

StartChar: B
Encoding: 66 66 27
Width: 1210
VWidth: 0
Flags: W
HStem: -5 97<40 216.142 398.034 798.078> 721 80<405.469 753.66> 1307 90<70.2838 232.032 420.255 734.095>
VStem: 218 178<94.3569 663.77> 235 185<849.813 1303.19> 860 202<924.852 1189.15> 948 188<255.141 553.637>
LayerCount: 3
Fore
SplineSet
40 29 m 2xe2
 40 48 l 2
 40 61 48 92 73 92 c 2
 149 92 l 2
 203 92 216 116 218 152 c 0xf2
 225 312 235 1058 235 1218 c 0
 235 1279 231 1307 150 1307 c 2
 112 1307 l 2
 72 1307 70 1315 70 1336 c 2
 70 1343 l 2
 70 1361 72 1394 103 1394 c 0
 235 1394 252 1392 350 1392 c 0
 373 1392 477 1397 552 1397 c 0
 696 1397 1062 1383 1062 1075 c 0xec
 1062 857 828 770 828 770 c 1
 828 770 1136 711 1136 420 c 0
 1136 119 881 -10 590 -10 c 0
 504 -10 388 1 313 1 c 0
 220 1 151 -5 81 -5 c 0
 44 -5 40 8 40 29 c 2xe2
396 156 m 0
 396 82 476 80 544 80 c 0
 693 80 792 89 885 222 c 0
 937 296 948 364 948 394 c 0
 948 633 734 697 660 711 c 0
 609 721 541 721 434 721 c 0
 406 721 399 720 399 658 c 0
 399 578 396 494 396 156 c 0
405 831 m 2
 405 810 420 801 441 801 c 2
 634 801 l 2
 790 801 860 919 860 1042 c 0
 860 1176 773 1307 530 1307 c 2
 466 1307 l 2
 422 1307 421 1282 420 1256 c 2xec
 405 831 l 2
EndSplineSet
Validated: 1
AlternateSubs2: "'aalt' Access All Alternates in Latin lookup 0 subtable" b.sc
Substitution2: "'c2sc' Capitals to Small Capitals in Latin lookup 1 subtable" b.sc
EndChar

StartChar: C
Encoding: 67 67 28
Width: 1518
VWidth: -15
Flags: W
HStem: -33 88<592.022 1045.83> 859 21G<1320.5 1345.5> 1332 93<563.329 983.425> 1377 20G<1289.5 1327.5>
VStem: 63 207<409.034 943.526> 1277 93<859.5 1077.19>
LayerCount: 3
Fore
SplineSet
63 666 m 0xec
 63 1078 334 1425 747 1425 c 0xec
 1092 1425 1216 1278 1236 1278 c 0
 1260 1278 1268 1397 1311 1397 c 2
 1319 1397 l 2xdc
 1336 1397 1348 1393 1348 1335 c 0
 1348 1295 1347 1328 1347 1269 c 0
 1347 1152 1370 1047 1370 973 c 0
 1370 902 1363 859 1328 859 c 0
 1313 859 1277 866 1277 901 c 2
 1277 913 l 2
 1277 1147 1026 1332 768 1332 c 0
 465 1332 270 1096 270 688 c 0
 270 230 538 55 799 55 c 0
 1109 55 1232 220 1275 283 c 0
 1354 399 1340 513 1395 513 c 0
 1411 513 1447 496 1447 467 c 0
 1447 386 1418 388 1401 244 c 0
 1385 108 1364 81 1347 81 c 2
 1339 81 l 2
 1312 81 1309 129 1295 129 c 0
 1283 129 1129 -33 790 -33 c 0
 366 -33 63 233 63 666 c 0xec
EndSplineSet
Validated: 1
AlternateSubs2: "'aalt' Access All Alternates in Latin lookup 0 subtable" c.sc
Substitution2: "'c2sc' Capitals to Small Capitals in Latin lookup 1 subtable" c.sc
EndChar

StartChar: D
Encoding: 68 68 29
Width: 1507
VWidth: 0
Flags: W
HStem: -0 100<62.4629 261.517 477.031 925.431> 1290 80<79.1406 269.957 473.429 844.031>
VStem: 264 197<115.275 724.569> 279 189<541.859 1286.62> 1251 204<475.235 907.374>
LayerCount: 3
Fore
SplineSet
62 36 m 0xd8
 62 93 71 100 110 100 c 2
 194 100 l 2
 266 100 263 132 264 200 c 0xe8
 270 719 279 978 279 1064 c 0
 279 1277 277 1290 198 1290 c 2
 115 1290 l 2
 91 1290 79 1292 79 1338 c 0
 79 1363 86 1370 119 1370 c 0
 141 1370 208 1368 342 1368 c 0
 428 1368 552 1379 621 1379 c 0
 1273 1379 1455 967 1455 693 c 0
 1455 398 1183 -4 656 -4 c 0
 546 -4 378 6 298 6 c 0
 201 6 137 0 98 -0 c 0
 80 0 62 13 62 36 c 0xd8
461 249 m 0
 461 113 497 110 585 93 c 0
 598 90 621 88 650 88 c 0
 846 88 1251 167 1251 690 c 0
 1251 819 1178 1298 573 1298 c 2
 538 1298 l 2
 475 1298 469 1251 468 1197 c 0xd8
 462 455 461 342 461 249 c 0
EndSplineSet
Validated: 1
AlternateSubs2: "'aalt' Access All Alternates in Latin lookup 0 subtable" d.sc
Substitution2: "'c2sc' Capitals to Small Capitals in Latin lookup 1 subtable" d.sc
EndChar

StartChar: E
Encoding: 69 69 30
Width: 1239
VWidth: 0
Flags: W
HStem: -2 92<85.0081 252.275> 2 119<455.542 972.267> 752 100<452 865.307> 1284 114<455.009 946.937> 1307 88<98 268.698>
VStem: 259 191<124.878 744.5> 275 175<591.67 752 852 1280.98> 878 80<545 653 860.981 1043.89>
LayerCount: 3
Fore
SplineSet
85 44 m 2xa5
 85 52 l 2
 85 87 96 90 123 90 c 2
 185 90 l 2
 253 90 259 109 259 254 c 0xa5
 259 424 275 509 275 1105 c 2
 275 1182 l 2
 275 1284 267 1307 182 1307 c 2
 147 1307 l 2
 117 1307 98 1310 98 1339 c 2
 98 1359 l 2
 98 1395 159 1395 178 1395 c 0xab
 222 1394 271 1393 323 1393 c 0
 714 1393 995 1398 1032 1398 c 0
 1045 1398 1067 1398 1070 1371 c 0
 1078 1285 1109 1118 1109 1108 c 0
 1109 1086 1102 1065 1072 1065 c 0
 1048 1065 1049 1070 942 1251 c 0
 930 1271 904 1284 869 1284 c 2
 540 1284 l 2
 453 1284 455 1274 454 1204 c 0
 452 1097 452 852 452 852 c 1
 520 852 655 854 790 856 c 0
 863 857 871 861 878 994 c 0
 879 1005 878 1044 920 1044 c 0
 938 1044 958 1033 958 1004 c 0
 958 928 953 866 953 792 c 0
 953 700 962 636 962 596 c 0
 962 561 955 545 928 545 c 2
 914 545 l 2
 886 545 874 568 872 615 c 2
 870 653 l 2
 867 706 868 754 816 754 c 2
 450 752 l 1x33
 450 255 l 2
 450 123 461 121 559 121 c 0
 958 121 952 136 960 147 c 0
 973 164 1007 219 1036 273 c 2
 1087 369 l 2
 1097 386 1112 395 1122 395 c 0
 1137 395 1162 384 1162 362 c 0
 1162 344 1120 160 1088 16 c 0
 1085 2 1075 0 1060 0 c 0
 914 0 641 2 495 2 c 0x75
 406 2 194 -2 106 -2 c 0
 86 -2 85 22 85 44 c 2xa5
EndSplineSet
Validated: 1
Layer: 2
SplineSet
914 545 m 6
 886 545 874 568 872 615 c 6
 870 653 l 6
 867 706 868 754 816 754 c 6
 450 752 l 5
 450 255 l 6
 450 123 461 121 559 121 c 4
 958 121 952 136 960 147 c 4
 973 164 1007 219 1036 273 c 6
 1087 369 l 6
 1097 386 1112 395 1122 395 c 4
 1137 395 1162 384 1162 362 c 4
 1162 344 1120 160 1088 16 c 4
 1085 2 1075 0 1060 0 c 4
 914 0 641 2 495 2 c 4
 406 2 194 -2 106 -2 c 4
 86 -2 85 22 85 44 c 6
 85 52 l 6
 85 87 96 90 123 90 c 6
 185 90 l 6
 253 90 259 109 259 254 c 4
 259 424 275 509 275 1105 c 6
 275 1182 l 6
 275 1284 267 1302 182 1302 c 6
 147 1302 l 6
 117 1302 98 1305 98 1334 c 6
 98 1354 l 6
 98 1390 159 1390 178 1390 c 4
 222 1389 271 1388 323 1388 c 4
 714 1388 995 1408 1032 1408 c 4
 1045 1408 1067 1408 1070 1381 c 4
 1078 1295 1109 1118 1109 1108 c 4
 1109 1086 1102 1065 1072 1065 c 4
 1048 1065 1049 1070 942 1251 c 4
 930 1271 904 1284 869 1284 c 6
 540 1284 l 6
 453 1284 455 1274 454 1204 c 4
 452 1097 452 852 452 852 c 5
 520 852 655 854 790 856 c 4
 863 857 871 861 878 994 c 4
 879 1005 878 1044 920 1044 c 4
 938 1044 958 1033 958 1004 c 4
 958 928 953 866 953 792 c 4
 953 700 962 636 962 596 c 4
 962 561 955 545 928 545 c 6
 914 545 l 6
EndSplineSet
AlternateSubs2: "'aalt' Access All Alternates in Latin lookup 0 subtable" e.sc
Substitution2: "'c2sc' Capitals to Small Capitals in Latin lookup 1 subtable" e.sc
EndChar

StartChar: F
Encoding: 70 70 31
Width: 1239
VWidth: 0
Flags: W
HStem: -8 107<54.3605 233.332 453.278 699.226> 750 101<436 858.327> 1296 97<57.1561 179 436.107 954.875>
VStem: 252 184<108.605 750 851 1292.15> 866 93<543.417 748.346 862.944 1045.67>
LayerCount: 3
Fore
SplineSet
52 27 m 0
 52 96 86 100 120 100 c 2
 160 100 l 2
 216 100 249 111 249 276 c 0
 249 398 252 569 252 1178 c 0
 252 1272 228 1294 179 1298 c 2
 109 1304 l 2
 81 1306 57 1324 57 1343 c 2
 57 1363 l 2
 57 1382 87 1395 106 1395 c 0
 158 1394 254 1393 356 1393 c 2
 523 1393 l 2
 600 1393 668 1393 709 1394 c 2
 1036 1398 l 2
 1049 1398 1064 1391 1066 1377 c 0
 1073 1336 1113 1119 1113 1107 c 0
 1113 1073 1084 1072 1079 1072 c 0
 1058 1072 1043 1100 1031 1121 c 2
 947 1266 l 2
 941 1275 941 1296 722 1296 c 2
 516 1296 l 2
 444 1296 436 1292 436 1243 c 2
 436 851 l 1
 436 851 604 852 715 852 c 0
 877 852 862 893 866 940 c 0
 871 995 880 1047 921 1047 c 0
 951 1047 959 1021 959 980 c 0
 959 936 954 852 954 785 c 0
 954 666 966 634 966 598 c 0
 966 562 948 542 924 542 c 0
 866 542 866 597 864 667 c 0
 861 749 823 752 787 752 c 2
 434 750 l 1
 441 255 l 2
 443 123 460 99 528 99 c 2
 602 99 l 2
 671 99 700 90 700 48 c 0
 700 2 673 -8 619 -8 c 0
 557 -8 458 6 318 6 c 0
 242 6 169 -4 119 -4 c 0
 78 -4 52 3 52 27 c 0
EndSplineSet
Validated: 1
AlternateSubs2: "'aalt' Access All Alternates in Latin lookup 0 subtable" f.sc
Substitution2: "'c2sc' Capitals to Small Capitals in Latin lookup 1 subtable" f.sc
EndChar

StartChar: G
Encoding: 71 71 32
Width: 1525
VWidth: 0
Flags: W
HStem: -31 94<597.497 1023.14> 553 93<904.136 1037 1327.83 1451.98> 1351 76<555.705 918.706> 1360 20G<1273 1314.5>
VStem: 64 208<434.786 973.467> 1147 184<160.51 526.125> 1259 84<905.292 964>
LayerCount: 3
Fore
SplineSet
64 686 m 0xec
 64 1213 430 1427 734 1427 c 0xec
 1072 1427 1164 1287 1211 1287 c 0
 1250 1287 1246 1380 1300 1380 c 0
 1329 1380 1331 1361 1331 1346 c 0xdc
 1331 1295 1324 1278 1324 1176 c 0
 1324 1129 1343 1013 1343 956 c 0
 1343 911 1319 905 1293 905 c 0
 1265 905 1263 916 1259 940 c 2xda
 1255 964 l 2
 1236 1081 1036 1351 730 1351 c 0
 397 1351 272 1027 272 726 c 0
 272 342 451 63 830 63 c 0
 1041 63 1147 191 1147 232 c 2
 1147 283 l 2
 1147 350 1144 317 1144 452 c 0
 1144 525 1092 536 1037 540 c 0
 1021 541 1005 542 989 543 c 0
 943 547 904 555 904 602 c 0
 904 620 925 632 944 632 c 0
 1012 632 1112 633 1192 633 c 0
 1316 633 1381 646 1419 646 c 0
 1450 646 1452 636 1452 597 c 0
 1452 589 1447 568 1374 553 c 0
 1330 544 1327 535 1327 476 c 0
 1327 180 1331 247 1331 152 c 0
 1331 128 1329 108 1308 108 c 0
 1279 108 1271 144 1242 144 c 0
 1215 144 1084 -31 801 -31 c 0
 207 -31 64 436 64 686 c 0xec
EndSplineSet
Validated: 1
AlternateSubs2: "'aalt' Access All Alternates in Latin lookup 0 subtable" g.sc
Substitution2: "'c2sc' Capitals to Small Capitals in Latin lookup 1 subtable" g.sc
EndChar

StartChar: H
Encoding: 72 72 33
Width: 1579
VWidth: 0
Flags: W
HStem: -8 14G<46.5 75.5 490 535 976.5 1039 1452 1485.5> 755 100<386 1134> 1309 79<21.0147 90 406.121 592.405 958.069 1114.77 1325.5 1483.5>
VStem: 213 173<98.9842 755 855 1292.15> 1135 169<95.7825 755 855 1293.18>
LayerCount: 3
Fore
SplineSet
21 1348 m 0
 21 1380 41 1388 89 1388 c 0
 131 1388 195 1382 286 1382 c 0
 414 1382 489 1388 540 1388 c 0
 576 1388 594 1382 594 1368 c 0
 594 1299 551 1315 474 1304 c 0
 414 1296 400 1292 397 1206 c 2
 386 855 l 1
 1135 855 l 1
 1135 1120 l 2
 1135 1278 1122 1305 1026 1312 c 0
 972 1316 958 1322 958 1351 c 0
 958 1373 968 1388 1015 1388 c 0
 1054 1388 1150 1378 1232 1378 c 0
 1317 1378 1391 1394 1436 1394 c 0
 1466 1394 1484 1387 1484 1362 c 0
 1484 1314 1472 1310 1395 1304 c 0
 1316 1298 1304 1272 1304 1105 c 0
 1304 900 1308 257 1308 176 c 0
 1308 116 1310 80 1474 80 c 0
 1504 80 1511 71 1511 37 c 0
 1511 0 1500 -15 1471 -15 c 0
 1433 -15 1362 0 1226 0 c 0
 1177 0 1089 -12 989 -12 c 0
 964 -12 947 3 947 26 c 0
 947 55 964 66 983 66 c 0
 1116 66 1131 84 1131 163 c 2
 1131 291 l 2
 1131 433 1131 650 1134 755 c 1
 386 755 l 1
 386 336 l 2
 386 73 407 90 549 78 c 0
 572 76 584 70 584 30 c 0
 584 5 558 -1 512 -1 c 0
 468 -1 407 4 329 4 c 0
 280 4 93 -8 58 -8 c 0
 35 -8 34 19 34 41 c 2
 34 46 l 2
 34 75 55 84 74 84 c 2
 141 84 l 2
 205 84 210 132 210 145 c 0
 211 171 213 153 213 791 c 2
 213 1126 l 2
 213 1307 192 1293 90 1304 c 2
 46 1309 l 2
 23 1311 21 1321 21 1348 c 0
EndSplineSet
Validated: 1
Layer: 2
SplineSet
1131 163 m 6xbc
 1131 291 l 6
 1131 433 1131 650 1134 755 c 5
 386 755 l 5
 386 336 l 6
 386 73 407 90 549 78 c 4
 572 76 584 70 584 30 c 4
 584 5 558 -1 512 -1 c 4
 468 -1 407 4 329 4 c 4
 280 4 93 -8 58 -8 c 4
 35 -8 34 19 34 41 c 6
 34 46 l 6
 34 75 55 84 74 84 c 6
 141 84 l 6x7c
 205 84 210 132 210 145 c 4
 211 171 213 153 213 791 c 6
 213 1126 l 6
 213 1307 192 1293 90 1304 c 6
 46 1309 l 6
 23 1311 21 1321 21 1348 c 4
 21 1380 41 1388 89 1388 c 4
 131 1388 195 1382 286 1382 c 4
 414 1382 489 1388 540 1388 c 4
 576 1388 594 1382 594 1368 c 4
 594 1299 551 1315 474 1304 c 4
 414 1296 400 1292 397 1206 c 6
 386 855 l 5
 1135 855 l 5
 1135 1120 l 6
 1135 1278 1122 1305 1026 1312 c 4
 972 1316 958 1322 958 1351 c 4
 958 1373 968 1388 1015 1388 c 4
 1054 1388 1150 1378 1232 1378 c 4
 1317 1378 1391 1394 1436 1394 c 4
 1466 1394 1484 1387 1484 1362 c 4
 1484 1314 1472 1310 1395 1304 c 4
 1316 1298 1304 1272 1304 1105 c 4
 1304 900 1308 257 1308 176 c 4
 1308 116 1310 80 1474 80 c 4
 1505 80 1512 72 1512 55 c 4
 1512 -2 1506 -15 1471 -15 c 4
 1433 -15 1362 0 1226 0 c 4
 1177 0 1089 -12 989 -12 c 4
 964 -12 947 3 947 26 c 4
 947 55 964 66 983 66 c 4
 1116 66 1131 84 1131 163 c 6xbc
EndSplineSet
AlternateSubs2: "'aalt' Access All Alternates in Latin lookup 0 subtable" h.sc
Substitution2: "'c2sc' Capitals to Small Capitals in Latin lookup 1 subtable" h.sc
EndChar

StartChar: I
Encoding: 73 73 34
Width: 667
VWidth: 0
Flags: W
HStem: -11 101<39.4911 244.289 455.051 633.291> 1294 100<76.3277 255.43 461.774 636.338>
VStem: 250 192<98.4525 1286.73>
LayerCount: 3
Fore
SplineSet
39 49 m 0
 39 73 58 90 84 90 c 2
 145 90 l 2
 205 90 246 108 250 141 c 0
 252 157 263 1150 263 1163 c 0
 263 1293 243 1294 177 1294 c 2
 114 1294 l 2
 94 1294 76 1315 76 1342 c 0
 76 1374 94 1394 126 1394 c 0
 168 1394 245 1376 336 1376 c 0
 494 1376 573 1386 599 1386 c 0
 628 1386 637 1372 637 1352 c 0
 637 1278 601 1304 524 1293 c 0
 464 1285 455 1286 454 1200 c 0
 451 888 442 301 442 269 c 2
 442 242 l 2
 442 72 477 90 599 84 c 0
 622 83 634 70 634 30 c 0
 634 5 630 -6 584 -6 c 0
 540 -6 414 6 336 6 c 0
 185 6 128 -11 85 -11 c 0
 47 -11 39 5 39 49 c 0
EndSplineSet
Validated: 1
AlternateSubs2: "'aalt' Access All Alternates in Latin lookup 0 subtable" i.sc
Substitution2: "'c2sc' Capitals to Small Capitals in Latin lookup 1 subtable" i.sc
EndChar

StartChar: J
Encoding: 74 74 35
Width: 758
VWidth: 0
Flags: W
HStem: -411 119<31 223.273> 1294 100<94.3277 280.168 495.785 683.13>
VStem: 296 191<-69.321 1280.89>
LayerCount: 3
Fore
SplineSet
-127 -258 m 0
 -127 -198 -54 -144 -2 -144 c 0
 82 -144 112 -292 180 -292 c 0
 232 -292 290 -221 290 74 c 0
 290 125 296 1026 296 1118 c 0
 296 1232 282 1284 234 1284 c 0
 206 1284 133 1294 132 1294 c 0
 112 1297 94 1315 94 1342 c 0
 94 1374 112 1394 144 1394 c 0
 186 1394 289 1382 380 1382 c 0
 538 1382 601 1394 648 1394 c 0
 677 1394 684 1370 684 1350 c 0
 684 1288 636 1299 559 1288 c 0
 499 1280 488 1260 487 1174 c 0
 484 871 480 408 480 201 c 0
 480 123 472 -49 398 -168 c 0
 305 -319 208 -411 81 -411 c 0
 -19 -411 -127 -350 -127 -258 c 0
EndSplineSet
Validated: 1
AlternateSubs2: "'aalt' Access All Alternates in Latin lookup 0 subtable" j.sc
Substitution2: "'c2sc' Capitals to Small Capitals in Latin lookup 1 subtable" j.sc
EndChar

StartChar: K
Encoding: 75 75 36
Width: 1387
VWidth: 0
Flags: W
HStem: -11 75<405.098 590.865 1178.95 1321.29> -2 88<29.1211 210.286> 1294 94<31.1619 206.347> 1310 89<407.287 566.975 1041.01 1250.91>
VStem: 213 185<90.5 608 718 1291.7>
LayerCount: 3
Fore
SplineSet
29 49 m 0x48
 29 73 67 86 93 86 c 2
 149 88 l 2
 193 90 212 96 212 156 c 0
 212 172 213 1150 213 1163 c 0
 213 1293 193 1294 127 1294 c 2
 64 1294 l 2
 45 1294 31 1312 31 1337 c 0
 31 1376 42 1388 97 1388 c 0x68
 138 1388 206 1383 286 1383 c 0
 435 1383 481 1399 526 1399 c 0
 556 1399 567 1383 567 1354 c 0
 567 1314 533 1320 460 1310 c 0
 400 1301 405 1286 404 1200 c 0
 402 1068 400 886 398 718 c 1
 828 1203 l 2
 841 1217 864 1249 864 1264 c 0
 864 1334 716 1295 716 1346 c 2
 716 1361 l 2
 716 1377 720 1398 754 1398 c 0
 814 1398 860 1394 902 1394 c 0
 1086 1394 1147 1404 1210 1404 c 0
 1237 1404 1251 1381 1251 1358 c 0
 1251 1324 1237 1313 1213 1312 c 2
 1155 1310 l 2
 1120 1309 1071 1295 1036 1262 c 0
 824 1064 738 956 537 744 c 1
 1242 5 1139 103 1300 70 c 0
 1321 66 1323 61 1323 52 c 2
 1323 42 l 2
 1323 0 1298 0 1281 0 c 0
 1139 0 1074 -1 1038 -1 c 0
 998 -1 1007 3 975 36 c 0
 765 252 632 410 428 643 c 1
 396 608 l 1
 392 258 392 297 392 219 c 0
 392 72 396 75 550 64 c 0
 573 62 591 70 591 30 c 0
 591 5 580 -11 534 -11 c 0x98
 490 -11 364 6 286 6 c 0
 176 6 112 -2 75 -2 c 0
 39 -2 29 0 29 49 c 0x48
EndSplineSet
Validated: 1
Layer: 2
SplineSet
392 269 m 2
 392 242 l 2
 392 72 414 85 550 69 c 0
 573 66 586 70 586 30 c 0
 586 5 580 -11 534 -11 c 0
 490 -11 364 1 286 1 c 0
 176 1 112 -12 75 -12 c 0
 39 -12 29 0 29 49 c 0
 29 73 48 90 74 90 c 2
 132 90 l 2
 177 90 212 96 212 156 c 0
 212 172 213 1150 213 1163 c 0
 213 1293 193 1294 127 1294 c 2
 74 1294 l 2
 54 1294 41 1313 41 1340 c 0
 41 1372 61 1388 93 1388 c 0
 135 1388 195 1378 286 1378 c 0
 444 1378 503 1386 529 1386 c 0
 558 1386 567 1372 567 1352 c 0
 567 1296 537 1316 460 1305 c 0
 400 1296 405 1286 404 1200 c 0
 402 1068 400 886 398 718 c 1
 828 1203 l 2
 841 1217 864 1249 864 1264 c 0
 864 1321 716 1295 716 1346 c 0
 716 1352 717 1392 772 1392 c 0
 832 1392 860 1389 902 1389 c 0
 1086 1389 1152 1406 1215 1406 c 0
 1242 1406 1256 1381 1256 1358 c 0
 1256 1324 1242 1303 1218 1302 c 2
 1155 1300 l 2
 1120 1299 1086 1295 1051 1262 c 0
 839 1064 747 952 549 753 c 1
 1181 68 1147 97 1244 86 c 0
 1292 81 1328 82 1328 47 c 0
 1328 -19 1297 -22 1279 -22 c 0
 1233 -22 1029 -6 1029 -6 c 2
 1007 -5 999 -4 960 34 c 0
 752 241 630 406 426 639 c 1
 396 608 l 1
 394 434 392 284 392 269 c 2
EndSplineSet
AlternateSubs2: "'aalt' Access All Alternates in Latin lookup 0 subtable" k.sc
Substitution2: "'c2sc' Capitals to Small Capitals in Latin lookup 1 subtable" k.sc
EndChar

StartChar: L
Encoding: 76 76 37
Width: 1187
VWidth: 0
Flags: W
HStem: -6 100<32.6528 204.729> 5 127<406.609 925.425> 1293 105<46.8848 204.496 476 616.95>
VStem: 216 185<140.016 1290.7>
LayerCount: 3
Fore
SplineSet
32 38 m 0xb0
 32 99 67 82 162 94 c 0xb0
 210 100 216 172 216 252 c 0
 216 439 211 252 211 1189 c 0
 211 1283 179 1293 164 1293 c 2
 128 1293 l 2
 87 1293 45 1297 45 1338 c 0
 45 1382 84 1398 105 1398 c 0
 152 1398 191 1391 312 1391 c 0
 502 1391 520 1399 571 1399 c 0
 615 1399 617 1383 617 1347 c 2
 617 1340 l 2
 617 1322 610 1303 559 1300 c 2
 476 1295 l 2
 420 1292 409 1276 409 1203 c 2
 401 234 l 2
 401 142 419 132 551 132 c 0
 571 132 919 149 926 162 c 0
 1034 338 1070 402 1094 402 c 2
 1102 402 l 2
 1115 402 1138 387 1138 362 c 0
 1138 302 1085 186 1054 15 c 0
 1052 3 1042 -2 1025 -2 c 0
 747 1 616 5 541 5 c 0x70
 277 5 150 -6 89 -6 c 0
 33 -6 32 3 32 38 c 0xb0
EndSplineSet
Validated: 1
AlternateSubs2: "'aalt' Access All Alternates in Latin lookup 0 subtable" l.sc
Substitution2: "'c2sc' Capitals to Small Capitals in Latin lookup 1 subtable" l.sc
EndChar

StartChar: M
Encoding: 77 77 38
Width: 2144
VWidth: 0
Flags: W
HStem: -14 88<480.084 647.569 1468.14 1608> 1289 100<99.292 294 1873.83 2053.54>
VStem: 337 103<153.053 740.696> 1673 199<92.4942 735.579>
LayerCount: 3
Fore
SplineSet
91 36 m 0
 91 86 115 92 160 92 c 2
 195 92 l 2
 324 92 320 221 337 586 c 0
 342 694 364 994 364 1112 c 0
 364 1139 361 1157 349 1172 c 2
 285 1256 l 2
 265 1282 245 1289 210 1289 c 2
 138 1289 l 2
 110 1289 98 1299 98 1329 c 0
 98 1365 116 1389 138 1389 c 0
 168 1389 378 1387 438 1387 c 0
 453 1387 466 1387 480 1363 c 2
 978 486 l 2
 988 469 1100 264 1116 264 c 0
 1122 264 1134 282 1148 308 c 2
 1666 1282 l 2
 1711 1366 1695 1373 1778 1376 c 2
 1778 1376 2006 1383 2022 1383 c 0
 2047 1383 2054 1372 2054 1329 c 0
 2054 1295 2045 1290 2007 1290 c 2
 1935 1290 l 2
 1859 1290 1856 1231 1856 886 c 2
 1856 795 l 2
 1856 701 1859 555 1872 196 c 0
 1877 73 1901 91 2044 79 c 0
 2074 77 2080 68 2080 32 c 0
 2080 10 2047 -22 2032 -22 c 0
 1968 -22 1870 0 1764 0 c 0
 1711 0 1552 -14 1504 -14 c 0
 1489 -14 1468 4 1468 26 c 0
 1468 58 1488 70 1516 74 c 2
 1608 86 l 2
 1665 93 1673 158 1673 317 c 0
 1673 970 1671 1070 1664 1070 c 0
 1657 1070 1588 940 1583 930 c 2
 1134 72 l 2
 1107 20 1098 -28 1052 -28 c 0
 1026 -28 984 87 501 948 c 0
 483 980 471 1003 464 1003 c 0
 447 1003 440 324 440 301 c 0
 440 175 466 112 512 88 c 0
 525 81 576 80 620 78 c 0
 628 78 648 71 648 39 c 0
 648 0 632 -10 589 -10 c 0
 508 -10 563 -4 374 -4 c 0
 262 -4 187 -18 133 -18 c 0
 101 -18 91 6 91 36 c 0
EndSplineSet
Validated: 1
AlternateSubs2: "'aalt' Access All Alternates in Latin lookup 0 subtable" m.sc
Substitution2: "'c2sc' Capitals to Small Capitals in Latin lookup 1 subtable" m.sc
EndChar

StartChar: N
Encoding: 78 78 39
Width: 1686
VWidth: 0
Flags: W
HStem: -39 21G<1408 1428> -8 94<90.428 275.006 464.387 658.133> 1283 103<60.632 268.016 1147.74 1320.91 1472.66 1633.28>
VStem: 357 64<293 1092> 1348 102<308 1263.51>
LayerCount: 3
Fore
SplineSet
60 1332 m 0
 60 1382 96 1386 111 1386 c 0
 141 1386 227 1382 404 1382 c 0
 432 1382 426 1378 479 1316 c 2
 1342 308 l 1
 1342 308 1348 407 1348 962 c 0
 1348 1261 1316 1272 1252 1288 c 0
 1212 1298 1147 1279 1147 1337 c 0
 1147 1380 1173 1388 1236 1388 c 0
 1272 1388 1321 1385 1384 1385 c 0
 1468 1385 1533 1396 1576 1396 c 0
 1614 1396 1634 1375 1634 1338 c 0
 1634 1312 1624 1292 1560 1292 c 0
 1502 1292 1450 1287 1450 1059 c 2
 1450 1019 l 2
 1450 544 1442 448 1442 267 c 0
 1442 116 1446 41 1446 16 c 0
 1446 -11 1441 -39 1415 -39 c 0
 1401 -39 1379 -32 1349 1 c 2
 1285 73 l 1
 1285 73 468 1037 460 1037 c 0
 443 1037 421 299 421 293 c 0
 421 150 482 100 512 94 c 0
 519 93 550 86 614 86 c 0
 640 86 659 72 659 48 c 0
 659 3 628 -8 577 -8 c 0
 524 -8 450 4 368 4 c 0
 286 4 217 -6 168 -6 c 0
 119 -6 90 4 90 43 c 0
 90 98 127 87 178 93 c 0
 318 112 301 130 331 586 c 0
 336 663 357 1044 357 1092 c 0
 357 1152 341 1156 323 1177 c 2
 254 1254 l 2
 230 1281 193 1283 157 1283 c 2
 134 1283 l 2
 93 1283 60 1287 60 1332 c 0
EndSplineSet
Validated: 1
AlternateSubs2: "'aalt' Access All Alternates in Latin lookup 0 subtable" n.sc
Substitution2: "'c2sc' Capitals to Small Capitals in Latin lookup 1 subtable" n.sc
EndChar

StartChar: O
Encoding: 79 79 40
Width: 1615
VWidth: -23
Flags: W
HStem: -30 90<641.899 1042.52> 1343 87<561.768 963.926>
VStem: 82 200<490.233 976.797> 1324 203<419.85 927.464>
LayerCount: 3
Fore
SplineSet
82 711 m 0
 82 1199 452 1430 824 1430 c 0
 1205 1430 1527 1167 1527 682 c 0
 1527 323 1297 -30 813 -30 c 0
 328 -30 82 342 82 711 c 0
282 759 m 0
 282 420 476 60 844 60 c 0
 1069 60 1324 213 1324 626 c 0
 1324 957 1180 1343 753 1343 c 0
 434 1343 282 1059 282 759 c 0
EndSplineSet
Validated: 1
Layer: 2
SplineSet
793 -39 m 4
 297 -39 47 332 47 702 c 4
 47 1092 293 1435 789 1435 c 4
 1301 1435 1553 1060 1553 688 c 4
 1553 323 1310 -39 793 -39 c 4
773 1351 m 4
 390 1351 294 986 294 745 c 4
 294 410 474 60 806 60 c 4
 1108 60 1309 228 1309 662 c 4
 1309 1119 1063 1351 773 1351 c 4
EndSplineSet
AlternateSubs2: "'aalt' Access All Alternates in Latin lookup 0 subtable" o.sc
Substitution2: "'c2sc' Capitals to Small Capitals in Latin lookup 1 subtable" o.sc
EndChar

StartChar: P
Encoding: 80 80 41
Width: 1193
VWidth: 0
Flags: W
HStem: -11 101<35.4183 220.001 424.948 680.645> 624 61<408.273 702.029> 1301 95<55.2188 132> 1324 71<411.53 772.749>
VStem: 223 185<106.271 627.993 685.923 1291.46> 952 199<858.614 1175.15>
LayerCount: 3
Fore
SplineSet
35 38 m 0xdc
 35 62 46 90 86 90 c 0
 117 90 143 87 163 87 c 0
 204 87 223 99 223 175 c 2
 223 1141 l 2
 223 1301 220 1288 132 1297 c 2
 92 1301 l 2
 57 1304 54 1318 54 1337 c 0
 54 1381 82 1396 90 1396 c 0xec
 173 1396 238 1395 288 1395 c 0
 414 1395 538 1404 648 1404 c 0
 1063 1404 1151 1127 1151 1020 c 0
 1151 862 1060 624 549 624 c 0
 500 624 474 628 437 628 c 0
 420 628 408 618 408 602 c 2
 410 250 l 2
 411 138 409 88 562 88 c 2
 600 88 l 2
 645 88 682 81 682 50 c 0
 682 -1 653 -15 597 -15 c 0
 531 -15 427 5 291 5 c 0
 212 5 142 -11 95 -11 c 0
 57 -11 35 -1 35 38 c 0xdc
401 734 m 0
 401 692 421 685 484 685 c 0
 804 685 952 841 952 1008 c 0
 952 1196 832 1324 572 1324 c 2
 480 1324 l 2xdc
 408 1324 410 1317 407 1212 c 0
 403 1039 401 740 401 734 c 0
EndSplineSet
Validated: 1
AlternateSubs2: "'aalt' Access All Alternates in Latin lookup 0 subtable" p.sc
Substitution2: "'c2sc' Capitals to Small Capitals in Latin lookup 1 subtable" p.sc
EndChar

StartChar: Q
Encoding: 81 81 42
Width: 1595
VWidth: 0
Flags: W
HStem: -462 126<1485.87 1696.4> -40 72<625.787 911.487> 1344 90<517.01 949.465>
VStem: 23 213<462.987 948.643> 1300 206<410.459 942.274>
LayerCount: 3
Fore
SplineSet
23 672 m 0
 23 1076 282 1434 762 1434 c 0
 1295 1434 1506 1023 1506 704 c 0
 1506 405 1407 259 1292 144 c 0
 1236 88 1157 44 1060 16 c 1
 1202 -24 1461 -336 1597 -336 c 0
 1730 -336 1741 -288 1764 -288 c 0
 1772 -288 1793 -295 1793 -311 c 0
 1793 -381 1657 -462 1509 -462 c 0
 1278 -462 1119 -237 946 -100 c 0
 883 -50 865 -40 832 -40 c 0
 778 -40 731 -42 686 -42 c 0
 200 -42 23 422 23 672 c 0
236 776 m 0
 236 287 494 32 809 32 c 0
 1140 32 1300 294 1300 642 c 0
 1300 931 1186 1344 730 1344 c 0
 438 1344 236 1150 236 776 c 0
EndSplineSet
Validated: 1
Layer: 2
SplineSet
28 672 m 0
 28 1079 263.093538113 1434 762 1434 c 0
 1294.86171875 1434 1508 1023.10625 1508 704 c 0
 1508 440 1407 259 1292 144 c 0
 1236 88 1157 44 1060 16 c 5
 1202 -24 1461 -336 1597 -336 c 4
 1730 -336 1741 -288 1764 -288 c 4
 1772 -288 1793 -295 1793 -311 c 4
 1793 -381 1657 -462 1509 -462 c 4
 1315.4075651 -462 1154.63530668 -303.120509279 1025.99992916 -179.417473989 c 4
 1000.76487404 -155.150021484 976.766595882 -132.236322938 953.999935992 -112.14144861 c 4
 902.787522262 -66.9390771215 857.807116113 -36 819 -36 c 5
 747 -41 759 -45 748 -45 c 0
 230 -45 28 345 28 672 c 0
706 1347 m 0
 459 1347 236 1150 236 776 c 0
 236 277 507 32 828 32 c 0
 1128.54777886 32 1297.40136719 363.893554688 1297.40136719 694.204101562 c 0
 1297.40136719 1021.37890625 1132.02217786 1347 706 1347 c 0
EndSplineSet
AlternateSubs2: "'aalt' Access All Alternates in Latin lookup 0 subtable" q.sc
Substitution2: "'c2sc' Capitals to Small Capitals in Latin lookup 1 subtable" q.sc
EndChar

StartChar: R
Encoding: 82 82 43
Width: 1513
VWidth: 0
Flags: W
HStem: -31 113<1237.3 1361.72> 0 95<48.1567 231.485 443.934 670.285> 677 59<441 652.918> 1314 91<56.0125 237.704 445.766 738.491>
VStem: 237 193<100.487 677 736 1237.76> 910 203<891.567 1161.21>
LayerCount: 3
Fore
SplineSet
48 46 m 0x7c
 48 83 72 95 105 95 c 0x7c
 119 95 135 94 151 94 c 0
 248 94 234 108 237 324 c 2
 249 1094 l 2
 250 1137 251 1167 251 1188 c 0
 251 1295 218 1308 141 1310 c 0
 68 1311 56 1311 56 1360 c 0
 56 1383 73 1403 120 1403 c 0
 138 1403 219 1397 324 1397 c 0
 469 1397 554 1405 666 1405 c 0
 938 1405 1113 1242 1113 1044 c 0
 1113 771 782 700 782 700 c 1
 782 700 860 691 998 508 c 0
 1161 292 1224 82 1293 82 c 2
 1303 82 l 2
 1381 82 1352 166 1414 166 c 0
 1429 166 1453 150 1453 114 c 0
 1453 49 1402 -31 1255 -31 c 0xbc
 1045 -31 968 204 867 345 c 0
 639 664 710 677 467 677 c 2
 440 677 l 1
 437 528 430 244 430 229 c 0
 430 104 481 83 550 83 c 0
 636 83 672 72 672 40 c 0
 672 0 659 -11 615 -11 c 0
 562 -11 465 0 291 0 c 2
 94 0 l 2
 70 0 48 7 48 46 c 0x7c
441 736 m 1
 570 736 l 2
 753 736 910 836 910 1018 c 0
 910 1187 758 1271 678 1295 c 0
 626 1311 567 1314 502 1314 c 0
 449 1314 446 1311 446 1296 c 2
 441 736 l 1
EndSplineSet
Validated: 1
AlternateSubs2: "'aalt' Access All Alternates in Latin lookup 0 subtable" r.sc
Substitution2: "'c2sc' Capitals to Small Capitals in Latin lookup 1 subtable" r.sc
EndChar

StartChar: S
Encoding: 83 83 44
Width: 1000
VWidth: 1020
Flags: W
HStem: -28 98<381.683 690.751> 1321 89<319.253 576> 1373 20G<786.5 809>
VStem: 91 126<249.81 491.422> 100 154<1003.02 1235.08> 821 141<227.63 505.829>
LayerCount: 3
Fore
SplineSet
91 147 m 0xd4
 91 188 117 205 127 385 c 2
 132 475 l 2
 133 483 139 518 162 518 c 2
 172 518 l 2
 198 518 217 515 217 458 c 0xd4
 217 152 414 70 543 70 c 0
 743 70 821 248 821 364 c 0
 821 775 100 553 100 1054 c 0
 100 1294 289 1410 448 1410 c 0xcc
 623 1410 725 1319 748 1319 c 0
 775 1319 769 1393 804 1393 c 0xac
 814 1393 841 1387 841 1365 c 0
 841 1349 826 1291 826 1192 c 0
 826 1094 843 1028 843 1012 c 0
 843 992 809 986 791 986 c 0
 762 986 689 1321 428 1321 c 0
 345 1321 254 1252 254 1110 c 0xcc
 254 775 962 976 962 437 c 0
 962 277 872 -28 531 -28 c 0
 310 -28 163 141 159 141 c 0
 147 141 140 106 118 106 c 0
 100 106 91 109 91 147 c 0xd4
EndSplineSet
Validated: 1
AlternateSubs2: "'aalt' Access All Alternates in Latin lookup 0 subtable" s.sc
Substitution2: "'c2sc' Capitals to Small Capitals in Latin lookup 1 subtable" s.sc
EndChar

StartChar: T
Encoding: 84 84 45
Width: 1440
VWidth: 1000
Flags: W
HStem: -7 90<406.221 596.328 827 1024.65> 1254 139<192.91 621.258 812.838 1232.18>
VStem: 608 195<104.07 1256.43>
LayerCount: 3
Fore
SplineSet
23 1053 m 0
 23 1084 59 1250 87 1378 c 0
 90 1392 93 1393 103 1393 c 2
 1322 1393 l 2
 1343 1393 1339 1384 1363 1266 c 0
 1383 1168 1412 1088 1412 1051 c 0
 1412 1024 1386 1013 1371 1013 c 0
 1353 1013 1337 1014 1310 1069 c 0
 1267 1159 1285 1124 1211 1243 c 0
 1204 1254 1200 1254 1190 1254 c 0
 944 1258 913 1259 882 1259 c 0
 817 1259 810 1248 809 1131 c 0
 804 436 803 394 803 307 c 0
 803 126 822 83 938 83 c 2
 975 83 l 2
 1004 83 1024 68 1024 53 c 0
 1024 46 1025 38 1025 29 c 0
 1025 1 1012 -7 975 -7 c 0
 928 -7 843 6 700 6 c 0
 577 6 503 -6 460 -6 c 0
 422 -6 406 5 406 45 c 0
 406 67 417 86 481 86 c 2
 510 86 l 2
 585 86 607 101 608 225 c 0
 613 542 622 1150 622 1182 c 0
 622 1248 614 1259 557 1259 c 2
 238 1254 l 2
 218 1254 211 1248 204 1236 c 0
 82 1028 80 1015 64 1015 c 0
 34 1015 23 1031 23 1053 c 0
EndSplineSet
Validated: 1
AlternateSubs2: "'aalt' Access All Alternates in Latin lookup 0 subtable" t.sc
Substitution2: "'c2sc' Capitals to Small Capitals in Latin lookup 1 subtable" t.sc
EndChar

StartChar: U
Encoding: 85 85 46
Width: 1601
VWidth: 0
Flags: W
HStem: -36 101<613.653 1083.69> 1299 99<41.1631 190.516 406.376 569.858 1096.2 1257.98>
VStem: 193 193<308.557 1284.51> 1287 102<282.307 1275.6>
LayerCount: 3
Fore
SplineSet
41 1346 m 0
 41 1388 52 1398 95 1398 c 0
 131 1398 188 1391 280 1391 c 0
 402 1391 473 1397 514 1397 c 0
 566 1397 570 1387 570 1343 c 0
 570 1326 567 1302 515 1300 c 0
 400 1297 390 1280 390 1066 c 0
 390 889 386 933 386 623 c 0
 386 509 392 397 431 303 c 0
 489 163 613 65 846 65 c 0
 1169 65 1287 223 1287 550 c 0
 1287 569 1280 916 1276 1100 c 0
 1273 1222 1276 1298 1172 1305 c 0
 1166 1305 1160 1306 1154 1306 c 0
 1124 1308 1096 1319 1096 1346 c 0
 1096 1389 1113 1397 1150 1397 c 0
 1190 1397 1251 1389 1338 1389 c 0
 1420 1389 1479 1399 1516 1399 c 0
 1547 1399 1560 1391 1560 1359 c 0
 1560 1253 1437 1361 1399 1245 c 0
 1389 1215 1388 1173 1388 1114 c 2
 1388 1055 l 2
 1388 948 1389 818 1389 605 c 0
 1389 352 1350 179 1251 99 c 0
 1141 10 1000 -36 790 -36 c 0
 267 -36 193 257 193 548 c 2
 193 1093 l 2
 193 1139 194 1174 194 1201 c 0
 194 1295 182 1296 79 1299 c 0
 55 1300 41 1319 41 1346 c 0
EndSplineSet
Validated: 1
AlternateSubs2: "'aalt' Access All Alternates in Latin lookup 0 subtable" u.sc
Substitution2: "'c2sc' Capitals to Small Capitals in Latin lookup 1 subtable" u.sc
EndChar

StartChar: V
Encoding: 86 86 47
Width: 1782
VWidth: 0
Flags: W
HStem: -19 21G<900.5 922.5> 1297 95<84.1505 203.745 463.809 617.411 1225.78 1315> 1378 20G<1657 1681.5>
VStem: 84 378<1222.5 1365.5> 1385 318<1216 1362.5>
LayerCount: 3
Fore
SplineSet
84 1348 m 0xd8
 84 1383 107 1392 142 1392 c 0xd8
 180 1392 235 1382 348 1382 c 0
 536 1383 528 1390 583 1390 c 0
 615 1390 618 1365 618 1353 c 0
 618 1335 615 1302 574 1302 c 0
 514 1302 462 1287 462 1239 c 0
 462 1206 533 1046 654 813 c 0
 812 508 931 267 960 267 c 0
 976 267 988 290 1291 968 c 0
 1355 1110 1385 1192 1385 1240 c 0
 1385 1291 1351 1299 1315 1301 c 2
 1275 1304 l 2
 1247 1307 1225 1316 1225 1353 c 0
 1225 1381 1248 1396 1263 1396 c 0
 1321 1396 1359 1384 1503 1384 c 0
 1556 1384 1646 1398 1668 1398 c 0xb8
 1695 1398 1703 1371 1703 1354 c 0
 1703 1243 1593 1360 1518 1196 c 0
 1244 597 1323 729 950 5 c 0
 944 -5 934 -19 911 -19 c 0
 890 -19 862 0 809 102 c 0
 180 1307 235 1285 119 1297 c 0
 99 1299 84 1302 84 1348 c 0xd8
EndSplineSet
Validated: 1
AlternateSubs2: "'aalt' Access All Alternates in Latin lookup 0 subtable" v.sc
Substitution2: "'c2sc' Capitals to Small Capitals in Latin lookup 1 subtable" v.sc
EndChar

StartChar: W
Encoding: 87 87 48
Width: 2134
VWidth: 0
Flags: W
HStem: -24 21G<699 715 1332.5 1363> 1308 86<42.1647 179 672 811.267 1035.57 1170 1589.02 1742.79>
VStem: 42 369<1212.5 1375.5> 1750 319<1152.5 1378>
LayerCount: 3
Fore
SplineSet
42 1354 m 0
 42 1397 80 1404 97 1404 c 0
 117 1404 230 1388 294 1388 c 0
 352 1388 430 1394 488 1394 c 0
 523 1394 542 1386 542 1348 c 0
 542 1283 411 1347 411 1241 c 0
 411 1184 427 1157 658 524 c 0
 672 485 737 292 757 292 c 0
 780 292 903 613 982 816 c 1
 838 1216 848 1300 707 1321 c 0
 685 1324 672 1332 672 1346 c 2
 672 1354 l 2
 672 1370 675 1392 720 1392 c 0
 778 1392 840 1384 879 1384 c 0
 984 1384 1060 1391 1108 1391 c 0
 1149 1391 1170 1386 1170 1366 c 2
 1170 1348 l 2
 1170 1322 1154 1321 1137 1318 c 0
 1058 1304 1030 1292 1030 1236 c 0
 1030 1162 1385 255 1413 255 c 0
 1435 255 1750 1071 1750 1234 c 0
 1750 1307 1683 1308 1670 1308 c 2
 1638 1308 l 10
 1613 1308 1589 1325 1589 1350 c 0
 1589 1386 1617 1394 1669 1394 c 0
 1705 1394 1813 1389 1857 1389 c 0
 1921 1389 1977 1397 2015 1397 c 0
 2035 1397 2069 1390 2069 1366 c 0
 2069 1255 1985 1333 1912 1232 c 0
 1812 1094 1883 1071 1400 5 c 0
 1388 -22 1369 -24 1357 -24 c 0
 1308 -24 1309 -3 1028 705 c 1
 748 16 l 2
 741 -2 724 -24 706 -24 c 0
 692 -24 674 -20 658 21 c 0
 206 1173 343 829 221 1179 c 0
 196 1250 167 1304 116 1308 c 0
 67 1312 42 1323 42 1354 c 0
EndSplineSet
Validated: 1
AlternateSubs2: "'aalt' Access All Alternates in Latin lookup 0 subtable" w.sc
Substitution2: "'c2sc' Capitals to Small Capitals in Latin lookup 1 subtable" w.sc
EndChar

StartChar: X
Encoding: 88 88 49
Width: 1412
VWidth: 0
Flags: W
HStem: -10 116<45.0635 207.351 1198.81 1361.4> -10 94<772 933.987> 1280 118<1122.97 1316.91> 1290 104<70.5562 237.419 486.009 602.547 813.483 911>
VStem: 44 334<20.5 186> 970 358<1225 1371.5>
LayerCount: 3
Fore
SplineSet
44 52 m 0x4c
 44 95 103 92 140 102 c 0
 175 111 197 123 378 368 c 1
 608 682 l 1
 268 1201 l 2
 230 1259 208 1289 165 1290 c 0
 90 1291 70 1300 70 1345 c 0
 70 1380 84 1394 125 1394 c 0x5c
 162 1394 219 1387 310 1387 c 0
 418 1387 548 1399 574 1399 c 0
 589 1399 608 1390 608 1366 c 0
 608 1309 577 1315 538 1300 c 0
 498 1285 486 1267 486 1249 c 0
 486 1226 505 1203 517 1184 c 2
 727 834 l 1
 727 834 970 1181 970 1269 c 0
 970 1292 943 1297 911 1299 c 2
 871 1302 l 2
 840 1305 813 1312 813 1338 c 0
 813 1376 823 1395 864 1395 c 0
 910 1395 999 1390 1046 1390 c 0
 1151 1390 1221 1398 1265 1398 c 0
 1310 1398 1328 1389 1328 1354 c 0
 1328 1292 1233 1307 1177 1280 c 0
 1112 1249 1078 1164 781 760 c 1
 781 760 1144 196 1222 118 c 0
 1232 108 1251 106 1270 106 c 2
 1302 106 l 2
 1336 106 1364 102 1364 60 c 0
 1364 1 1334 -10 1286 -10 c 0xac
 1222 -10 1102 0 1056 0 c 0
 972 -1 897 -10 845 -10 c 0
 799 -10 772 -3 772 26 c 2
 772 48 l 2
 772 81 810 84 842 84 c 2
 868 84 l 2
 917 84 934 100 934 123 c 0
 934 155 902 201 879 238 c 2
 736 476 l 2
 697 539 660 608 660 608 c 1
 596 508 378 229 378 143 c 0
 378 46 557 121 557 52 c 0
 557 43 551 -4 514 -4 c 0
 457 -4 363 4 293 4 c 0
 228 4 132 -6 80 -6 c 0
 56 -6 44 -5 44 52 c 0x4c
EndSplineSet
Validated: 1
AlternateSubs2: "'aalt' Access All Alternates in Latin lookup 0 subtable" x.sc
Substitution2: "'c2sc' Capitals to Small Capitals in Latin lookup 1 subtable" x.sc
EndChar

StartChar: Y
Encoding: 89 89 50
Width: 1459
VWidth: 0
Flags: W
HStem: -6 99<390.667 585.368 803.451 1022.99> 1300 103<66.6518 195.219 909.917 1072.98> 1315 91<1253.02 1366.97> 1389 20G<524.5 575.5>
VStem: 602 186<118.616 625.984>
LayerCount: 3
Fore
SplineSet
66 1348 m 0xc8
 66 1393 91 1403 132 1403 c 0xc8
 171 1403 223 1394 285 1394 c 0
 363 1394 492 1409 557 1409 c 0x98
 594 1409 603 1383 603 1366 c 0
 603 1276 461 1365 461 1260 c 0
 461 1205 516 1118 562 1035 c 0
 652 876 739 711 753 711 c 0
 762 711 793 766 848 856 c 0
 894 931 1073 1223 1073 1257 c 0
 1073 1299 1052 1311 989 1314 c 0
 955 1316 909 1321 909 1351 c 0
 909 1396 945 1407 978 1407 c 0
 1010 1407 1103 1397 1154 1397 c 0
 1256 1397 1299 1406 1330 1406 c 0
 1361 1406 1367 1397 1367 1361 c 0
 1367 1320 1327 1315 1326 1315 c 0xa8
 1257 1302 1260 1295 847 671 c 0
 794 592 788 592 788 544 c 2
 788 237 l 2
 788 113 820 93 921 93 c 2
 976 93 l 2
 1006 93 1025 91 1025 62 c 0
 1025 11 1003 -6 948 -6 c 0
 894 -6 812 6 699 6 c 0
 634 6 488 -8 436 -8 c 0
 409 -8 390 21 390 47 c 0
 390 70 394 94 450 94 c 2
 498 94 l 2
 529 94 573 103 586 118 c 0
 598 131 603 153 603 229 c 0
 603 255 602 287 602 325 c 2
 602 496 l 2
 602 576 596 573 567 626 c 0
 171 1338 184 1297 114 1300 c 0
 82 1302 66 1312 66 1348 c 0xc8
EndSplineSet
Validated: 1
AlternateSubs2: "'aalt' Access All Alternates in Latin lookup 0 subtable" y.sc
Substitution2: "'c2sc' Capitals to Small Capitals in Latin lookup 1 subtable" y.sc
EndChar

StartChar: Z
Encoding: 90 90 51
Width: 1331
VWidth: 0
Flags: W
HStem: 0 187<339.01 1079.45> 1210 171<191.124 929.996>
VStem: 52 97<983.075 1193.63> 1181 90<313.652 509.648>
LayerCount: 3
Fore
SplineSet
52 1037 m 0
 52 1101 85 1304 85 1345 c 0
 85 1361 88 1405 88 1421 c 0
 88 1449 111 1463 133 1463 c 0
 194 1463 187 1385 263 1385 c 0
 301 1385 810 1381 1112 1381 c 2
 1127 1381 l 2
 1162 1381 1181 1368 1181 1348 c 0
 1181 1339 1177 1328 1169 1317 c 0
 437 369 339 243 339 200 c 0
 339 188 352 187 563 187 c 0
 811 187 941 200 1013 212 c 0
 1135 232 1124 279 1181 467 c 0
 1190 497 1217 511 1236 511 c 0
 1260 511 1271 495 1271 476 c 0
 1271 419 1248 317 1216 29 c 0
 1214 15 1196 2 1182 2 c 2
 136 0 l 2
 91 0 75 14 75 35 c 0
 75 60 97 94 124 130 c 0
 890 1161 930 1179 930 1198 c 0
 930 1209 925 1210 846 1210 c 2
 370 1210 l 2
 254 1210 191 1209 176 1182 c 0
 163 1158 151 1134 149 1112 c 0
 143 1042 154 982 92 982 c 0
 87 982 52 994 52 1037 c 0
EndSplineSet
Validated: 1
Layer: 2
SplineSet
127 1458 m 4
 188 1458 181 1380 257 1380 c 4
 295 1380 804 1376 1106 1376 c 6
 1121 1376 l 6
 1141 1376 1175 1372 1175 1343 c 4
 1175 1335 1172 1319 1163 1307 c 4
 431 359 359 272 359 229 c 4
 359 217 372 216 583 216 c 4
 831 216 951 229 1023 241 c 4
 1145 261 1134 308 1191 496 c 4
 1200 526 1227 540 1246 540 c 4
 1270 540 1281 524 1281 505 c 4
 1281 448 1248 317 1216 29 c 4
 1214 15 1196 2 1182 2 c 6
 136 0 l 6
 91 0 75 14 75 35 c 4
 75 60 97 94 124 130 c 4
 890 1161 924 1169 924 1188 c 4
 924 1199 919 1200 840 1200 c 6
 364 1200 l 6
 248 1200 185 1199 170 1172 c 4
 157 1148 145 1124 143 1102 c 4
 137 1032 148 972 86 972 c 4
 81 972 46 984 46 1027 c 4
 46 1091 79 1299 79 1340 c 4
 79 1356 82 1400 82 1416 c 4
 82 1444 105 1458 127 1458 c 4
EndSplineSet
AlternateSubs2: "'aalt' Access All Alternates in Latin lookup 0 subtable" z.sc
Substitution2: "'c2sc' Capitals to Small Capitals in Latin lookup 1 subtable" z.sc
EndChar

StartChar: ae
Encoding: 230 230 53
Width: 1325
VWidth: 0
Flags: W
HStem: -26 120<772.617 1058.2> -21 75<266.304 452.671> 765 95<697.953 942.544> 791 76<259.582 447.498>
VStem: 71 155<85.4641 317.325> 503 124<465.678 694.834> 1014 218<589.062 698.742>
LayerCount: 3
Fore
SplineSet
62 702 m 0x5e
 62 787 222 867 358 867 c 0x5e
 444 867 550 846 608 736 c 1
 684 837 793 860 871 860 c 0
 1067 860 1232 690 1232 635 c 0
 1232 595 1153 572 974 509 c 2
 638 390 l 1
 638 390 660 94 922 94 c 0
 1107 94 1179 229 1218 229 c 0
 1237 229 1250 217 1250 200 c 0
 1250 146 1086 -26 881 -26 c 0xae
 639 -26 566 154 566 154 c 1
 566 154 534 -21 284 -21 c 0
 115 -21 71 82 71 181 c 0
 71 238 105 363 226 402 c 0
 486 486 503 454 503 509 c 2
 503 543 l 2
 503 688 475 791 342 791 c 0
 213 791 226 619 141 619 c 0
 123 619 62 629 62 702 c 0x5e
226 221 m 0
 226 121 262 54 356 54 c 0
 385 54 512 75 512 224 c 2
 512 420 l 1
 274 368 226 348 226 221 c 0
627 504 m 0
 627 479 630 460 630 460 c 1
 984 588 l 2
 1012 598 1014 613 1014 632 c 0
 1014 684 904 765 801 765 c 0x2e
 711 765 627 703 627 504 c 0
EndSplineSet
Validated: 1
EndChar

StartChar: oe
Encoding: 339 339 54
Width: 1616
VWidth: 0
Flags: W
HStem: -26 124<1063.64 1354.56> -17 73<377.479 634.866> 768 99<990.048 1217.2> 791 68<371.859 607.615>
VStem: 70 158<230.749 622.048> 775 129<271.969 390 459 618.721> 1310 206<590.522 686.167>
LayerCount: 3
Fore
SplineSet
70 426 m 0x4e
 70 638 212 859 498 859 c 0x5e
 776 859 844 667 844 667 c 1
 845 668 929 867 1163 867 c 0
 1360 867 1516 685 1516 630 c 0
 1516 606 1499 587 1459 574 c 2
 912 390 l 1
 912 336 975 98 1229 98 c 0
 1393 98 1453 235 1497 235 c 0
 1508 235 1527 230 1527 208 c 0
 1527 116 1358 -26 1181 -26 c 0xae
 894 -26 837 178 837 178 c 1
 837 178 752 -17 499 -17 c 0
 156 -17 70 282 70 426 c 0x4e
228 427 m 0
 228 176 343 56 517 56 c 0
 652 56 775 169 775 414 c 0
 775 643 643 791 491 791 c 0
 328 791 228 646 228 427 c 0
904 459 m 1
 1279 595 l 2
 1307 606 1310 611 1310 628 c 0
 1310 654 1205 768 1082 768 c 0x2e
 913 768 904 525 904 470 c 2
 904 459 l 1
EndSplineSet
Validated: 1
EndChar

StartChar: f_f
Encoding: 65536 -1 55
Width: 1062
Flags: W
HStem: -10 93<31.1336 163.894 364 443.249 471.229 593.894 741.804 883.17> 726 100<28.117 171 306 601 736 1005.75> 1297 88<433.819 623.848> 1314 113<866.315 1104.08>
VStem: 171 135<86.6919 726 826 1085.72> 601 135<86.5384 726 826 1100.11>
LayerCount: 3
Back
SplineSet
528 1297 m 4
 496.978515625 1297 306 1278.46484375 306 894 c 6
 306 826 l 5
 601.01171875 826 l 5
 601.831054688 1006.91894531 647.106445312 1140.06347656 710.147460938 1234.55761719 c 5
 702.340820312 1232.85644531 694.806640625 1232 688 1232 c 4
 623.700195312 1232 590.318359375 1297 528 1297 c 4
306 726 m 5
 306 195 l 6
 306 109.15234375 316.53515625 87.798828125 364.299804688 84.9912109375 c 6
 396.26953125 82.9921875 l 6
 418 81 444 75.78515625 444 46 c 4
 444 1.2001953125 414.599609375 -10 374 -10 c 4
 362.555664062 -10 260.8125 -5 222 -5 c 4
 192.262695312 -5 88.5263671875 -11 78 -11 c 4
 46.8115234375 -11 31 7.9208984375 31 34 c 4
 31 90.0517578125 77.0869140625 77.05859375 130.083984375 86.9150390625 c 4
 157.89453125 92.0869140625 163.243164062 97.560546875 164.001953125 131.126953125 c 4
 168.224609375 317.874023438 170.983398438 140.936523438 171 726.040039062 c 5
 51.9794921875 727 l 6
 34.9765625 727 28 739.068359375 28 778 c 4
 28 819.083984375 45.6845703125 826 66 826 c 6
 173.01171875 826 l 5
 175.060546875 1277.20507812 454.549804688 1385 616 1385 c 4
 672.27040172 1385 753.476844157 1367.00808416 769.99999964 1324.20833731 c 4
 771.950834123 1319.15511233 773 1313.75607249 773 1308 c 4
 773 1305.02148438 773.065429688 1301.38671875 771.743164062 1297.41894531 c 5
 763.366210938 1302.43457031 l 5
 770.801937922 1310.30258079 778.35632398 1317.7357007 785.999996412 1324.75078478 c 4
 867.768260162 1399.79471816 959.75416404 1427 1026 1427 c 4
 1125.49804688 1427 1169 1386.92089844 1169 1343 c 4
 1169 1307.59765625 1140.97949219 1265 1088 1265 c 4
 1013.17480469 1265 1010.09960938 1314 924 1314 c 4
 894.276367188 1314 733 1279.85839844 733 894 c 6
 733 826 l 5
 984 826 l 6
 1005.80761719 826 1006 798.92578125 1006 781 c 4
 1006 733.549804688 992.200195312 726 983 726 c 6
 736 726 l 5
 736 195 l 6
 736 106.4375 752.2890625 85.8125 802.169921875 83.9970703125 c 6
 836.1875 82.99609375 l 6
 859.98046875 82.0380859375 884 75.78515625 884 46 c 4
 884 1.2001953125 854.599609375 -10 814 -10 c 4
 802.588867188 -10 690.821289062 -5 652 -5 c 4
 622.27734375 -5 528.572265625 -11 518 -11 c 4
 486.811523438 -11 471 7.9208984375 471 34 c 4
 471 76.5693359375 506.354492188 76.9228515625 560.083984375 86.9150390625 c 4
 587.89453125 92.0869140625 593.243164062 97.560546875 594.001953125 131.126953125 c 4
 598.224609375 317.869140625 600.983398438 140.944335938 601 726 c 5
 306 726 l 5
EndSplineSet
Fore
SplineSet
528 1297 m 0xec
 497 1297 306 1278 306 894 c 2
 306 826 l 1
 601 826 l 1
 602 1007 647 1141 710 1235 c 1
 702 1233 695 1232 688 1232 c 0
 624 1232 590 1297 528 1297 c 0xec
306 726 m 1
 306 195 l 2
 306 109 316 88 364 85 c 2
 396 83 l 2
 418 81 444 76 444 46 c 0
 444 1 415 -10 374 -10 c 0
 363 -10 261 -5 222 -5 c 0
 192 -5 89 -11 78 -11 c 0
 47 -11 31 8 31 34 c 0
 31 90 77 77 130 87 c 0
 158 92 163 97 164 131 c 0
 168 318 171 141 171 726 c 1
 52 727 l 2
 35 727 28 739 28 778 c 0
 28 819 46 826 66 826 c 2
 173 826 l 1
 175 1277 455 1385 616 1385 c 0xec
 657 1385 764 1372 773 1313 c 1
 810 1347 843 1375 901 1400 c 0
 946 1419 990 1427 1026 1427 c 0
 1125 1427 1169 1387 1169 1343 c 0
 1169 1308 1141 1265 1088 1265 c 0
 1013 1265 1010 1314 924 1314 c 0xdc
 894 1314 733 1280 733 894 c 2
 733 826 l 1
 984 826 l 2
 1006 826 1006 799 1006 781 c 0
 1006 734 992 726 983 726 c 2
 736 726 l 1
 736 195 l 2
 736 106 752 86 802 84 c 2
 836 83 l 2
 860 82 884 76 884 46 c 0
 884 1 855 -10 814 -10 c 0
 803 -10 691 -5 652 -5 c 0
 622 -5 529 -11 518 -11 c 0
 487 -11 471 8 471 34 c 0
 471 77 506 77 560 87 c 0
 588 92 593 97 594 131 c 0
 598 318 601 141 601 726 c 1
 306 726 l 1
EndSplineSet
Validated: 1
Ligature2: "liga subtable" f f
LCarets2: 1 0 
EndChar

StartChar: f_i
Encoding: 65537 -1 56
Width: 959
Flags: W
HStem: -11 103<47.1808 179 324.832 457.91 503.828 580 842 902.532> 726 100<43.117 186 321 635.595> 1317 98<462.476 681>
VStem: 186 135<92.8292 726 826 1098.38> 648 145<88.5214 721.141>
LayerCount: 3
Back
SplineSet
629 1277 m 4
 625 1281 600 1317 549 1317 c 4
 475 1317 409 1261 380 1208 c 4
 348 1149 318 1053 318 894 c 6
 318 826 l 5
 560 826 l 6
 627 826 691 840 735 840 c 4
 788 840 795 813 795 766 c 4
 795 755 794 742 794 728 c 4
 794 688 794 648 794 608 c 4
 794 462 793 359 793 283 c 4
 793 106 801 93 842 83 c 6
 862 78 l 6
 883 73 906 58 906 29 c 4
 906 -4 888 -12 850 -12 c 4
 805 -12 766 -5 704 -5 c 4
 620 -5 587 -13 553 -13 c 4
 523 -13 503 15 503 40 c 4
 503 56 513 74 558 81 c 6
 580 84 l 6
 626 91 648 94 648 242 c 6
 648 427 l 6
 648 718 642 726 558 726 c 6
 321 726 l 5
 321 200 l 6
 321 104 335 101 368 92 c 4
 397 84 459 94 459 46 c 4
 459 1 430 -10 389 -10 c 4
 378 -10 276 -5 237 -5 c 4
 207 -5 104 -11 93 -11 c 4
 62 -11 46 8 46 34 c 4
 46 90 92 82 145 92 c 4
 173 97 178 102 179 136 c 4
 183 323 186 141 186 726 c 5
 67 727 l 6
 50 727 43 739 43 778 c 4
 43 819 61 826 81 826 c 6
 186 826 l 5
 187 1042 251 1186 334 1277 c 4
 419 1370 545 1415 641 1415 c 4
 721 1415 789 1384 789 1322 c 4
 789 1280 757 1242 707 1242 c 4
 667 1242 646 1262 629 1277 c 4
EndSplineSet
Fore
SplineSet
629 1277 m 0
 625 1281 600 1317 549 1317 c 0
 475 1317 409 1261 380 1208 c 0
 348 1149 318 1053 318 894 c 2
 318 826 l 1
 560 826 l 2
 627 826 691 840 735 840 c 0
 788 840 795 813 795 766 c 0
 795 755 794 742 794 728 c 2
 793 283 l 2
 793 106 801 93 842 83 c 2
 862 78 l 2
 883 73 906 58 906 29 c 0
 906 -4 888 -12 850 -12 c 0
 805 -12 766 -5 704 -5 c 0
 620 -5 587 -13 553 -13 c 0
 523 -13 503 15 503 40 c 0
 503 56 513 74 558 81 c 2
 580 84 l 2
 626 91 648 94 648 242 c 2
 648 427 l 2
 648 718 642 726 558 726 c 2
 321 726 l 1
 321 200 l 2
 321 104 335 101 368 92 c 0
 397 84 459 94 459 46 c 0
 459 1 430 -10 389 -10 c 0
 378 -10 276 -5 237 -5 c 0
 207 -5 104 -11 93 -11 c 0
 62 -11 46 8 46 34 c 0
 46 90 92 82 145 92 c 0
 173 97 178 102 179 136 c 0
 183 323 186 141 186 726 c 1
 67 727 l 2
 50 727 43 739 43 778 c 0
 43 819 61 826 81 826 c 2
 186 826 l 1
 187 1042 251 1186 334 1277 c 0
 419 1370 545 1415 641 1415 c 0
 721 1415 789 1384 789 1322 c 0
 789 1280 757 1242 707 1242 c 0
 667 1242 646 1262 629 1277 c 0
EndSplineSet
Validated: 1
Ligature2: "liga subtable" f i
LCarets2: 1 0 
EndChar

StartChar: f_l
Encoding: 65538 -1 57
Width: 941
Flags: W
HStem: -6 93<46.5024 178.831 315.779 448.633 518.222 603> -6 71<854 910.991> 731 90<43.0176 186 311 545.924> 1299 108<435.114 629.838>
VStem: 186 125<88.7847 731 821 1104.52> 645 128<94.4895 1262.73>
LayerCount: 3
Back
SplineSet
517 28 m 0
 517 64 534 70 562 75 c 0
 603 82 l 0
 622 85 649 100 649 163 c 0
 649 355 649 825 645 1057 c 0
 643 1162 642 1220 640 1253 c 0
 582 1257 565 1299 503 1299 c 0
 384 1299 308 1181 308 894 c 0
 308 821 l 0
 529 821 l 0
 545 821 546 802 546 781 c 0
 546 757 542 731 528 731 c 0
 311 731 l 0
 311 200 l 0
 311 101 327 96 362 87 c 0
 392 79 449 89 449 46 c 0
 449 7 426 -5 384 -5 c 0
 373 -5 271 0 232 0 c 0
 202 0 98 -6 88 -6 c 0
 60 -6 46 10 46 34 c 0
 46 85 87 77 141 87 c 0
 173 93 178 102 179 136 c 0
 183 323 186 140 186 731 c 0
 62 732 l 0
 49 732 43 741 43 778 c 0
 43 815 57 821 76 821 c 0
 186 821 l 0
 186 1276 438 1407 606 1407 c 0
 634 1407 659 1402 679 1393 c 0
 735 1412 732 1414 742 1414 c 0
 761 1414 775 1402 775 1376 c 0
 775 1286 773 1326 773 1024 c 0
 773 734 l 0
 773 600 781 433 781 224 c 0
 781 120 808 89 854 74 c 0
 882 65 l 0
 898 59 911 56 911 30 c 0
 911 2 905 -6 880 -6 c 0
 857 -6 774 0 735 0 c 0
 659 0 599 -7 562 -7 c 0
 533 -7 517 3 517 28 c 0
EndSplineSet
Fore
SplineSet
517 28 m 0x7c
 517 64 534 70 562 75 c 2
 603 82 l 2
 622 85 649 100 649 163 c 0
 649 355 649 825 645 1057 c 0
 643 1162 642 1220 640 1253 c 1
 582 1257 565 1299 503 1299 c 0
 384 1299 308 1181 308 894 c 2
 308 821 l 1
 529 821 l 2
 545 821 546 802 546 781 c 0
 546 757 542 731 528 731 c 2
 311 731 l 1
 311 200 l 2
 311 101 327 96 362 87 c 0
 392 79 449 89 449 46 c 0
 449 7 426 -5 384 -5 c 0
 373 -5 271 0 232 0 c 0
 202 0 98 -6 88 -6 c 0
 60 -6 46 10 46 34 c 0
 46 85 87 77 141 87 c 0xbc
 173 93 178 102 179 136 c 0
 183 323 186 140 186 731 c 1
 62 732 l 2
 49 732 43 741 43 778 c 0
 43 815 57 821 76 821 c 2
 186 821 l 1
 186 1276 438 1407 606 1407 c 0
 634 1407 659 1402 679 1393 c 1
 735 1412 732 1414 742 1414 c 0
 761 1414 775 1402 775 1376 c 0
 775 1286 773 1326 773 1024 c 2
 773 734 l 2
 773 600 781 433 781 224 c 0
 781 120 808 89 854 74 c 2
 882 65 l 2
 898 59 911 56 911 30 c 0
 911 2 905 -6 880 -6 c 0
 857 -6 774 0 735 0 c 0
 659 0 599 -7 562 -7 c 0
 533 -7 517 3 517 28 c 0x7c
EndSplineSet
Validated: 1
Ligature2: "liga subtable" f l
LCarets2: 1 0 
EndChar

StartChar: f_f_i
Encoding: 65539 -1 58
Width: 1434
Flags: W
HStem: -11 103<32.1808 164 364 438.148 471.957 594 739.832 872.91 918.828 995 1257 1317.53> 726 100<28.117 171 306 601 736 1050.59> 1297 88<433.819 622.692> 1317 98<875.176 1096>
VStem: 171 135<86.6919 726 826 1085.72> 601 135<92.8292 726 826 1099.73> 1063 145<88.5214 721.141>
LayerCount: 3
Back
SplineSet
929.3671875 1392.72558594 m 4
 972.947265625 1407.74414062 1016.40332031 1415 1056 1415 c 4
 1135.78515625 1415 1204 1383.57617188 1204 1322 c 4
 1204 1280.46191406 1171.73339844 1242 1122 1242 c 4
 1082.20117188 1242 1060.91308594 1262.56054688 1043.84570312 1277.125 c 4
 1039.36132812 1280.95214844 1014.96386719 1317 964 1317 c 4
 889.666992188 1317 824.228515625 1260.16796875 795.383789062 1207.59472656 c 4
 762.92578125 1148.43652344 733 1053.39355469 733 894 c 6
 733 826 l 5
 975 826 l 6
 1042.37988281 826 1106.02734375 840 1150 840 c 4
 1203.08789062 840 1210 812.754882812 1210 766 c 4
 1210 754.706054688 1209 741.768554688 1209 728 c 4
 1209 688 1209 648 1209 608 c 4
 1209 461.978515625 1208 358.958007812 1208 283 c 4
 1208 106.266601562 1216.63867188 92.994140625 1257.21289062 82.8505859375 c 4
 1265.87988281 80.68359375 1270.58398438 79.5634765625 1277.23730469 77.8447265625 c 4
 1298.40234375 72.37890625 1321 58.302734375 1321 29 c 4
 1321 -3.7998046875 1302.70019531 -12 1265 -12 c 4
 1220.421875 -12 1180.59667969 -5 1119 -5 c 4
 1035.29101562 -5 1001.86132812 -13 968 -13 c 4
 937.633789062 -13 918 14.6220703125 918 40 c 4
 918 56.37890625 928.328125 74.4208984375 973.298828125 80.9501953125 c 4
 982.8203125 82.3330078125 987.98046875 82.912109375 995.30859375 83.9521484375 c 4
 1041.71191406 90.5400390625 1063 93.7177734375 1063 242 c 4
 1063 303.666992188 1063 365.333007812 1063 427 c 4
 1063 717.739257812 1057.03027344 726 973 726 c 6
 736 726 l 5
 736 200 l 6
 736 104.381835938 749.895507812 100.567382812 783.266601562 91.8369140625 c 4
 812.75 84.1240234375 874 94.255859375 874 46 c 4
 874 1.2001953125 844.599609375 -10 804 -10 c 4
 792.555664062 -10 690.8125 -5 652 -5 c 4
 622.27734375 -5 528.572265625 -11 518 -11 c 4
 486.811523438 -11 471 7.9208984375 471 34 c 4
 471 89.8408203125 507.801757812 82.19140625 560.083984375 91.9150390625 c 4
 587.89453125 97.087890625 593.243164062 102.560546875 594.001953125 136.126953125 c 4
 598.224609375 322.880859375 600.983398438 140.970703125 601 726 c 5
 306 726 l 5
 306 195 l 6
 306 109.15234375 316.53515625 87.798828125 364.299804688 84.9912109375 c 4
 378.169921875 84.17578125 385.595703125 83.533203125 396.26953125 82.9921875 c 4
 420.109375 81.783203125 439 75.595703125 439 46 c 4
 439 1.2001953125 415.099609375 -10 374 -10 c 4
 362.555664062 -10 260.8125 -5 222 -5 c 4
 192.262695312 -5 88.5263671875 -11 78 -11 c 4
 46.8115234375 -11 31 7.9208984375 31 34 c 4
 31 90.0517578125 77.0869140625 77.05859375 130.083984375 86.9150390625 c 4
 157.89453125 92.0869140625 163.243164062 97.560546875 164.001953125 131.126953125 c 4
 168.224609375 317.874023438 170.983398438 140.936523438 171 726.040039062 c 5
 51.9794921875 727 l 6
 34.9765625 727 28 739.068359375 28 778 c 4
 28 819.083984375 45.6845703125 826 66 826 c 6
 173.01171875 826 l 5
 175.060546875 1277.20507812 454.549804688 1385.39160156 616 1385 c 4
 747.764648438 1384.68066406 770.080078125 1324.85839844 778.48046875 1305.79589844 c 5
 811.208984375 1333.29394531 856.244140625 1367.52636719 929.3671875 1392.72558594 c 4
528 1297 m 4
 496.978515625 1297 306 1278.46484375 306 894 c 6
 306 826 l 5
 601.010742188 826 l 5
 601.813476562 1006.87597656 646.209960938 1140.10742188 714.568359375 1234.6953125 c 5
 704.952148438 1232.86035156 695.05078125 1232 688 1232 c 4
 623.700195312 1232 590.318359375 1297 528 1297 c 4
EndSplineSet
Fore
SplineSet
929 1393 m 0xee
 973 1408 1016 1415 1056 1415 c 0
 1136 1415 1204 1384 1204 1322 c 0
 1204 1280 1172 1242 1122 1242 c 0
 1082 1242 1061 1262 1044 1277 c 0
 1040 1281 1015 1317 964 1317 c 0xde
 890 1317 824 1261 795 1208 c 0
 763 1149 733 1053 733 894 c 2
 733 826 l 1
 975 826 l 2
 1042 826 1106 840 1150 840 c 0
 1203 840 1210 813 1210 766 c 0
 1210 755 1209 742 1209 728 c 2
 1208 283 l 2
 1208 106 1216 93 1257 83 c 2
 1277 78 l 2
 1298 73 1321 58 1321 29 c 0
 1321 -4 1303 -12 1265 -12 c 0
 1220 -12 1181 -5 1119 -5 c 0
 1035 -5 1002 -13 968 -13 c 0
 938 -13 918 15 918 40 c 0
 918 56 928 74 973 81 c 2
 995 84 l 2
 1041 91 1063 94 1063 242 c 2
 1063 427 l 2
 1063 718 1057 726 973 726 c 2
 736 726 l 1
 736 200 l 2
 736 104 750 101 783 92 c 0
 812 84 874 94 874 46 c 0
 874 1 845 -10 804 -10 c 0
 793 -10 691 -5 652 -5 c 0
 622 -5 529 -11 518 -11 c 0
 487 -11 471 8 471 34 c 0
 471 90 508 82 560 92 c 0
 588 97 593 102 594 136 c 0
 598 323 601 141 601 726 c 1
 306 726 l 1
 306 195 l 2
 306 109 316 88 364 85 c 2
 396 83 l 2
 420 82 439 76 439 46 c 0
 439 1 415 -10 374 -10 c 0
 363 -10 261 -5 222 -5 c 0
 192 -5 89 -11 78 -11 c 0
 47 -11 31 8 31 34 c 0
 31 90 77 77 130 87 c 0
 158 92 163 97 164 131 c 0
 168 318 171 141 171 726 c 1
 52 727 l 2
 35 727 28 739 28 778 c 0
 28 819 46 826 66 826 c 2
 173 826 l 1
 175 1277 455 1385 616 1385 c 0
 748 1385 770 1325 778 1306 c 1
 811 1333 856 1368 929 1393 c 0xee
528 1297 m 0xee
 497 1297 306 1278 306 894 c 2
 306 826 l 1
 601 826 l 1
 602 1007 647 1140 715 1235 c 1
 705 1233 695 1232 688 1232 c 0
 624 1232 590 1297 528 1297 c 0xee
EndSplineSet
Validated: 1
Ligature2: "liga subtable" f f i
LCarets2: 2 0 0 
EndChar

StartChar: f_f_l
Encoding: 65540 -1 59
Width: 1373
Flags: W
HStem: -11 98<31.5295 164 471.842 560 740.699 872.91> -11 81<365.417 442.327 932.017 1015.58 1276 1335.99> 726 100<28.117 171 306 601 736 970.753> 1294 118<859.658 1047.51> 1297 88<433.819 622.893>
VStem: 171 135<86.6919 726 826 1085.72> 601 135<92.8292 726 826 1109.33> 1060 138<97.1383 1259.48>
LayerCount: 3
Back
SplineSet
1026 1412 m 4
 1053.76855469 1412 1078.7734375 1407.20410156 1099.234375 1398.359375 c 5
 1152.90429688 1416.64257812 1150.21582031 1419 1162 1419 c 4
 1178.27539062 1419 1200 1410.40039062 1200 1376 c 4
 1200 1285.85449219 1198 1325.98339844 1198 1024 c 4
 1198 927.333007812 1198 830.666992188 1198 734 c 4
 1198 600.194335938 1206 433.123046875 1206 224 c 4
 1206 122.565429688 1231.40039062 93.1064453125 1275.54003906 78.7568359375 c 4
 1287.66015625 74.81640625 1294.41015625 73.0185546875 1303.64257812 69.720703125 c 4
 1322.58886719 62.9521484375 1336 58.203125 1336 30 c 4
 1336 -0.099609375 1328.79980469 -11 1300 -11 c 4
 1276.52441406 -11 1193.6875 -5 1155 -5 c 4
 1079.26757812 -5 1019.55664062 -12 982 -12 c 4
 956 -12 932 -4 932 28 c 4
 932 69.5380859375 954.65625 75.2802734375 981.139648438 79.92578125 c 4
 998.892578125 83.0400390625 1008.50585938 84.7041015625 1022.18945312 86.93359375 c 4
 1043.16503906 90.3515625 1064 108.127929688 1064 163 c 4
 1064 354.989257812 1064.12597656 825.00390625 1060.00097656 1056.90917969 c 4
 1058.21289062 1157.45800781 1057.04003906 1214.93261719 1055.21386719 1248.39941406 c 5
 999.169921875 1254.23535156 981.661132812 1294 923 1294 c 4
 771 1294 733 1095.5625 733 894 c 6
 733 826 l 5
 949 826 l 6
 970.807617188 826 971 798.92578125 971 781 c 4
 971 733.549804688 957.200195312 726 948 726 c 6
 736 726 l 5
 736 200 l 6
 736 104.381835938 749.895507812 100.567382812 783.266601562 91.8369140625 c 4
 812.75 84.1240234375 874 94.255859375 874 46 c 4
 874 1.2001953125 844.599609375 -10 804 -10 c 4
 792.555664062 -10 690.8125 -5 652 -5 c 4
 622.27734375 -5 528.572265625 -11 518 -11 c 4
 488.028320312 -11 471 6.5830078125 471 32 c 4
 471 63.7490234375 488.860351562 78.2353515625 524.0625 84.9111328125 c 4
 539.676757812 87.8720703125 548.051757812 89.6337890625 560.0625 91.9111328125 c 4
 587.854492188 97.1806640625 593.243164062 102.560546875 594.001953125 136.126953125 c 4
 598.224609375 322.880859375 600.983398438 140.970703125 601 726 c 5
 306 726 l 5
 306 195 l 6
 306 109.15234375 316.53515625 87.798828125 364.299804688 84.9912109375 c 4
 378.169921875 84.17578125 385.595703125 83.533203125 396.26953125 82.9921875 c 4
 420.051757812 81.7861328125 444 75.78515625 444 46 c 4
 444 1.2001953125 414.599609375 -10 374 -10 c 4
 362.555664062 -10 260.8125 -5 222 -5 c 4
 192.262695312 -5 88.5263671875 -11 78 -11 c 4
 46.8115234375 -11 31 7.9208984375 31 34 c 4
 31 90.0517578125 77.0869140625 77.05859375 130.083984375 86.9150390625 c 4
 157.89453125 92.0869140625 163.243164062 97.560546875 164.001953125 131.126953125 c 4
 168.224609375 317.874023438 170.983398438 140.936523438 171 726.040039062 c 5
 51.9794921875 727 l 6
 34.9765625 727 28 739.068359375 28 778 c 4
 28 819.083984375 45.6845703125 826 66 826 c 6
 173.01171875 826 l 5
 175.060546875 1277.20507812 454.549804688 1385 616 1385 c 4
 692.935546875 1385 765.630859375 1362.51074219 774.166015625 1312.11230469 c 5
 796.614257812 1331.18066406 811.030273438 1342.91015625 838.432617188 1359.29003906 c 4
 901.263671875 1396.84765625 969.120117188 1412 1026 1412 c 4
601.03515625 826 m 5
 602.672851562 1009.81054688 641.520507812 1139.37011719 704.536132812 1231.21875 c 5
 673.961914062 1231.89941406 655.567382812 1232.46289062 621.26953125 1254.81152344 c 4
 592.604492188 1273.49023438 565.303710938 1297 528 1297 c 4
 496.978515625 1297 306 1278.46484375 306 894 c 6
 306 826 l 5
 601.03515625 826 l 5
EndSplineSet
Fore
SplineSet
774 1312 m 1xaf
 827 1365 944 1412 1026 1412 c 0
 1054 1412 1079 1407 1099 1398 c 1
 1153 1416 1150 1419 1162 1419 c 0
 1178 1419 1200 1410 1200 1376 c 0
 1200 1286 1198 1326 1198 1024 c 2
 1198 734 l 2
 1198 600 1206 433 1206 224 c 0
 1206 123 1232 93 1276 79 c 2
 1304 70 l 2
 1323 63 1336 58 1336 30 c 0
 1336 0 1329 -11 1300 -11 c 0x77
 1277 -11 1194 -5 1155 -5 c 0
 1079 -5 1020 -12 982 -12 c 0
 956 -12 932 -4 932 28 c 0
 932 70 954 75 981 80 c 2
 1022 87 l 2
 1043 90 1064 108 1064 163 c 0
 1064 355 1064 825 1060 1057 c 0
 1058 1158 1057 1215 1055 1248 c 1
 999 1254 982 1294 923 1294 c 0xb7
 771 1294 733 1096 733 894 c 2
 733 826 l 1
 949 826 l 2
 971 826 971 799 971 781 c 0
 971 734 957 726 948 726 c 2
 736 726 l 1
 736 200 l 2
 736 104 750 101 783 92 c 0
 812 84 874 94 874 46 c 0
 874 1 845 -10 804 -10 c 0
 793 -10 691 -5 652 -5 c 0
 622 -5 529 -11 518 -11 c 0
 488 -11 471 7 471 32 c 0
 471 64 489 78 524 85 c 2
 560 92 l 2
 588 97 593 102 594 136 c 0
 598 323 601 141 601 726 c 1
 306 726 l 1
 306 195 l 2
 306 109 316 88 364 85 c 2
 396 83 l 2
 420 82 444 76 444 46 c 0
 444 1 415 -10 374 -10 c 0
 363 -10 261 -5 222 -5 c 0
 192 -5 89 -11 78 -11 c 0
 47 -11 31 8 31 34 c 0
 31 90 77 77 130 87 c 0
 158 92 163 97 164 131 c 0
 168 318 171 141 171 726 c 1
 52 727 l 2
 35 727 28 739 28 778 c 0
 28 819 46 826 66 826 c 2
 173 826 l 1
 175 1277 455 1385 616 1385 c 0
 693 1385 765 1362 774 1312 c 1xaf
601 826 m 1
 603 1010 642 1139 705 1231 c 1
 674 1232 655 1233 621 1255 c 0
 592 1274 565 1297 528 1297 c 0x2f
 497 1297 306 1278 306 894 c 2
 306 826 l 1
 601 826 l 1
EndSplineSet
Validated: 1
Ligature2: "liga subtable" f f l
LCarets2: 2 0 0 
EndChar

StartChar: f_j
Encoding: 65541 -1 60
Width: 959
Flags: W
HStem: -466 166<427.194 578.72> -11 103<47.1808 179 324.832 457.91> 726 100<43.117 186 321 645.75> 1317 98<462.476 681>
VStem: 186 135<92.8292 726 826 1098.38> 652 144<-237.544 719.625>
LayerCount: 3
Back
SplineSet
321 726 m 5
 321 200 l 6
 321 104.381835938 334.895507812 100.567382812 368.266601562 91.8369140625 c 4
 397.75 84.1240234375 459 94.255859375 459 46 c 4
 459 1.2001953125 429.599609375 -10 389 -10 c 4
 377.555664062 -10 275.8125 -5 237 -5 c 4
 207.262695312 -5 103.526367188 -11 93 -11 c 4
 61.8115234375 -11 46 7.9208984375 46 34 c 4
 46 89.78125 92.4208984375 82.1201171875 145.083984375 91.9150390625 c 4
 172.89453125 97.0869140625 178.243164062 102.560546875 179.001953125 136.126953125 c 4
 183.224609375 322.884765625 185.983398438 140.961914062 186 726.040039062 c 5
 66.9794921875 727 l 6
 49.9765625 727 43 739.068359375 43 778 c 4
 43 819.083984375 60.6845703125 826 81 826 c 6
 186.010742188 826 l 5
 186.983398438 1042.17578125 250.998046875 1186.08007812 334.306640625 1277.37011719 c 4
 419.41796875 1370.63574219 544.524414062 1415 641 1415 c 4
 720.78515625 1415 789 1383.57617188 789 1322 c 4
 789 1280.46191406 756.733398438 1242 707 1242 c 4
 667.201171875 1242 645.913085938 1262.56054688 628.845703125 1277.125 c 4
 624.361328125 1280.95214844 599.963867188 1317 549 1317 c 4
 474.666992188 1317 409.228515625 1260.16796875 380.383789062 1207.59472656 c 4
 347.92578125 1148.43652344 318 1053.39355469 318 894 c 6
 318 826 l 5
 560 826 l 6
 627.379882812 826 691.02734375 840 735 840 c 4
 788.087890625 840 795 812.754882812 795 766 c 4
 795 270.0078125 796 155.01953125 796 -68 c 4
 796 -123.404296875 784.1953125 -185.338867188 747.26953125 -245.602539062 c 4
 729.1171875 -275.227539062 632.04296875 -392.243164062 554.559570312 -438.294921875 c 4
 523.767578125 -456.595703125 491.06640625 -466 462 -466 c 4
 414.08984375 -466 377 -444.516601562 377 -401 c 4
 377 -365.4140625 388.0859375 -347.819335938 413.931640625 -312.09375 c 4
 424.823242188 -297.0390625 454.458007812 -284 471 -284 c 4
 497.650390625 -284 524.299804688 -300 553 -300 c 4
 568.587890625 -300 578.952148438 -298.41796875 590.693359375 -295.174804688 c 4
 610.8125 -289.618164062 636.815429688 -249.502929688 643.168945312 -225.7109375 c 4
 649.002929688 -203.866210938 652.34765625 -154.814453125 652 -75.013671875 c 4
 650.614257812 243.48828125 649.196289062 414.985351562 648 659.986328125 c 4
 647.862304688 688.14453125 642.291992188 726 558 726 c 6
 321 726 l 5
EndSplineSet
Fore
SplineSet
321 726 m 1
 321 200 l 2
 321 104 335 101 368 92 c 0
 397 84 459 94 459 46 c 0
 459 1 430 -10 389 -10 c 0
 378 -10 276 -5 237 -5 c 0
 207 -5 104 -11 93 -11 c 0
 62 -11 46 8 46 34 c 0
 46 90 92 82 145 92 c 0
 173 97 178 102 179 136 c 0
 183 323 186 141 186 726 c 1
 67 727 l 2
 50 727 43 739 43 778 c 0
 43 819 61 826 81 826 c 2
 186 826 l 1
 187 1042 251 1186 334 1277 c 0
 419 1370 545 1415 641 1415 c 0
 721 1415 789 1384 789 1322 c 0
 789 1280 757 1242 707 1242 c 0
 667 1242 646 1262 629 1277 c 0
 625 1281 600 1317 549 1317 c 0
 475 1317 409 1261 380 1208 c 0
 348 1149 318 1053 318 894 c 2
 318 826 l 1
 560 826 l 2
 627 826 691 840 735 840 c 0
 788 840 795 813 795 766 c 0
 795 270 796 155 796 -68 c 0
 796 -123 784 -186 747 -246 c 0
 729 -276 632 -392 555 -438 c 0
 524 -456 491 -466 462 -466 c 0
 414 -466 377 -445 377 -401 c 0
 377 -365 388 -348 414 -312 c 0
 425 -297 454 -284 471 -284 c 0
 498 -284 524 -300 553 -300 c 0
 592 -300 605 -289 619 -272 c 0
 648 -234 652 -191 652 -142 c 2
 652 -75 l 2
 652 244 649 415 648 660 c 0
 648 688 642 726 558 726 c 2
 321 726 l 1
EndSplineSet
Validated: 1
Layer: 2
SplineSet
334 726 m 1
 334 195 l 2
 334 86.18359375 346.450195312 97.0322265625 401.961914062 85.90625 c 0
 425.463867188 81.1962890625 472 77.21875 472 46 c 0
 472 2.5751953125 451.552734375 -5 412 -5 c 0
 370.407226562 -5 310.647460938 3 242 3 c 0
 197.864257812 3 141.90234375 -10 98 -10 c 0
 61.0517578125 -10 32 0.22265625 32 36 c 0
 32 80.58203125 65.8134765625 88.3466796875 100.78515625 89.9951171875 c 0
 170.634765625 93.287109375 170.111328125 89.6240234375 171.000976562 131.107421875 c 0
 175.0078125 317.859375 177.983398438 140.936523438 178 726.0390625 c 1
 56.98046875 727 l 2
 39.9775390625 727 33 739.068359375 33 778 c 0
 33 815.80859375 47.74609375 840 71 840 c 2
 186.01171875 840 l 1
 188.197265625 1291.24511719 486.241210938 1428 657 1428 c 0
 748.419921875 1428 814 1388.65625 814 1334 c 0
 814 1295.10742188 787.318359375 1243 726 1243 c 0
 648.081054688 1243 608.837890625 1316 544 1316 c 0
 381.69140625 1316 335.88671875 1011.25585938 335.012695312 840 c 1
 551 840 l 2
 692.946289062 840 743.291015625 847 770 847 c 0
 790.022460938 847 802 832.096679688 802 809 c 0
 802 312.944335938 794 148.857421875 794 -74 c 0
 794 -120.541992188 753.365234375 -201.990234375 715.740234375 -244.317382812 c 0
 568.884765625 -409.526367188 551.88671875 -429 465 -429 c 0
 405.083007812 -429 353 -390.396484375 353 -349 c 0
 353 -290.400390625 429.025390625 -243 453 -243 c 0
 500.700195312 -243 517.924804688 -271 559 -271 c 0
 607 -271 639 -206 639 -21 c 0
 639 87.0712890625 641 150.00390625 641 661 c 0
 641 691.599609375 631.799804688 726 618 726 c 2
 334 726 l 1
EndSplineSet
Ligature2: "liga subtable" f j
LCarets2: 1 0 
EndChar

StartChar: f_f_j
Encoding: 65542 -1 61
Width: 1374
Flags: W
HStem: -466 166<841.194 992.078> -11 103<32.1808 164 364 433.503 481.686 594 739.832 872.91> 726 100<28.117 171 306 601 736 1061.63> 1297 88<434.534 622.107> 1317 98<875.176 1096>
VStem: 171 135<86.6919 726 826 1085.72> 601 135<92.8292 726 826 1101.27> 1066 144<-237.544 722.274>
LayerCount: 3
Back
SplineSet
1210 -68 m 4
 1210 -123.404296875 1198.1953125 -185.338867188 1161.26953125 -245.602539062 c 4
 1143.1171875 -275.227539062 1046.04296875 -392.243164062 968.559570312 -438.294921875 c 4
 937.767578125 -456.595703125 905.06640625 -466 876 -466 c 4
 828.08984375 -466 791 -444.516601562 791 -401 c 4
 791 -365.4140625 802.0859375 -347.819335938 827.931640625 -312.09375 c 4
 838.823242188 -297.0390625 868.458007812 -284 885 -284 c 4
 911.650390625 -284 938.299804688 -300 967 -300 c 4
 982.587890625 -300 992.952148438 -298.41796875 1004.69335938 -295.174804688 c 4
 1024.8125 -289.618164062 1050.81542969 -249.502929688 1057.16894531 -225.7109375 c 4
 1063.00292969 -203.866210938 1066.34375 -154.814453125 1066 -75.013671875 c 4
 1064.61035156 247.821289062 1063.19628906 421.65234375 1062 669.986328125 c 4
 1061.86328125 698.413085938 1059.09179688 726 983 726 c 6
 736 726 l 5
 736 200 l 6
 736 104.381835938 749.895507812 100.567382812 783.266601562 91.8369140625 c 4
 812.75 84.1240234375 874 94.255859375 874 46 c 4
 874 1.2001953125 844.599609375 -10 804 -10 c 4
 792.555664062 -10 690.8125 -5 652 -5 c 4
 622.293945312 -5 538.627929688 -11 528 -11 c 4
 496.811523438 -11 481 7.9208984375 481 34 c 4
 481 89.9853515625 506.9765625 82.0380859375 560.083984375 91.9150390625 c 4
 587.89453125 97.0869140625 593.243164062 102.560546875 594.001953125 136.126953125 c 4
 598.224609375 322.880859375 600.983398438 140.970703125 601 726 c 5
 306 726 l 5
 306 195 l 6
 306 109.15234375 316.53515625 87.798828125 364.299804688 84.9912109375 c 4
 378.169921875 84.17578125 385.595703125 83.5341796875 396.26953125 82.9921875 c 4
 419.887695312 81.79296875 434 75.595703125 434 46 c 4
 434 5.650390625 420.599609375 -10 374 -10 c 4
 362.555664062 -10 260.8125 -5 222 -5 c 4
 192.262695312 -5 88.5263671875 -11 78 -11 c 4
 46.8115234375 -11 31 7.9208984375 31 34 c 4
 31 90.0517578125 77.0869140625 77.05859375 130.083984375 86.9150390625 c 4
 157.89453125 92.0869140625 163.243164062 97.560546875 164.001953125 131.126953125 c 4
 168.224609375 317.874023438 170.983398438 140.936523438 171 726.040039062 c 5
 51.9794921875 727 l 6
 34.9765625 727 28 739.068359375 28 778 c 4
 28 819.083984375 45.6845703125 826 66 826 c 6
 173.01171875 826 l 5
 175.060546875 1277.20507812 454.549804688 1385.39160156 616 1385 c 4
 747.764648438 1384.68066406 770.080078125 1324.85839844 778.48046875 1305.79589844 c 5
 811.208984375 1333.29394531 856.244140625 1367.52636719 929.3671875 1392.72558594 c 4
 972.947265625 1407.74414062 1016.40332031 1415 1056 1415 c 4
 1135.78515625 1415 1204 1383.57617188 1204 1322 c 4
 1204 1280.46191406 1171.73339844 1242 1122 1242 c 4
 1082.20117188 1242 1060.91308594 1262.56054688 1043.84570312 1277.125 c 4
 1039.36132812 1280.95214844 1014.96386719 1317 964 1317 c 4
 889.666992188 1317 824.228515625 1260.16796875 795.383789062 1207.59472656 c 4
 762.92578125 1148.43652344 733 1053.39355469 733 894 c 6
 733 826 l 5
 975 826 l 6
 1042.37988281 826 1106.02734375 840 1150 840 c 4
 1204.59960938 840 1209 810.400390625 1209 766 c 4
 1209 270.0078125 1210 155.01953125 1210 -68 c 4
709.727539062 1227.92773438 m 5
 706.73828125 1227.46777344 703.182617188 1227.02148438 699 1227 c 4
 681.96484375 1226.91113281 656.282226562 1232.67382812 624.337890625 1252.76757812 c 4
 592.827148438 1272.58886719 566.6796875 1297 528 1297 c 4
 496.978515625 1297 306 1278.46484375 306 894 c 6
 306 826 l 5
 601.01171875 826 l 5
 601.82421875 1000.10058594 645.0390625 1138.09960938 709.727539062 1227.92773438 c 5
EndSplineSet
Fore
SplineSet
885 -284 m 0xef
 914 -284 941 -300 973 -300 c 0
 1025 -300 1044 -263 1057 -226 c 0
 1064 -206 1066 -162 1066 -93 c 2
 1062 670 l 2
 1062 698 1059 726 983 726 c 2
 736 726 l 1
 736 200 l 2
 736 104 750 101 783 92 c 0
 812 84 874 94 874 46 c 0
 874 1 845 -10 804 -10 c 0
 793 -10 691 -5 652 -5 c 0
 622 -5 539 -11 528 -11 c 0
 497 -11 481 8 481 34 c 0
 481 90 507 82 560 92 c 0
 588 97 593 102 594 136 c 0
 598 323 601 141 601 726 c 1
 306 726 l 1
 306 195 l 2
 306 109 316 88 364 85 c 2
 396 83 l 2
 420 82 434 76 434 46 c 0
 434 6 421 -10 374 -10 c 0
 363 -10 261 -5 222 -5 c 0
 192 -5 89 -11 78 -11 c 0
 47 -11 31 8 31 34 c 0
 31 90 77 77 130 87 c 0
 158 92 163 97 164 131 c 0
 168 318 171 141 171 726 c 1
 52 727 l 2
 35 727 28 739 28 778 c 0
 28 819 46 826 66 826 c 2
 173 826 l 1
 175 1276 453 1385 615 1385 c 2
 616 1385 l 2xf7
 748 1385 770 1325 778 1306 c 1
 811 1333 856 1368 929 1393 c 0
 973 1408 1016 1415 1056 1415 c 0
 1136 1415 1204 1384 1204 1322 c 0
 1204 1280 1172 1242 1122 1242 c 0
 1082 1242 1061 1262 1044 1277 c 0
 1040 1281 1015 1317 964 1317 c 0
 890 1317 824 1261 795 1208 c 0
 763 1149 733 1053 733 894 c 2
 733 826 l 1
 975 826 l 2
 1042 826 1106 840 1150 840 c 0
 1205 840 1209 810 1209 766 c 0
 1209 270 1210 155 1210 -68 c 0
 1210 -123 1198 -186 1161 -246 c 0
 1143 -276 1046 -392 969 -438 c 0
 938 -456 905 -466 876 -466 c 0
 828 -466 791 -445 791 -401 c 0
 791 -365 802 -348 828 -312 c 0
 839 -297 868 -284 885 -284 c 0xef
710 1228 m 1
 705 1227 700 1227 695 1227 c 0
 678 1227 656 1234 624 1253 c 0
 592 1272 567 1297 528 1297 c 0
 497 1297 306 1278 306 894 c 2
 306 826 l 1
 601 826 l 1
 602 1000 645 1138 710 1228 c 1
EndSplineSet
Validated: 1
Ligature2: "liga subtable" f f j
LCarets2: 2 0 0 
EndChar

StartChar: c_t
Encoding: 65543 -1 62
Width: 1453
VWidth: 870
Flags: W
HStem: -23 116<348.458 645.292 1082 1252.23> 711 116<1081 1366.67> 746 107<301.207 518.884> 1086 77<717.799 957.27>
VStem: 46 128<299.099 594.234> 556 90<819.343 1020.73> 910 142<121.703 711> 983 98<851.305 1059.41>
LayerCount: 3
Fore
SplineSet
46 359 m 0xbd
 46 457 61 568 121 646 c 0
 250 816 381 853 456 853 c 0xbd
 535 853 561 819 561 819 c 1
 561 819 556 841 556 864 c 0
 556 903 584 1163 840 1163 c 0
 1094 1163 1078 966 1081 827 c 1xdd
 1338 827 l 2
 1356 827 1373 820 1373 805 c 0
 1373 799 1373 802 1370 776 c 0
 1363 704 1330 703 1314 703 c 0
 1301 703 1292 704 1279 704 c 2
 1060 711 l 1
 1057 574 1052 327 1052 313 c 0
 1052 140 1093 93 1161 93 c 0
 1256 93 1297 185 1338 185 c 0
 1347 185 1368 179 1368 154 c 0
 1368 92 1237 -23 1102 -23 c 0
 989 -23 910 32 910 265 c 0
 910 361 920 587 920 694 c 2
 920 711 l 1
 799 711 l 2xde
 777 711 765 712 765 730 c 0
 765 769 983 792 983 966 c 0
 983 1045 946 1086 830 1086 c 0
 671 1086 646 935 646 879 c 0
 646 846 646 822 652 804 c 0
 669 752 709 725 709 692 c 0
 709 655 632 621 623 621 c 0
 553 621 542 746 401 746 c 0
 256 746 174 630 174 472 c 0
 174 313 308 88 482 88 c 0
 671 88 724 162 763 162 c 0
 771 162 787 158 787 136 c 0
 787 82 607 -23 456 -23 c 0
 187 -23 46 152 46 359 c 0xbd
EndSplineSet
Validated: 1
Layer: 2
SplineSet
787 136 m 4xbd
 787 82.2265625 606.784375 -23 456 -23 c 4
 187 -23 46 152 46 359 c 4
 46 457 61 568 121 646 c 4
 250 816 381 853 456 853 c 4xbd
 535 853 561 819 561 819 c 5
 561 819 556 841 556 864 c 4
 556 903 584 1163 840 1163 c 4
 1094 1163 1078 966 1081 827 c 5xdd
 1338 827 l 6
 1356 827 1373 820 1373 805 c 4
 1373 799 1373 802 1370 776 c 4
 1363 704 1330 703 1314 703 c 4
 1301 703 1292 704 1279 704 c 6
 1060 711 l 5
 1057 574 1052 319 1052 305 c 4
 1052 132 1093 85 1161 85 c 4
 1256 85 1297 177 1338 177 c 4
 1347 177 1368 171 1368 146 c 4
 1368 84 1237 -31 1102 -31 c 4
 989 -31 910 24 910 257 c 4
 910 353 920 587 920 694 c 6
 920 711 l 5
 799 711 l 6xde
 777 711 765 712 765 730 c 4
 765 769 983 792 983 966 c 4
 983 1045 946 1086 830 1086 c 4
 671 1086 646 935 646 879 c 4
 646 846 646 822 652 804 c 4
 669 752 709 725 709 692 c 4
 709 655 632 621 623 621 c 4
 553 621 542 746 401 746 c 4
 256 746 174 630 174 472 c 4
 174 313 308 88 482 88 c 4
 671 88 724 162 763 162 c 4
 771 162 787 158 787 136 c 4xbd
EndSplineSet
Ligature2: "dlig subtable" c t
LCarets2: 1 6 
EndChar

StartChar: s_t
Encoding: 65544 -1 63
Width: 1325
VWidth: 870
Flags: W
HStem: -29 98<208.331 487.696> -23 117<948.826 1124.53> 705 126<943 1235.88> 712 79<621.084 753.848> 751 92<193.868 430.276> 1146 77<576.728 793.334>
VStem: 22 85<160.471 349.412> 67 110<576.088 735.373> 405 88<773.841 1068.6> 501 70<569.758 671.266> 529 109<111.001 282.952> 782 139<120.016 712> 839 104<869.863 1104.39>
LayerCount: 3
Fore
SplineSet
22 97 m 0x8ea0
 22 114 32 177 32 207 c 0
 32 221 33 258 33 287 c 0
 33 335 50 351 77 351 c 0
 107 351 106 316 107 273 c 0x8ea0
 108 228 108 173 215 108 c 0
 268 76 328 69 376 69 c 0
 468 69 529 141 529 200 c 0
 529 293 437 313 377 333 c 0
 156 408 67 405 67 596 c 0
 67 714 144 843 320 843 c 0x8da0
 374 843 402 831 431 818 c 1
 422 846 405 904 405 937 c 0
 405 1016 469 1223 685 1223 c 0
 949 1223 940 960 943 821 c 1
 1032 824 1201 831 1210 831 c 0
 1227 831 1239 822 1239 806 c 2
 1239 780 l 2
 1239 743 1228 705 1183 705 c 0x25a8
 1171 705 1104 706 1081 707 c 2
 926 712 l 1
 923 575 921 325 921 311 c 0
 921 138 958 94 1026 94 c 0
 1114 94 1166 192 1210 192 c 0
 1232 192 1239 171 1239 157 c 0
 1239 113 1126 -23 988 -23 c 0
 867 -23 782 30 782 263 c 2
 782 712 l 1
 655 712 l 2
 624 712 621 727 621 750 c 0
 621 769 650 778 686 791 c 0x5490
 799 832 839 928 839 1001 c 0
 839 1086 782 1146 692 1146 c 0
 521 1146 493 979 493 923 c 0
 493 792 571 666 571 611 c 0
 571 591 566 569 544 569 c 0
 518 569 507 587 501 608 c 0
 476 705 368 751 301 751 c 0
 256 751 177 749 177 639 c 0x0dc8
 177 482 638 584 638 265 c 0
 638 44 434 -29 342 -29 c 0
 284 -29 230 -25 114 23 c 0
 41 53 22 57 22 97 c 0x8ea0
EndSplineSet
Validated: 1
Layer: 2
SplineSet
430.8125 818 m 1
 402.104492188 831.248046875 373.795463145 843 320 843 c 0
 144 843 67 714 67 596 c 0xd4
 67 405 156 408 377 333 c 0
 437 313 529 293 529 200 c 0
 529 141 468 69 376 69 c 0
 328 69 268 76 215 108 c 0
 108 173 108 228 107 273 c 0xe4
 106 316 107 351 77 351 c 0
 50 351 33 335 33 287 c 0
 33 258 32 221 32 207 c 0
 32 177 22 114 22 97 c 0
 22 57 41 53 114 23 c 0
 230 -25 284 -29 342 -29 c 0
 434 -29 638 44 638 265 c 0
 638 584 177 482 177 639 c 0xd8
 177 749 256 751 301 751 c 0
 368 751 476 705 501 608 c 0
 507 585 519 570 541 570 c 0
 566.92465572 570 552.809483875 573 555 573 c 0
 566 573 571 595 571 611 c 0
 571 636 555 662 548 693 c 0
 535.90320836 743.806524888 518.318952921 775.589841938 506.310546875 818 c 1
 498.46484375 845.708007812 493 877.951712348 493 923 c 0
 493 979 521 1146 692 1146 c 0
 782 1146 839 1086 839 1001 c 0
 839 928 799 832 686 791 c 0
 650 778 621 769 621 750 c 0
 621 727 624 712 655 712 c 2
 782 712 l 1
 782 251 l 2
 782 18 867 -35 988 -35 c 0
 1126 -35 1239 101 1239 145 c 0
 1239 159 1232 180 1210 180 c 0
 1166 180 1114 82 1026 82 c 0
 958 82 921 126 921 299 c 0
 921 313 923 575 926 712 c 1
 1081 707 l 2
 1104 706 1171 705 1183 705 c 0
 1206 705 1214 708 1224 723 c 0
 1236 740 1239 765 1239 780 c 2
 1239 806 l 2
 1239 822 1227 831 1210 831 c 0
 1201 831 1032 824 943 821 c 1
 940 960 949 1223 685 1223 c 0
 469 1223 405 1016 405 937 c 0
 405 904.428679764 421.987304688 846.102539062 430.8125 818 c 1
1026 82 m 0
 1114 82 1166 180 1210 180 c 0
 1232 180 1239 159 1239 145 c 0
 1239 101 1126 -35 988 -35 c 0
 867 -35 782 18 782 251 c 2
 782 712 l 1
 655 712 l 2
 624 712 621 727 621 750 c 0
 621 769 650 778 686 791 c 0
 799 832 839 928 839 1001 c 0
 839 1086 782 1146 692 1146 c 0
 521 1146 493 979 493 923 c 0
 493 809 528 777 548 693 c 0
 555 662 571 636 571 611 c 0
 571 595 566 573 555 573 c 0
 500 573 512 621 489 663 c 0
 465 706 380 750 300 750 c 0
 229 750 177 710 177 647 c 0
 177 549 263 540 371 511 c 0
 494 479 647 441 647 241 c 0
 647 82 507 -24 332 -24 c 0
 236 -24 42 29 42 99 c 0
 42 122 49 256 49 279 c 0
 49 329 69 341 85 341 c 0
 143 341 110 264 137 189 c 1
 169 104 287 65 378 65 c 0
 508 65 552 147 552 219 c 0
 552 275 510 303 347 349 c 0
 296 364 263 375 241 379 c 0
 162 394 78 432 78 601 c 0
 78 665 141 839 313 839 c 0
 404 839 436 802 436 802 c 1
 436 802 405 893 405 937 c 0
 405 1016 469 1223 685 1223 c 0
 949 1223 940 960 943 821 c 1
 1032 824 1201 831 1210 831 c 0
 1227 831 1239 822 1239 806 c 2
 1239 780 l 2
 1239 765 1236 740 1224 723 c 0
 1214 708 1206 705 1183 705 c 0
 1171 705 1104 706 1081 707 c 2
 926 712 l 1
 923 575 921 313 921 299 c 0
 921 126 958 82 1026 82 c 0
EndSplineSet
Ligature2: "dlig subtable" s t
LCarets2: 1 0 
EndChar

StartChar: f_b
Encoding: 65545 -1 64
Width: 1507
VWidth: 1000
Flags: W
HStem: -17 83<806.871 1143.38> -11 103<42.1808 173.262 321.466 452.91> 726 100<38.117 181 316 550.753> 747 120<878.636 1134.77> 1294 118<433.422 627.507>
VStem: 181 135<92.8292 726 826 1109.09> 618 151<100.379 506.418> 640 129<588.565 688.382 755 1259.48> 1289 145<223.011 577.05>
LayerCount: 3
Fore
SplineSet
782 1259 m 2x6d80
 783 755 l 1
 870 834 961 867 1047 867 c 0
 1295 867 1434 645 1434 425 c 0
 1434 203 1295 -17 989 -17 c 0
 787 -17 784 3 727 3 c 0
 694 3 675 -22 647 -22 c 0
 624 -22 618 -6 618 28 c 0x9e80
 618 73 640 518 640 1057 c 0
 640 1157 637 1214 635 1248 c 1
 579 1254 562 1294 503 1294 c 0
 351 1294 313 1096 313 894 c 2
 313 826 l 1
 529 826 l 2
 551 826 551 799 551 781 c 0
 551 734 537 726 528 726 c 2
 316 726 l 1
 316 200 l 2
 316 104 330 101 363 92 c 0
 392 84 454 94 454 46 c 0
 454 1 425 -10 384 -10 c 0
 373 -10 271 -5 232 -5 c 0
 202 -5 99 -11 88 -11 c 0
 57 -11 41 8 41 34 c 0
 41 90 87 82 140 92 c 0
 168 97 173 102 174 136 c 0
 178 323 181 141 181 726 c 1
 62 727 l 2
 45 727 38 739 38 778 c 0
 38 819 56 826 76 826 c 2
 181 826 l 1
 183 1280 436 1412 606 1412 c 0
 634 1412 659 1407 679 1398 c 1
 733 1416 730 1419 742 1419 c 0
 758 1419 780 1410 780 1376 c 0
 780 1338 782 1336 782 1259 c 2x6d80
769 245 m 2
 769 85 830 66 987 66 c 0
 1196 66 1289 230 1289 383 c 0
 1289 579 1174 747 971 747 c 0
 790 747 769 614 769 560 c 2x9d80
 769 245 l 2
EndSplineSet
Validated: 1
Ligature2: "liga subtable" f b
LCarets2: 1 0 
EndChar

StartChar: f_h
Encoding: 65546 -1 65
Width: 1502
VWidth: 994
Flags: W
HStem: -15 96<840 952.172> -5 97<42.1808 174 319.832 453.601 519.155 631.647 1038.07 1189.93 1360.63 1460.29> 726 100<38.117 181 316 550.753> 743 110<864.631 1108.26> 1294 118<433.422 627.507>
VStem: 181 135<92.8292 726 826 1109.09> 644 149<97.3438 688.301 747 1246.66> 1200 156<93.3965 637.862>
LayerCount: 3
Fore
SplineSet
799 1365 m 0x6f
 799 1298 799 1275 793 747 c 1
 825 781 889 853 1036 853 c 0
 1113 853 1290 811 1334 551 c 0
 1347 474 1353 293 1356 194 c 0
 1359 93 1373 105 1393 96 c 0
 1421 84 1461 85 1461 38 c 0
 1461 -2 1435 -12 1394 -12 c 0
 1358 -12 1311 -5 1253 -5 c 2
 1232 -5 l 2
 1057 -5 1044 -5 1039 27 c 0
 1038 34 1038 40 1038 45 c 0
 1038 83 1061 92 1116 92 c 2
 1144 92 l 2x5f
 1181 92 1200 101 1200 300 c 0
 1200 564 1173 659 1089 714 c 0
 1057 735 1023 743 988 743 c 0
 839 743 794 638 794 597 c 2
 789 191 l 2
 789 116 795 95 840 90 c 2
 912 81 l 2
 939 78 953 66 953 42 c 0
 953 -5 925 -15 904 -15 c 0x9f
 865 -15 813 -9 716 -9 c 0
 613 -9 577 -8 560 -7 c 0
 543 -6 519 4 519 44 c 0
 519 83 551 90 574 93 c 0
 625 99 642 100 642 285 c 0
 642 611 644 822 644 959 c 0
 644 1213 637 1219 635 1248 c 1
 579 1254 562 1294 503 1294 c 0
 351 1294 313 1096 313 894 c 2
 313 826 l 1
 529 826 l 2
 551 826 551 799 551 781 c 0
 551 734 537 726 528 726 c 2
 316 726 l 1
 316 200 l 2
 316 104 330 101 363 92 c 0
 392 84 454 94 454 46 c 0
 454 1 425 -10 384 -10 c 0
 373 -10 271 -5 232 -5 c 0
 202 -5 99 -11 88 -11 c 0
 57 -11 41 8 41 34 c 0
 41 90 87 82 140 92 c 0
 168 97 173 102 174 136 c 0
 178 323 181 141 181 726 c 1
 62 727 l 2
 45 727 38 739 38 778 c 0
 38 819 56 826 76 826 c 2
 181 826 l 1
 183 1280 436 1412 606 1412 c 0
 634 1412 659 1407 679 1398 c 1
 743 1420 741 1422 752 1422 c 0
 776 1422 799 1405 799 1365 c 0x6f
EndSplineSet
Validated: 1
Ligature2: "liga subtable" f h
LCarets2: 1 0 
EndChar

StartChar: f_k
Encoding: 65547 -1 66
Width: 1400
VWidth: 870
Flags: W
HStem: -11 103<42.1808 174 319.832 452.91> -11 91<539.254 607 841 937.931 969.288 1055 1257.52 1376.98> 726 100<38.117 181 316 550.753> 757 77<940.184 974 1253 1335.93> 1294 118<433.422 630.488>
VStem: 181 135<92.8292 726 826 1109.09> 644 149<86.632 336 454 1258.59>
LayerCount: 3
Fore
SplineSet
793 1360 m 2xae
 789 454 l 1
 925 585 1022 697 1022 717 c 0
 1022 731 1010 741 999 746 c 2
 974 757 l 2
 956 765 940 774 940 799 c 0
 940 811 942 834 985 834 c 2
 1289 834 l 2
 1316 834 1336 826 1336 793 c 0
 1336 768 1331 758 1279 754 c 2
 1253 752 l 2
 1237 751 1179 744 1039 595 c 2
 948 498 l 1
 1183 205 l 2
 1238 135 1287 89 1341 83 c 0
 1369 80 1378 58 1378 47 c 0
 1378 4 1350 -8 1307 -8 c 0
 1268 -8 1217 1 1159 1 c 0
 1126 1 1073 -11 1032 -11 c 0
 998 -11 969 -2 969 30 c 0
 969 66 994 74 1024 80 c 0
 1051 86 1055 94 1055 104 c 0
 1055 125 1033 160 976 235 c 2
 848 402 l 1
 788 336 l 1
 791 151 786 91 841 86 c 2
 902 80 l 2x5e
 921 78 938 58 938 36 c 0
 938 19 928 -6 879 -6 c 2
 867 -6 l 2
 831 -6 744 -2 722 -2 c 0
 678 -2 685 -5 589 -5 c 0
 561 -5 539 5 539 30 c 0
 539 58 556 71 577 77 c 2
 607 85 l 2
 617 88 642 100 642 151 c 0
 644 865 644 955 644 1044 c 0
 644 1156 642 1162 638 1248 c 1
 583 1254 561 1294 503 1294 c 0
 351 1294 313 1096 313 894 c 2
 313 826 l 1
 529 826 l 2
 551 826 551 799 551 781 c 0
 551 734 537 726 528 726 c 2
 316 726 l 1
 316 200 l 2
 316 104 330 101 363 92 c 0
 392 84 454 94 454 46 c 0
 454 1 425 -10 384 -10 c 0
 373 -10 271 -5 232 -5 c 0
 202 -5 99 -11 88 -11 c 0
 57 -11 41 8 41 34 c 0
 41 90 87 82 140 92 c 0
 168 97 173 102 174 136 c 0
 178 323 181 141 181 726 c 1
 62 727 l 2
 45 727 38 739 38 778 c 0
 38 819 56 826 76 826 c 2
 181 826 l 1
 183 1280 436 1412 606 1412 c 0
 641 1412 667 1406 680 1399 c 1
 691 1403 740 1421 749 1421 c 0
 780 1421 793 1380 793 1360 c 2xae
EndSplineSet
Validated: 1
Ligature2: "liga subtable" f k
LCarets2: 1 0 
EndChar

StartChar: f_f_b
Encoding: 65548 -1 67
Width: 1901
VWidth: 870
Flags: W
HStem: -17 83<1226.87 1563.38> -11 98<31.5295 163.262 364 442.981 471.842 560 741.466 872.91> 726 100<28.117 171 306 601 736 970.753> 747 120<1298.64 1554.77> 1294 118<849.212 1047.51> 1297 88<433.819 622.893>
VStem: 171 135<86.6919 726 826 1085.72> 601 135<92.8292 726 826 1109.33> 1038 151<100.379 506.418> 1060 129<588.565 688.382 755 1259.48> 1709 145<223.011 577.05>
LayerCount: 3
Back
SplineSet
1269 74 m 4
 1269 76.759765625 1271.24023438 79 1274 79 c 4
 1276.75976562 79 1279 76.759765625 1279 74 c 4
 1279 71.240234375 1276.75976562 69 1274 69 c 4
 1271.24023438 69 1269 71.240234375 1269 74 c 4
923 1294 m 4
 771 1294 733 1095.5625 733 894 c 6
 733 826 l 5
 949 826 l 6
 970.807617188 826 971 798.92578125 971 781 c 4
 971 733.549804688 957.200195312 726 948 726 c 6
 736 726 l 5
 736 200 l 6
 736 104.381835938 749.895507812 100.567382812 783.266601562 91.8369140625 c 4
 812.75 84.1240234375 874 94.255859375 874 46 c 4
 874 1.2001953125 844.599609375 -10 804 -10 c 4
 792.555664062 -10 690.8125 -5 652 -5 c 4
 622.27734375 -5 528.572265625 -11 518 -11 c 4
 488.028320312 -11 471 6.5830078125 471 32 c 4
 471 63.7490234375 488.846679688 78.30859375 524.0625 84.9111328125 c 6
 560.0625 91.9111328125 l 6
 587.865234375 97.1240234375 593.243164062 102.560546875 594.001953125 136.126953125 c 4
 598.224609375 322.880859375 600.983398438 140.970703125 601 726 c 5
 306 726 l 5
 306 195 l 6
 306 109.15234375 316.532226562 87.7470703125 364.299804688 84.9912109375 c 6
 396.26953125 82.9921875 l 6
 420.057617188 81.9111328125 444 75.78515625 444 46 c 4
 444 1.2001953125 414.599609375 -10 374 -10 c 4
 362.555664062 -10 260.8125 -5 222 -5 c 4
 192.262695312 -5 88.5263671875 -11 78 -11 c 4
 46.8115234375 -11 31 7.9208984375 31 34 c 4
 31 90.0517578125 77.0869140625 77.05859375 130.083984375 86.9150390625 c 4
 157.89453125 92.0869140625 163.243164062 97.560546875 164.001953125 131.126953125 c 4
 168.224609375 317.874023438 170.983398438 140.936523438 171 726.040039062 c 5
 51.9794921875 727 l 6
 34.9765625 727 28 739.068359375 28 778 c 4
 28 819.083984375 45.6845703125 826 66 826 c 6
 173.01171875 826 l 5
 175.060546875 1277.20507812 454.549804688 1385 616 1385 c 4
 692.935546875 1385 765.630859375 1362.51074219 774.166015625 1312.11230469 c 5
 796.614257812 1331.18066406 811.030273438 1342.91015625 838.432617188 1359.29003906 c 4
 901.263671875 1396.84765625 969.120117188 1412 1026 1412 c 4
 1053.76855469 1412 1078.7734375 1407.20410156 1099.234375 1398.359375 c 5
 1152.90429688 1416.64257812 1150.21582031 1419 1162 1419 c 4
 1178.27539062 1419 1200 1410.40039062 1200 1376 c 4
 1200 1338.29003906 1202 1336.11914062 1202 1259.00488281 c 6
 1202.97753906 755.416015625 l 5
 1290.21191406 834.487304688 1381.43261719 867 1467 867 c 4
 1715.43554688 867 1854 644.831054688 1854 425 c 4
 1854 203.34375 1714.76367188 -17 1409 -17 c 4
 1206.75292969 -17 1204.28417969 3 1147 3 c 4
 1114 3 1095 -22 1067 -22 c 4
 1043.79980469 -22 1038 -5.625 1038 28 c 4
 1038 73.4775390625 1060 518.008789062 1060 1057 c 4
 1060 1157.47265625 1057.29785156 1214.78222656 1055.3125 1248.37988281 c 5
 999.122070312 1254.14746094 981.725585938 1294 923 1294 c 4
1189 245 m 6
 1189 84.7685546875 1249.62988281 66 1407 66 c 4
 1615.91113281 66 1709 230.280273438 1709 383 c 4
 1709 578.720703125 1593.80371094 747 1391 747 c 4
 1210.21777344 747 1189 613.510742188 1189 560 c 6
 1189 245 l 6
601.03515625 826 m 5
 602.672851562 1009.81054688 641.520507812 1139.37011719 704.536132812 1231.21875 c 5
 673.961914062 1231.89941406 655.567382812 1232.46289062 621.26953125 1254.81152344 c 4
 592.604492188 1273.49023438 565.303710938 1297 528 1297 c 4
 496.978515625 1297 306 1278.46484375 306 894 c 6
 306 826 l 5
 601.03515625 826 l 5
EndSplineSet
Fore
SplineSet
774 1312 m 1x6760
 827.139813587 1365.50453826 921 1412 1026 1412 c 0
 1054 1412 1079 1407 1099 1398 c 1
 1153 1416 1150 1419 1162 1419 c 0
 1178 1419 1200 1410 1200 1376 c 0
 1200 1338 1202 1336 1202 1259 c 2
 1203 755 l 1
 1290 834 1381 867 1467 867 c 0
 1715 867 1854 645 1854 425 c 0
 1854 203 1715 -17 1409 -17 c 0
 1207 -17 1204 3 1147 3 c 0
 1114 3 1095 -22 1067 -22 c 0
 1044 -22 1038 -6 1038 28 c 0x9ba0
 1038 73 1060 518 1060 1057 c 0
 1060 1157 1057 1214 1055 1248 c 1
 999 1254 982 1294 923 1294 c 0x9b60
 771 1294 733 1096 733 894 c 2
 733 826 l 1
 949 826 l 2
 971 826 971 799 971 781 c 0
 971 734 957 726 948 726 c 2
 736 726 l 1
 736 200 l 2
 736 104 750 101 783 92 c 0
 812 84 874 94 874 46 c 0
 874 1 845 -10 804 -10 c 0
 793 -10 691 -5 652 -5 c 0
 622 -5 529 -11 518 -11 c 0
 488 -11 471 7 471 32 c 0
 471 64 489 78 524 85 c 2
 560 92 l 2
 588 97 593 102 594 136 c 0
 598 323 601 141 601 726 c 1
 306 726 l 1
 306 195 l 2
 306 109 316 88 364 85 c 2
 396 83 l 2
 420 82 444 76 444 46 c 0
 444 1 415 -10 374 -10 c 0
 363 -10 261 -5 222 -5 c 0
 192 -5 89 -11 78 -11 c 0
 47 -11 31 8 31 34 c 0
 31 90 77 77 130 87 c 0
 158 92 163 97 164 131 c 0
 168 318 171 141 171 726 c 1
 52 727 l 2
 35 727 28 739 28 778 c 0
 28 819 46 826 66 826 c 2
 173 826 l 1
 175 1277 455 1385 616 1385 c 0
 693 1385 765 1362 774 1312 c 1x6760
1189 245 m 2
 1189 85 1250 66 1407 66 c 0
 1616 66 1709 230 1709 383 c 0
 1709 579 1594 747 1391 747 c 0
 1210 747 1189 614 1189 560 c 2x9360
 1189 245 l 2
601 826 m 1x2720
 603 1010 642 1139 705 1231 c 1
 674 1232 655 1233 621 1255 c 0
 592 1274 565 1297 528 1297 c 0
 497 1297 306 1278 306 894 c 2
 306 826 l 1
 601 826 l 1x2720
EndSplineSet
Validated: 524289
Ligature2: "liga subtable" f f b
LCarets2: 2 0 0 
EndChar

StartChar: f_f_h
Encoding: 65549 -1 68
Width: 1925
VWidth: 870
Flags: W
HStem: -5 97<364 443.725 739.832 873.601 938.439 1051.65 1458.07 1609.93 1780.63 1880.29> 726 100<28.117 171 306 601 736 970.753> 743 110<1284.39 1527.66> 1294 118<848.786 1047.51> 1297 88<433.819 622.893>
VStem: 171 135<86.6919 726 826 1085.72> 601 135<92.8292 726 826 1109.33> 1064 149<97.3438 687.528 747 1246.66> 1620 156<93.3965 637.862>
LayerCount: 3
Back
SplineSet
923 1294 m 4
 771 1294 733 1095.5625 733 894 c 6
 733 826 l 5
 949 826 l 6
 970.807617188 826 971 798.92578125 971 781 c 4
 971 733.549804688 957.200195312 726 948 726 c 6
 736 726 l 5
 736 200 l 6
 736 104.381835938 749.895507812 100.567382812 783.266601562 91.8369140625 c 4
 812.75 84.1240234375 874 94.255859375 874 46 c 4
 874 1.2001953125 844.599609375 -10 804 -10 c 4
 792.555664062 -10 690.8125 -5 652 -5 c 4
 622.27734375 -5 528.572265625 -11 518 -11 c 4
 488.028320312 -11 471 6.5830078125 471 32 c 4
 471 63.7490234375 488.846679688 78.30859375 524.0625 84.9111328125 c 6
 560.0625 91.9111328125 l 6
 587.865234375 97.1240234375 593.243164062 102.560546875 594.001953125 136.126953125 c 4
 598.224609375 322.880859375 600.983398438 140.970703125 601 726 c 5
 306 726 l 5
 306 195 l 6
 306 109.15234375 316.532226562 87.7470703125 364.299804688 84.9912109375 c 6
 396.26953125 82.9921875 l 6
 420.057617188 81.9111328125 444 75.78515625 444 46 c 4
 444 1.2001953125 414.599609375 -10 374 -10 c 4
 362.555664062 -10 260.8125 -5 222 -5 c 4
 192.262695312 -5 88.5263671875 -11 78 -11 c 4
 46.8115234375 -11 31 7.9208984375 31 34 c 4
 31 90.0517578125 77.0869140625 77.05859375 130.083984375 86.9150390625 c 4
 157.89453125 92.0869140625 163.243164062 97.560546875 164.001953125 131.126953125 c 4
 168.224609375 317.874023438 170.983398438 140.936523438 171 726.040039062 c 5
 51.9794921875 727 l 6
 34.9765625 727 28 739.068359375 28 778 c 4
 28 819.083984375 45.6845703125 826 66 826 c 6
 173.01171875 826 l 5
 175.060546875 1277.20507812 454.549804688 1385 616 1385 c 4
 692.935546875 1385 765.630859375 1362.51074219 774.166015625 1312.11230469 c 5
 796.614257812 1331.18066406 811.030273438 1342.91015625 838.432617188 1359.29003906 c 4
 901.263671875 1396.84765625 969.120117188 1412 1026 1412 c 4
 1053.76855469 1412 1078.77441406 1407.20410156 1099.23535156 1398.359375 c 5
 1163.12402344 1420.08496094 1161.10449219 1422 1172 1422 c 4
 1196.47558594 1422 1219 1405.03613281 1219 1365 c 4
 1219 1298.49804688 1218.95507812 1274.31640625 1213.09570312 746.596679688 c 5
 1244.875 781.025390625 1308.84277344 853 1456 853 c 4
 1532.58496094 853 1710.26953125 811.23828125 1753.93066406 550.83203125 c 4
 1766.81347656 473.993164062 1773.08105469 293.259765625 1775.99804688 194.147460938 c 4
 1778.98242188 92.724609375 1792.54003906 104.3515625 1812.96972656 95.595703125 c 4
 1840.546875 83.77734375 1881 85.1416015625 1881 38 c 4
 1881 -2 1855.45019531 -12 1814 -12 c 4
 1778.375 -12 1730.62402344 -5 1673 -5 c 4
 1477.7890625 -5 1463.88671875 -5.646484375 1459.05957031 27.2353515625 c 4
 1458.09863281 33.7822265625 1458 39.9921875 1458 45 c 4
 1458 82.599609375 1481.32421875 92 1536 92 c 6
 1564 92 l 6
 1601.37792969 92 1620 100.612304688 1620 300 c 4
 1620 564.130859375 1593.55175781 659.028320312 1509.25976562 713.817382812 c 4
 1477.00195312 734.78515625 1441.30859375 743.379882812 1406.03320312 743 c 4
 1258.66503906 741.415039062 1214 638.150390625 1214 596.96875 c 6
 1209 190.96875 l 6
 1209 115.890625 1214.83300781 95.4453125 1259.61425781 89.9619140625 c 6
 1331.62011719 80.9609375 l 6
 1358.41601562 77.611328125 1373 65.5615234375 1373 42 c 4
 1373 -5.0302734375 1345.46582031 -15 1324 -15 c 4
 1285.49902344 -15 1232.82226562 -9 1136 -9 c 4
 1032.98535156 -9 996.703125 -7 980 -7 c 4
 949.797851562 -7 938 16.591796875 938 39 c 4
 938 60.5908203125 945.686523438 87.9658203125 994.490234375 92.9736328125 c 4
 1045.54492188 98.212890625 1062 99.5576171875 1062 285 c 4
 1062 611.017578125 1064 822.043945312 1064 959 c 4
 1064 1213.27929688 1057.63964844 1218.99902344 1055.29199219 1248.38867188 c 5
 999.168945312 1254.1875 981.696289062 1294 923 1294 c 4
601.03515625 826 m 5
 602.672851562 1009.81054688 641.520507812 1139.37011719 704.536132812 1231.21875 c 5
 673.961914062 1231.89941406 655.567382812 1232.46289062 621.26953125 1254.81152344 c 4
 592.604492188 1273.49023438 565.303710938 1297 528 1297 c 4
 496.978515625 1297 306 1278.46484375 306 894 c 6
 306 826 l 5
 601.03515625 826 l 5
EndSplineSet
Fore
SplineSet
774 1312 m 1xcf80
 827 1366 918 1412 1026 1412 c 0
 1054 1412 1079 1407 1099 1398 c 1
 1163 1420 1161 1422 1172 1422 c 0
 1196 1422 1219 1405 1219 1365 c 0
 1219 1298 1219 1275 1213 747 c 1
 1245 781 1309 853 1456 853 c 0
 1533 853 1710 811 1754 551 c 0
 1767 474 1773 293 1776 194 c 0
 1779 93 1793 105 1813 96 c 0
 1841 84 1881 85 1881 38 c 0
 1881 -2 1855 -12 1814 -12 c 0
 1778 -12 1731 -5 1673 -5 c 2
 1652 -5 l 2
 1477 -5 1464 -5 1459 27 c 0
 1458 34 1458 40 1458 45 c 0
 1458 83 1481 92 1536 92 c 2
 1564 92 l 2
 1601 92 1620 101 1620 300 c 0
 1620 564 1593 659 1509 714 c 0
 1477 735 1443 743 1408 743 c 2
 1406 743 l 1
 1259 741 1214 638 1214 597 c 2
 1209 191 l 2
 1209 116 1215 95 1260 90 c 2
 1332 81 l 2
 1359 78 1373 66 1373 42 c 0
 1373 -5 1345 -15 1324 -15 c 0
 1285 -15 1233 -9 1136 -9 c 0
 1033 -9 997 -7 980 -7 c 0
 950 -7 938 17 938 39 c 0
 938 61 945 88 994 93 c 0
 1045 98 1062 100 1062 285 c 0
 1062 611 1064 822 1064 959 c 0
 1064 1213 1057 1219 1055 1248 c 1
 999 1254 982 1294 923 1294 c 0xb780
 771 1294 733 1096 733 894 c 2
 733 826 l 1
 949 826 l 2
 971 826 971 799 971 781 c 0
 971 734 957 726 948 726 c 2
 736 726 l 1
 736 200 l 2
 736 104 750 101 783 92 c 0
 812 84 874 94 874 46 c 0
 874 1 845 -10 804 -10 c 0
 793 -10 691 -5 652 -5 c 0
 622 -5 529 -11 518 -11 c 0
 488 -11 471 7 471 32 c 0
 471 64 489 78 524 85 c 2
 560 92 l 2
 588 97 593 102 594 136 c 0
 598 323 601 141 601 726 c 1
 306 726 l 1
 306 195 l 2
 306 109 316 88 364 85 c 2
 396 83 l 2
 420 82 444 76 444 46 c 0
 444 1 415 -10 374 -10 c 0
 363 -10 261 -5 222 -5 c 0
 192 -5 89 -11 78 -11 c 0
 47 -11 31 8 31 34 c 0
 31 90 77 77 130 87 c 0
 158 92 163 97 164 131 c 0
 168 318 171 141 171 726 c 1
 52 727 l 2
 35 727 28 739 28 778 c 0
 28 819 46 826 66 826 c 2
 173 826 l 1
 175 1277 455 1385 616 1385 c 0
 693 1385 765 1362 774 1312 c 1xcf80
601 826 m 1xcf80
 603 1010 642 1139 705 1231 c 1
 674 1232 655 1233 621 1255 c 0
 592 1274 565 1297 528 1297 c 0
 497 1297 306 1278 306 894 c 2
 306 826 l 1
 601 826 l 1xcf80
EndSplineSet
Validated: 1
Ligature2: "liga subtable" f f h
LCarets2: 2 0 0 
EndChar

StartChar: f_f_k
Encoding: 65550 -1 69
Width: 1837
VWidth: 870
Flags: W
HStem: -10 102<739.832 873.249> -10 93<31.1336 163.894 364 443.17 471.329 557.344 959.593 1027 1261 1357.93 1389.64 1475 1675.09 1797.01> 726 100<28.117 171 306 601 736 970.753> 757 77<1360.18 1394 1673 1755.93> 1294 118<849.313 1050.28> 1297 88<433.819 622.893>
VStem: 171 135<86.6919 726 826 1085.72> 601 135<92.8292 726 826 1109.33> 1064 149<86.632 336 454 1258.59>
LayerCount: 3
Back
SplineSet
923 1294 m 4
 771 1294 733 1095.5625 733 894 c 6
 733 826 l 5
 949 826 l 6
 970.807617188 826 971 798.92578125 971 781 c 4
 971 733.549804688 957.200195312 726 948 726 c 6
 736 726 l 5
 736 200 l 6
 736 104.381835938 749.895507812 100.567382812 783.266601562 91.8369140625 c 4
 812.75 84.1240234375 874 94.255859375 874 46 c 4
 874 1.2001953125 844.599609375 -10 804 -10 c 4
 792.555664062 -10 690.8125 -5 652 -5 c 4
 622.27734375 -5 528.572265625 -11 518 -11 c 4
 488.028320312 -11 471 6.5830078125 471 32 c 4
 471 63.7490234375 488.846679688 78.30859375 524.0625 84.9111328125 c 6
 560.0625 91.9111328125 l 6
 587.865234375 97.1240234375 593.243164062 102.560546875 594.001953125 136.126953125 c 4
 598.224609375 322.880859375 600.983398438 140.970703125 601 726 c 5
 306 726 l 5
 306 195 l 6
 306 109.15234375 316.532226562 87.7470703125 364.299804688 84.9912109375 c 6
 396.26953125 82.9921875 l 6
 420.057617188 81.9111328125 444 75.78515625 444 46 c 4
 444 1.2001953125 414.599609375 -10 374 -10 c 4
 362.555664062 -10 260.8125 -5 222 -5 c 4
 192.262695312 -5 88.5263671875 -11 78 -11 c 4
 46.8115234375 -11 31 7.9208984375 31 34 c 4
 31 90.0517578125 77.0869140625 77.05859375 130.083984375 86.9150390625 c 4
 157.89453125 92.0869140625 163.243164062 97.560546875 164.001953125 131.126953125 c 4
 168.224609375 317.874023438 170.983398438 140.936523438 171 726.040039062 c 5
 51.9794921875 727 l 6
 34.9765625 727 28 739.068359375 28 778 c 4
 28 819.083984375 45.6845703125 826 66 826 c 6
 173.01171875 826 l 5
 175.060546875 1277.20507812 454.549804688 1385 616 1385 c 4
 692.935546875 1385 765.630859375 1362.51074219 774.166015625 1312.11230469 c 5
 796.614257812 1331.18066406 811.030273438 1342.91015625 838.432617188 1359.29003906 c 4
 901.263671875 1396.84765625 969.120117188 1412 1026 1412 c 4
 1053.74023438 1412 1078.72949219 1407.21386719 1099.17871094 1398.38671875 c 5
 1109.79785156 1402.23730469 1160.28417969 1420.40429688 1169.33984375 1420.97851562 c 4
 1169.46386719 1420.98632812 1169.78027344 1421 1170 1421 c 4
 1202.25683594 1421 1213 1379.4375 1213 1359.98925781 c 6
 1209.05175781 453.790039062 l 5
 1344.79003906 584.641601562 1442 696.944335938 1442 717 c 4
 1442 730.990234375 1429.89941406 741.875976562 1419.03125 746.404296875 c 6
 1394.00878906 757.4140625 l 6
 1376.484375 764.924804688 1360 774.04296875 1360 799 c 4
 1360 810.645507812 1362.44824219 834 1405 834 c 6
 1709 834 l 6
 1736.17480469 834 1756 825.799804688 1756 793 c 4
 1756 768.471679688 1751.86621094 758.298828125 1699.39550781 754.015625 c 6
 1673.33007812 752.010742188 l 6
 1657.08300781 751.108398438 1598.36230469 743.276367188 1458.64355469 594.576171875 c 6
 1367.62207031 497.744140625 l 5
 1602.90625 205.12109375 l 6
 1658.10546875 135.610351562 1706.34375 88.9462890625 1760.55957031 82.96875 c 4
 1788.42382812 79.896484375 1798 57.5166015625 1798 47 c 4
 1798 3.9521484375 1770.05957031 -8 1727 -8 c 4
 1688.265625 -8 1636.51757812 1 1579 1 c 4
 1545.98730469 1 1492.84960938 -11 1452 -11 c 4
 1417.87011719 -11 1389 -2.15234375 1389 30 c 4
 1389 66.2890625 1414.07226562 73.4423828125 1443.9453125 79.8876953125 c 4
 1470.50878906 85.619140625 1475 94.3544921875 1475 104 c 4
 1475 124.541992188 1452.83984375 159.928710938 1396.0234375 234.96875 c 6
 1267.68847656 402.193359375 l 5
 1208.03125 336.111328125 l 5
 1210.97363281 151.288085938 1206.62304688 91.462890625 1261.49707031 85.9755859375 c 6
 1321.52441406 79.97265625 l 6
 1340.04101562 77.9150390625 1358 58.2734375 1358 36 c 4
 1358 19.2001953125 1348.29980469 -6 1299 -6 c 6
 1287 -6 l 6
 1250.78808594 -6 1163.68945312 -2 1142 -2 c 4
 1098.42089844 -2 1105.14160156 -5 1009 -5 c 4
 981.49609375 -5 959 5.0703125 959 30 c 4
 959 58.0634765625 975.3828125 70.16796875 996.610351562 76.8017578125 c 6
 1026.66894531 84.8193359375 l 6
 1036.70703125 87.6875 1061.86621094 100.010742188 1062 151.006835938 c 4
 1063.86621094 865.0078125 1064 955.005859375 1064 1044 c 4
 1064 1156.07226562 1062.08203125 1162.46386719 1058.20703125 1248.39648438 c 5
 1002.91210938 1254.1796875 980.8984375 1294 923 1294 c 4
601.03515625 826 m 5
 602.672851562 1009.81054688 641.520507812 1139.37011719 704.536132812 1231.21875 c 5
 673.961914062 1231.89941406 655.567382812 1232.46289062 621.26953125 1254.81152344 c 4
 592.604492188 1273.49023438 565.303710938 1297 528 1297 c 4
 496.978515625 1297 306 1278.46484375 306 894 c 6
 306 826 l 5
 601.03515625 826 l 5
EndSplineSet
Fore
SplineSet
774 1312 m 1x6780
 827 1366 922 1412 1026 1412 c 0
 1054 1412 1079 1407 1099 1398 c 1
 1127 1408 1163 1421 1170 1421 c 0
 1202 1421 1213 1379 1213 1360 c 2
 1209 454 l 1
 1345 585 1442 697 1442 717 c 0
 1442 731 1430 741 1419 746 c 2
 1394 757 l 2
 1376 765 1360 774 1360 799 c 0
 1360 811 1362 834 1405 834 c 2
 1709 834 l 2
 1736 834 1756 826 1756 793 c 0
 1756 768 1751 758 1699 754 c 2
 1673 752 l 2
 1657 751 1599 744 1459 595 c 2
 1368 498 l 1
 1603 205 l 2
 1658 135 1707 89 1761 83 c 0x5b80
 1789 80 1798 58 1798 47 c 0
 1798 4 1770 -8 1727 -8 c 0
 1688 -8 1637 1 1579 1 c 0
 1546 1 1493 -11 1452 -11 c 0
 1418 -11 1389 -2 1389 30 c 0
 1389 66 1414 74 1444 80 c 0
 1471 86 1475 94 1475 104 c 0
 1475 125 1453 160 1396 235 c 2
 1268 402 l 1
 1208 336 l 1
 1211 151 1206 91 1261 86 c 2
 1322 80 l 2
 1341 78 1358 58 1358 36 c 0
 1358 19 1348 -6 1299 -6 c 2
 1287 -6 l 2
 1251 -6 1164 -2 1142 -2 c 0
 1098 -2 1105 -5 1009 -5 c 0
 981 -5 959 5 959 30 c 0
 959 58 976 71 997 77 c 2
 1027 85 l 2
 1037 88 1062 100 1062 151 c 0
 1064 865 1064 955 1064 1044 c 0
 1064 1156 1062 1162 1058 1248 c 1
 1003 1254 981 1294 923 1294 c 0
 771 1294 733 1096 733 894 c 2
 733 826 l 1
 949 826 l 2
 971 826 971 799 971 781 c 0
 971 734 957 726 948 726 c 2
 736 726 l 1
 736 200 l 2
 736 104 750 101 783 92 c 0
 812 84 874 94 874 46 c 0
 874 1 845 -10 804 -10 c 0
 793 -10 691 -5 652 -5 c 0
 622 -5 529 -11 518 -11 c 0
 488 -11 471 7 471 32 c 0
 471 64 489 78 524 85 c 2
 560 92 l 2xab80
 588 97 593 102 594 136 c 0
 598 323 601 141 601 726 c 1
 306 726 l 1
 306 195 l 2
 306 109 316 88 364 85 c 2
 396 83 l 2
 420 82 444 76 444 46 c 0
 444 1 415 -10 374 -10 c 0
 363 -10 261 -5 222 -5 c 0
 192 -5 89 -11 78 -11 c 0
 47 -11 31 8 31 34 c 0
 31 90 77 77 130 87 c 0
 158 92 163 97 164 131 c 0
 168 318 171 141 171 726 c 1
 52 727 l 2
 35 727 28 739 28 778 c 0
 28 819 46 826 66 826 c 2
 173 826 l 1
 175 1277 455 1385 616 1385 c 0
 693 1385 765 1362 774 1312 c 1x6780
601 826 m 1x2780
 603 1010 642 1139 705 1231 c 1
 674 1232 655 1233 621 1255 c 0
 592 1274 565 1297 528 1297 c 0
 497 1297 306 1278 306 894 c 2
 306 826 l 1
 601 826 l 1x2780
EndSplineSet
Validated: 1
Ligature2: "liga subtable" f f k
LCarets2: 2 0 0 
EndChar

StartChar: comma
Encoding: 44 44 70
Width: 468
VWidth: 0
Flags: W
HStem: -268 84<104.378 241.864> 0 228<118.598 272.951>
VStem: 278 114<-146.063 60>
LayerCount: 3
Fore
SplineSet
91 115 m 0
 91 179 150 228 216 228 c 0
 338 228 392 120 392 0 c 0
 392 -137 276 -268 164 -268 c 0
 124 -268 103 -240 103 -216 c 0
 103 -199 114 -184 138 -184 c 0
 225 -184 278 -124 278 -69 c 0
 278 -37 266 -6 225 0 c 0
 141 13 91 48 91 115 c 0
EndSplineSet
Validated: 1
EndChar

StartChar: a.sc
Encoding: 65551 -1 71
Width: 680
VWidth: 0
Flags: W
HStem: -19 64<203.577 373.219> -10 93<529.466 642.857> 547 69<200.867 374.851>
VStem: 56 125<58.1469 236.744> 408 117<84.1994 286 324.718 521.889>
LayerCount: 3
Fore
SplineSet
56 117 m 0xb8
 56 249 158 285 239 302 c 0
 375 330 408 320 408 365 c 2
 408 404 l 2
 408 479 383 547 284 547 c 0
 169 547 194 438 112 438 c 0
 79 438 57 465 57 495 c 0
 57 574 201 616 304 616 c 0
 438 616 525 542 525 439 c 2
 525 162 l 2
 525 95 561 83 574 83 c 0
 635 83 644 129 657 129 c 0
 668 129 675 123 675 110 c 0
 675 43 610 -10 534 -10 c 0x78
 447 -10 427 65 427 65 c 1
 425 63 387 -19 242 -19 c 0
 151 -19 56 2 56 117 c 0xb8
181 159 m 0
 181 94 202 45 286 45 c 0xb8
 349 45 408 81 408 149 c 2
 408 286 l 1
 232 259 181 259 181 159 c 0
EndSplineSet
Validated: 1
EndChar

StartChar: b.sc
Encoding: 65552 -1 72
Width: 942
VWidth: 0
HStem: -9 72<19.1879 174.677 338.827 650.406> 502 52<328.375 598.25> 892 83<22.0776 185.625 328 601.844>
VStem: 190 138<76.7781 501.996 554 888.003> 689 158<630.758 827.372> 768 141<162.009 396.806>
LayerCount: 3
Fore
SplineSet
19 33 m 0xf4
 19 43 29 71 59 71 c 0
 75 71 100 73 116 73 c 0
 159 73 178 92 180 117 c 0
 190 302 190 433 190 580 c 0
 190 675 188 700 188 819 c 0
 188 871 180 891 108 891 c 2
 74 891 l 2
 48 891 22 902 22 932 c 0
 22 940 28 975 70 975 c 0
 176 975 234 973 312 973 c 0
 370 973 428 975 500 975 c 0
 767 975 847 833 847 757 c 0xf8
 847 605 688 541 688 541 c 1
 688 541 909 490 909 294 c 0
 909 -5 540 -9 514 -9 c 0
 461 -9 299 4 234 4 c 0
 180 4 112 -9 66 -9 c 0
 24 -9 19 9 19 33 c 0xf4
323 198 m 0
 323 88 330 63 485 63 c 0
 711 63 768 202 768 281 c 0xf4
 768 429 608 480 549 490 c 0
 508 497 449 502 363 502 c 0
 324 502 323 497 323 455 c 0
 323 404 323 429 323 198 c 0
328 574 m 2
 328 560 344 554 361 554 c 2
 410 554 l 2
 540 554 689 558 689 722 c 0xf8
 689 862 538 892 373 892 c 0
 334 892 328 882 328 862 c 2
 328 574 l 2
EndSplineSet
Validated: 1
EndChar

StartChar: c.sc
Encoding: 65553 -1 73
Width: 668
VWidth: 0
HStem: -17 105<248.324 529.247> 525 90<204.705 448.573>
VStem: 32 119<189.511 448.257>
LayerCount: 3
Fore
SplineSet
32 284 m 0
 32 480 199 615 367 615 c 0
 494 615 598 560 598 504 c 0
 598 470 565 443 532 443 c 0
 474 443 431 525 312 525 c 0
 240 525 151 479 151 328 c 0
 151 229 222 88 389 88 c 0
 505 88 559 130 590 154 c 0
 605 165 616 169 625 169 c 0
 638 169 644 159 644 148 c 0
 644 86 506 -17 348 -17 c 0
 174 -17 32 105 32 284 c 0
EndSplineSet
Validated: 1
EndChar

StartChar: d.sc
Encoding: 65554 -1 74
Width: 790
VWidth: 0
HStem: -9 98<260.335 508.753> 544 57<250.992 526.97>
VStem: 32 118<194.248 454.179> 562 110<109.895 511.248> 566 122<574.191 855.041>
LayerCount: 3
Fore
SplineSet
32 289 m 0xf0
 32 452 139 601 385 601 c 0
 494 601 566 570 566 570 c 1
 563 841 l 2
 563 859 444 853 444 889 c 0
 444 909 489 921 569 949 c 0
 621 967 641 983 665 983 c 0
 689 983 695 967 695 942 c 0
 695 918 689 868 688 841 c 0xe8
 684 662 672 455 672 153 c 0
 672 114 673 108 691 108 c 2
 731 108 l 2
 745 108 766 108 766 89 c 0
 766 59 687 52 605 -8 c 0
 592 -18 585 -23 577 -23 c 0
 568 -23 560 -18 560 -0 c 2
 560 97 l 1
 538 77 517 -9 365 -9 c 0
 208 -9 32 90 32 289 c 0xf0
150 329 m 0
 150 171 288 89 414 89 c 0
 537 89 561 131 562 243 c 2xf0
 564 472 l 2
 564 518 469 544 377 544 c 0
 220 544 150 452 150 329 c 0
EndSplineSet
Validated: 1
EndChar

StartChar: e.sc
Encoding: 65555 -1 75
Width: 674
VWidth: 0
HStem: -22 98<238.18 523.189> 535 85<192.545 418.535>
VStem: 32 113<175.18 278.394 327 466.073> 472 161<416.427 486.827>
LayerCount: 3
Fore
SplineSet
32 293 m 0
 32 500 188 620 339 620 c 0
 497 620 633 491 633 442 c 0
 633 420 557 400 543 396 c 2
 149 274 l 1
 151 258 179 76 386 76 c 0
 532 76 586 162 622 162 c 0
 635 162 642 151 642 138 c 0
 642 90 502 -22 361 -22 c 0
 205 -22 32 54 32 293 c 0
145 349 m 0
 145 335 146 327 146 327 c 1
 433 418 l 2
 455 425 472 429 472 441 c 0
 472 459 383 535 291 535 c 0
 174 535 145 428 145 349 c 0
EndSplineSet
Validated: 1
EndChar

StartChar: f.sc
Encoding: 65556 -1 76
Width: 489
VWidth: 0
HStem: -5 74<30.2075 141 270.1 385.843> 503 83<26.0782 146 267 456.52> 913 94<344.623 581.306>
VStem: 146 121<72.0212 503 586 795.137>
LayerCount: 3
Fore
SplineSet
26 541 m 0
 26 571 38 586 53 586 c 2
 149 586 l 1
 149 902 366 1007 510 1007 c 0
 583 1007 639 974 639 936 c 0
 639 908 611 864 565 864 c 0
 504 864 473 913 419 913 c 0
 397 913 375 910 359 898 c 0
 295 850 263 745 263 626 c 2
 263 586 l 1
 441 586 l 2
 451 586 457 581 457 556 c 0
 457 525 449 503 431 503 c 2
 267 503 l 1
 267 146 l 2
 267 79 282 73 308 72 c 0
 333 71 386 76 386 36 c 0
 386 5 362 -4 328 -4 c 0
 319 -4 235 0 204 -0 c 0
 180 0 78 -5 70 -5 c 0
 48 -5 30 9 30 28 c 0
 30 61 55 69 81 69 c 2
 113 69 l 2
 139 69 140 79 141 102 c 0
 144 228 146 105 146 503 c 1
 42 504 l 2
 32 504 26 511 26 541 c 0
EndSplineSet
Validated: 1
EndChar

StartChar: g.sc
Encoding: 65557 -1 77
Width: 720
VWidth: 0
HStem: -346 66<217.921 552.216> 154 71<230.75 417.672> 503 142<566.878 667.077> 556 59<218.949 398.541>
VStem: 38 90<-225.751 -80.156> 47 118<280.436 512.168> 53 90<45.0125 143.636> 461 125<264.209 505.436> 597 93<-246.189 -95.3458>
LayerCount: 3
Fore
SplineSet
38 -171 m 0xe980
 38 -72 158 -39 158 -39 c 1
 158 -39 53 0 53 63 c 0xe380
 53 133 167 195 167 195 c 1
 167 195 47 256 47 388 c 0
 47 484 133 615 311 615 c 0xd580
 440 615 448 571 514 571 c 0
 579 571 566 645 616 645 c 0
 650 645 673 610 673 580 c 0
 673 519 627 503 600 503 c 0
 577 503 536 512 534 513 c 1
 534 513 586 468 586 391 c 0
 586 254 450 154 323 154 c 0
 270 154 240 167 219 167 c 0
 204 167 143 120 143 90 c 0xe380
 143 49 219 22 338 22 c 0
 398 22 439 26 474 26 c 0
 584 26 690 -27 690 -149 c 0
 690 -226 642 -346 368 -346 c 0
 78 -346 38 -236 38 -171 c 0xe980
128 -154 m 0xc980
 128 -238 271 -280 398 -280 c 0
 596 -280 597 -194 597 -168 c 0
 597 -40 403 -87 256 -65 c 0
 222 -60 187 -50 187 -50 c 1
 187 -50 128 -68 128 -154 c 0xc980
165 421 m 0xd580
 165 250 284 225 334 225 c 0
 384 225 461 261 461 368 c 0
 461 466 417 556 309 556 c 0
 223 556 165 499 165 421 c 0xd580
EndSplineSet
Validated: 1
EndChar

StartChar: h.sc
Encoding: 65558 -1 78
Width: 870
VWidth: 0
HStem: 1 61<27.3417 149.374 281.02 402.729 483.472 609.346 735.862 846.517> 509 94<330.255 550.053>
VStem: 159 116<64.8335 478.551 485 862.5> 617 114<64.2549 436.23>
LayerCount: 3
Fore
SplineSet
27 25 m 0
 27 60 46 63 71 63 c 0
 156 63 159 65 159 213 c 0
 159 483 163 246 163 758 c 0
 163 793 162 823 162 849 c 0
 162 863 65 862 50 884 c 0
 46 890 45 896 45 902 c 0
 45 933 71 936 154 968 c 0
 185 980 220 994 246 994 c 0
 279 994 283 977 283 961 c 0
 283 936 282 882 268 485 c 1
 303 533 337 603 480 603 c 0
 539 603 686 576 722 397 c 0
 730 355 729 254 731 196 c 0
 735 69 724 65 802 62 c 0
 834 60 847 49 847 24 c 0
 847 -10 828 -12 812 -12 c 0
 803 -12 734 1 656 1 c 0
 586 1 540 -5 524 -5 c 0
 502 -5 483 1 483 26 c 0
 483 64 524 59 572 64 c 0
 610 67 617 76 617 219 c 0
 617 398 584 451 514 489 c 0
 488 504 458 509 429 509 c 0
 278 509 275 416 275 292 c 2
 275 252 l 2
 275 197 276 168 276 141 c 0
 276 77 278 64 329 61 c 0
 361 59 403 61 403 28 c 0
 403 -6 387 -8 371 -8 c 0
 341 -8 291 4 213 4 c 0
 131 4 70 -2 56 -2 c 0
 45 -2 27 -1 27 25 c 0
EndSplineSet
Validated: 1
EndChar

StartChar: i.sc
Encoding: 65559 -1 79
Width: 421
VWidth: 0
HStem: -8 60<25.156 145.541 267.995 388.771> 763 142<205.68 333.786>
VStem: 158 109<54.5469 462.893> 201 138<767.957 900.475>
LayerCount: 3
Fore
SplineSet
25 18 m 0xd0
 25 52 49 52 76 52 c 0
 139 52 147 63 151 116 c 0
 155 174 158 282 158 303 c 0
 158 338 155 414 153 437 c 0
 151 473 35 463 35 498 c 0
 35 513 49 521 77 531 c 0
 255 596 239 597 255 597 c 0
 269 597 274 589 274 578 c 0
 274 542 267 513 267 220 c 0xe0
 267 176 266 144 266 121 c 0
 266 35 279 58 351 50 c 0
 369 48 389 47 389 18 c 0
 389 6 373 -8 339 -8 c 0
 335 -8 290 -1 201 -1 c 0
 128 -1 80 -8 53 -8 c 0
 32 -8 25 1 25 18 c 0xd0
201 837 m 0xd0
 201 871 229 905 271 905 c 0
 312 905 339 871 339 837 c 0
 339 778 292 763 270 763 c 0
 260 763 201 767 201 837 c 0xd0
EndSplineSet
Validated: 1
EndChar

StartChar: j.sc
Encoding: 65560 -1 80
Width: 501
VWidth: 0
HStem: -297 118<51.2279 206.98> 758 142<267.802 400.828>
VStem: 241 120<-139.963 587> 263 144<764.206 894.92>
LayerCount: 3
Fore
SplineSet
11 -239 m 0xe0
 11 -195 70 -160 87 -160 c 0
 124 -160 138 -179 172 -179 c 0
 222 -179 240 -112 240 -2 c 0
 240 73 241 133 241 487 c 0
 241 501 133 505 133 526 c 0
 133 554 157 552 237 583 c 0
 287 602 322 626 340 626 c 0
 354 626 361 612 361 587 c 0
 361 237 356 107 356 -50 c 0
 356 -81 324 -138 294 -168 c 0
 177 -284 165 -297 97 -297 c 0
 50 -297 11 -268 11 -239 c 0xe0
263 828 m 0xd0
 263 876 299 900 336 900 c 0
 371 900 407 880 407 832 c 0
 407 789 371 758 336 758 c 0
 288 758 263 791 263 828 c 0xd0
EndSplineSet
Validated: 1
EndChar

StartChar: k.sc
Encoding: 65561 -1 81
Width: 749
VWidth: 0
HStem: -4 57<40.0635 118.318 240.651 352.986 600.914 707.988> 516 64<525.994 671.993>
VStem: 121 110<58.5374 231 302 892.706>
LayerCount: 3
Fore
SplineSet
39 919 m 0
 39 934 66 941 75 943 c 2
 75 943 194 984 213 984 c 0
 231 984 235 969 235 955 c 2
 230 302 l 1
 345 408 435 479 435 506 c 0
 435 543 363 528 363 560 c 0
 363 566 366 580 406 580 c 0
 417 580 439 577 514 577 c 0
 584 577 619 580 632 580 c 0
 656 580 673 578 673 556 c 0
 673 525 645 531 587 516 c 0
 548 507 481 452 430 407 c 2
 357 342 l 1
 514 173 l 1
 629 30 652 59 680 53 c 0
 692 51 708 42 708 24 c 0
 708 12 696 -4 662 -4 c 0
 637 -4 600 -1 538 -1 c 0
 527 -1 447 -4 424 -4 c 0
 403 -4 382 3 382 18 c 0
 382 61 458 31 458 70 c 0
 458 107 314 256 290 283 c 1
 231 231 l 1
 234 63 223 61 316 54 c 0
 334 52 353 42 353 24 c 0
 353 12 341 -4 307 -4 c 0
 257 -4 229 -1 183 -1 c 0
 156 -1 112 -4 82 -4 c 0
 61 -4 40 5 40 22 c 0
 40 51 62 50 76 53 c 0
 121 63 121 71 121 129 c 2
 125 852 l 2
 125 886 39 897 39 919 c 0
EndSplineSet
Validated: 1
EndChar

StartChar: l.sc
Encoding: 65562 -1 82
Width: 402
VWidth: 0
HStem: -8 62<31.3587 138.966 267.425 380.991>
VStem: 141 122<59.4629 599.391>
LayerCount: 3
Fore
SplineSet
30 13 m 0
 30 59 84 53 113 60 c 0
 134 64 141 71 141 115 c 2
 147 823 l 1
 56 843 44 840 44 867 c 0
 44 901 68 906 136 943 c 0
 181 967 203 988 242 988 c 0
 262 988 279 979 279 957 c 0
 279 862 263 958 263 140 c 0
 263 55 273 66 342 54 c 0
 369 48 381 39 381 24 c 0
 381 12 381 -8 347 -8 c 0
 310 -8 250 -1 216 -1 c 0
 162 -1 95 -12 72 -12 c 0
 51 -12 30 -4 30 13 c 0
EndSplineSet
Validated: 1
EndChar

StartChar: m.sc
Encoding: 65563 -1 83
Width: 1149
VWidth: 0
HStem: -2 62<55.0609 146.172 263.827 377.817 412.067 528.211 653.002 773.917 819.437 925.933 1053.27 1149.85> 518 90<319.538 499.069 689.579 882.149>
VStem: 148 114<63.0932 492.208> 536 114<63.5492 483.481> 931 119<69.4292 468.2>
LayerCount: 3
Fore
SplineSet
55 27 m 0
 55 56 76 61 90 62 c 0
 146 65 147 64 148 131 c 2
 151 451 l 2
 151 478 140 478 114 488 c 2
 75 503 l 2
 62 508 57 515 57 523 c 0
 57 553 93 556 148 583 c 0
 187 601 224 623 241 623 c 0
 256 623 262 610 262 602 c 2
 262 502 l 1
 274 513 332 608 433 608 c 0
 574 608 629 498 629 498 c 1
 629 498 692 605 803 605 c 0
 1041 605 1051 408 1051 266 c 0
 1051 235 1050 199 1050 161 c 0
 1050 64 1054 69 1099 64 c 0
 1127 61 1150 57 1150 26 c 0
 1150 14 1139 -2 1105 -2 c 0
 1055 -2 1030 1 980 1 c 0
 952 1 878 -2 857 -2 c 0
 836 -2 819 7 819 24 c 0
 819 75 887 53 909 69 c 0
 923 78 931 97 931 119 c 2
 931 288 l 2
 931 313 931 335 929 353 c 0
 918 485 838 515 777 515 c 0
 685 515 652 460 649 459 c 1
 649 459 650 438 650 426 c 2
 650 120 l 2
 650 68 664 64 746 58 c 0
 773 56 774 37 774 25 c 0
 774 15 773 -2 735 -2 c 0
 725 -2 627 4 593 4 c 0
 580 4 464 -2 438 -2 c 0
 420 -2 412 10 412 27 c 0
 412 59 435 59 457 60 c 2
 482 61 l 2
 535 62 536 61 536 319 c 0
 536 428 521 518 382 518 c 0
 315 518 262 469 262 399 c 2
 262 117 l 2
 262 66 274 65 308 63 c 0
 350 60 378 61 378 33 c 0
 378 14 370 1 336 1 c 0
 291 1 262 4 211 4 c 0
 188 4 131 1 97 1 c 0
 76 1 55 10 55 27 c 0
EndSplineSet
Validated: 1
EndChar

StartChar: n.sc
Encoding: 65564 -1 84
Width: 855
VWidth: 0
HStem: -7 70<40.325 155.888 272.5 388.992 490.439 613.167 728.819 840.935> 526 98<361.141 573.98>
VStem: 158 114<62.0833 483.641> 616 117<63.0003 484.798>
LayerCount: 3
Fore
SplineSet
40 23 m 0
 40 55 68 59 111 63 c 0
 114 63 116 63 118 63 c 0
 126 63 133 62 138 62 c 0
 162 62 156 83 158 317 c 0
 158 356 156 418 156 474 c 0
 156 484 141 488 123 491 c 2
 104 495 l 2
 64 502 53 507 53 523 c 0
 53 535 53 539 78 552 c 2
 231 631 l 2
 243 637 255 645 264 645 c 0
 272 645 278 638 278 615 c 2
 276 517 l 1
 312 543 394 624 499 624 c 0
 597 624 681 570 712 498 c 0
 729 460 733 414 733 364 c 2
 733 331 l 2
 733 279 728 203 728 131 c 0
 728 72 730 63 772 63 c 2
 799 63 l 2
 820 63 841 59 841 30 c 0
 841 18 836 -7 801 -7 c 0
 791 -7 712 -1 666 -1 c 0
 653 -1 564 -4 538 -4 c 0
 511 -4 490 4 490 21 c 0
 490 64 528 60 580 63 c 0
 605 64 614 71 614 119 c 0
 614 131 616 119 616 376 c 0
 616 485 531 526 449 526 c 0
 356 526 277 475 276 407 c 0
 275 312 272 120 272 112 c 0
 272 63 286 59 312 59 c 0
 318 59 325 59 332 59 c 0
 341 59 351 59 362 57 c 0
 384 53 389 41 389 28 c 0
 389 12 378 -4 349 -4 c 0
 304 -4 249 -1 208 -1 c 0
 177 -1 91 -7 78 -7 c 0
 44 -7 40 14 40 23 c 0
EndSplineSet
Validated: 1
EndChar

StartChar: o.sc
Encoding: 65565 -1 85
Width: 1235
VWidth: 0
HStem: -26 74<464.253 835.211> 921 80<390.379 792.582>
VStem: 44 158<316.673 702.422> 1034 158<268.092 689.51>
LayerCount: 3
Fore
SplineSet
44 492 m 0
 44 774 254 1001 600 1001 c 0
 1000 1001 1192 779 1192 478 c 0
 1192 198 997 -26 635 -26 c 0
 235 -26 44 208 44 492 c 0
202 552 m 0
 202 313 326 48 651 48 c 0
 970 48 1034 264 1034 481 c 0
 1034 749 864 921 596 921 c 0
 369 921 202 816 202 552 c 0
EndSplineSet
Validated: 1
EndChar

StartChar: p.sc
Encoding: 65566 -1 86
Width: 777
VWidth: 0
HStem: -315 57<7.09105 115.176 233.151 379.998> -1 57<242.78 522.254> 495 105<310.551 530.955>
VStem: 116 115<-257.902 12 76.4233 461.806> 627 110<145.134 403.575>
LayerCount: 3
Fore
SplineSet
6 -295 m 0
 6 -261 43 -261 89 -258 c 0
 116 -256 116 -248 116 -187 c 2
 116 -176 l 2
 116 -92 124 435 124 448 c 0
 124 461 123 476 116 477 c 0
 39 489 18 484 18 508 c 0
 18 526 30 527 166 595 c 0
 187 605 205 617 213 617 c 0
 220 617 239 614 239 574 c 0
 239 571 235 502 233 467 c 1
 233 467 307 600 433 600 c 0
 633 600 737 442 737 321 c 0
 737 64 542 -1 392 -1 c 0
 320 -1 229 12 229 12 c 1
 231 -210 l 2
 232 -252 248 -258 280 -258 c 0
 292 -258 306 -257 322 -257 c 0
 330 -257 338 -257 347 -258 c 0
 377 -260 380 -271 380 -287 c 0
 380 -300 377 -319 340 -319 c 0
 330 -319 253 -315 182 -315 c 0
 145 -315 99 -321 50 -321 c 0
 25 -321 6 -320 6 -295 c 0
231 109 m 2
 231 96 231 85 247 76 c 0
 261 69 318 56 383 56 c 0
 578 56 627 168 627 263 c 0
 627 426 492 495 396 495 c 0
 343 495 232 484 232 359 c 2
 231 109 l 2
EndSplineSet
Validated: 1
EndChar

StartChar: q.sc
Encoding: 65567 -1 87
Width: 824
VWidth: 0
HStem: -315 68<682.236 798.615> -20 94<260.829 520.616> 527 62<252.417 554.094>
VStem: 62 93<178.147 441.704> 574 114<-246.309 81 91.9358 509.388>
LayerCount: 3
Fore
SplineSet
62 273 m 0
 62 452 177 589 419 589 c 0
 481 589 560 572 603 572 c 0
 640 572 665 601 682 601 c 0
 700 601 702 578 702 553 c 0
 702 522 689 453 688 391 c 2
 682 -195 l 2
 682 -246 682 -246 767 -247 c 0
 784 -247 799 -254 799 -273 c 0
 799 -306 785 -315 767 -315 c 0
 739 -315 637 -305 605 -305 c 0
 508 -305 491 -314 473 -314 c 0
 457 -314 446 -309 446 -291 c 0
 446 -261 494 -256 528 -249 c 0
 551 -244 567 -231 567 -179 c 0
 567 -83 574 81 574 81 c 1
 566 75 520 -20 376 -20 c 0
 197 -20 62 93 62 273 c 0
155 322 m 0
 155 171 263 74 425 74 c 0
 564 74 574 127 574 177 c 2
 574 205 l 2
 574 236 574 210 574 460 c 0
 574 499 529 527 393 527 c 0
 222 527 155 435 155 322 c 0
EndSplineSet
Validated: 1
EndChar

StartChar: r.sc
Encoding: 65568 -1 88
Width: 598
VWidth: 0
HStem: -5 62<28.219 135.615 271.577 418.338> 486 130<366.674 539.759>
VStem: 143 122<62.1874 457.051 480 481>
LayerCount: 3
Fore
SplineSet
28 31 m 0
 28 53 58 55 72 57 c 0
 122 60 142 64 143 130 c 2
 147 473 l 2
 147 481 48 483 48 505 c 2
 48 514 l 2
 48 529 48 540 73 550 c 2
 186 596 l 2
 222 611 233 618 247 618 c 0
 261 618 267 611 267 567 c 2
 267 480 l 1
 267 480 366 616 501 616 c 0
 531 616 578 604 578 541 c 0
 578 500 542 466 508 466 c 0
 466 466 453 486 411 486 c 0
 304 486 265 418 265 380 c 2
 265 144 l 2
 265 70 279 66 317 61 c 0
 361 53 419 62 419 19 c 0
 419 3 412 -11 380 -11 c 0
 346 -11 253 4 187 4 c 0
 137 4 82 -5 70 -5 c 0
 47 -5 28 0 28 31 c 0
EndSplineSet
Validated: 1
EndChar

StartChar: s.sc
Encoding: 65569 -1 89
Width: 544
VWidth: 0
HStem: -24 78<179.231 401.927> 519 74<182.767 362.456>
VStem: 58 60<116.486 245.57> 86 88<391.284 512.467> 396 66<396.758 481.695 549 594.791> 426 87<74.5741 211.098>
LayerCount: 3
Fore
SplineSet
50 66 m 0xd4
 50 78 58 123 58 144 c 0
 58 154 58 180 58 201 c 0
 58 235 72 246 94 246 c 0
 118 246 117 222 118 193 c 0
 119 162 118 125 196 81 c 0
 235 59 279 54 314 54 c 0
 381 54 426 104 426 145 c 0xe4
 426 210 358 224 314 238 c 0
 151 290 86 288 86 421 c 0
 86 503 142 593 271 593 c 0
 343 593 384 562 396 549 c 1
 396 574 l 2
 396 585 399 596 424 596 c 2
 432 596 l 2
 445 596 448 594 451 557 c 2
 460 462 l 2
 461 457 462 448 462 438 c 0xd8
 462 418 458 396 436 396 c 0
 418 396 409 406 404 422 c 0
 386 488 310 519 262 519 c 0
 230 519 174 518 174 441 c 0
 174 332 513 403 513 181 c 0
 513 27 359 -24 290 -24 c 0
 246 -24 206 -21 119 13 c 0
 64 34 50 38 50 66 c 0xd4
EndSplineSet
Validated: 1
EndChar

StartChar: t.sc
Encoding: 65570 -1 90
Width: 597
VWidth: 0
HStem: -19 109<304.806 478.31> 485 100<306 544.994>
VStem: 160 124<104.492 488>
LayerCount: 3
Fore
SplineSet
51 510 m 0
 51 530 80 538 121 570 c 0
 267 685 242 749 291 749 c 0
 311 749 320 733 320 713 c 0
 320 692 306 615 306 591 c 2
 306 575 l 1
 375 578 514 585 521 585 c 0
 542 585 548 567 548 551 c 0
 548 541 542 485 503 485 c 0
 482 485 460 486 291 488 c 1
 289 383 284 271 284 260 c 0
 284 128 316 90 378 90 c 0
 482 90 513 169 547 169 c 0
 555 169 572 163 572 142 c 0
 572 90 465 -19 341 -19 c 0
 230 -19 160 28 160 213 c 0
 160 225 173 488 173 488 c 1
 90 488 l 2
 60 488 51 494 51 510 c 0
EndSplineSet
Validated: 1
EndChar

StartChar: u.sc
Encoding: 65571 -1 91
Width: 812
VWidth: 0
HStem: -22 82<297.632 509.801> 8 95<675 786> 517 78<13 104.108 424.475 569.982>
VStem: 106 119<126.875 517> 560 115<105.172 515.841> 570 121<140.108 518.008>
LayerCount: 3
Fore
SplineSet
13 543 m 2xb4
 13 568 l 2
 13 582 24 595 39 595 c 0
 94 595 206 602 211 602 c 0
 224 602 238 593 238 574 c 0
 238 545 225 338 225 280 c 0
 225 165 280 60 417 60 c 0
 527 60 558 140 560 202 c 0xb8
 561 230 570 455 570 483 c 0
 570 512 546 519 502 519 c 2
 459 519 l 2
 436 519 424 523 424 568 c 0
 424 588 451 593 465 593 c 2
 667 595 l 2
 691 595 691 588 691 578 c 0xb4
 677 225 675 225 675 136 c 0
 675 113 675 103 717 103 c 2
 746 103 l 2
 782 103 786 100 786 90 c 2
 786 53 l 2
 786 43 782 43 672 8 c 0x78
 657 3 608 -16 587 -16 c 0
 576 -16 568 -14 568 -1 c 0
 568 55 570 60 570 66 c 2
 570 85 l 1
 556 78 525 -22 378 -22 c 0
 292 -22 106 13 106 218 c 0
 106 262 104 477 104 499 c 0
 104 515 96 517 84 517 c 2
 45 517 l 2
 31 517 13 529 13 543 c 2xb4
EndSplineSet
Validated: 1
EndChar

StartChar: v.sc
Encoding: 65572 -1 92
Width: 841
VWidth: 0
HStem: -17 153<436.669 502.598> 524 73<25.3905 125.453 256.026 385.964 724.658 816.555>
VStem: 24 232<478 585> 623 194<449 572>
LayerCount: 3
Fore
SplineSet
24 574 m 0
 24 596 55 597 74 597 c 0
 94 597 105 595 195 595 c 0
 265 595 325 598 338 598 c 0
 362 598 386 591 386 562 c 0
 386 538 374 529 338 529 c 0
 292 529 256 521 256 491 c 0
 256 465 451 136 473 136 c 0
 487 136 623 396 623 502 c 0
 623 561 517 506 517 572 c 0
 517 591 547 598 571 598 c 0
 615 598 648 593 710 593 c 0
 734 593 768 597 786 597 c 0
 809 597 817 577 817 567 c 0
 817 524 778 526 749 516 c 0
 712 504 733 448 555 112 c 0
 533 71 493 -17 456 -17 c 0
 427 -17 400 21 361 78 c 0
 141 393 153 498 84 524 c 0
 48 539 24 533 24 574 c 0
EndSplineSet
Validated: 1
EndChar

StartChar: w.sc
Encoding: 65573 -1 93
Width: 1285
VWidth: 0
HStem: -17 146<438.69 509.675 888.259 942.565> 528 69<27.4399 139.716 276.01 385.93 709.288 861.605 966.259 1077.98 1168.46 1256.89>
VStem: 1078 179<447 571>
LayerCount: 3
Fore
SplineSet
27 571 m 0
 27 593 46 599 65 599 c 0
 85 599 120 594 211 594 c 0
 281 594 325 597 338 597 c 0
 362 597 386 590 386 561 c 0
 386 537 375 528 339 528 c 0
 325 528 317 529 311 529 c 0
 290 529 276 519 276 505 c 0
 276 479 449 129 472 129 c 0
 486 129 580 271 622 395 c 1
 605 429 570 492 560 509 c 0
 527 562 434 510 434 565 c 0
 434 577 442 594 473 594 c 0
 485 594 622 587 668 587 c 0
 714 587 746 591 808 591 c 0
 832 591 862 581 862 559 c 0
 862 531 840 521 812 521 c 2
 764 521 l 2
 734 521 709 511 709 490 c 0
 709 468 742 418 768 375 c 0
 907 144 902 143 914 143 c 0
 941 143 1078 401 1078 493 c 0
 1078 515 1057 519 1039 522 c 0
 1006 528 966 520 966 567 c 0
 966 589 996 594 1020 594 c 0
 1064 594 1088 589 1150 589 c 0
 1174 589 1208 593 1226 593 c 0
 1249 593 1257 576 1257 566 c 0
 1257 523 1218 525 1189 515 c 0
 1154 504 1194 497 991 112 c 0
 969 71 935 -15 901 -15 c 0
 872 -15 829 41 757 167 c 2
 668 325 l 1
 586 168 518 -17 456 -17 c 0
 437 -17 400 21 361 78 c 0
 319 139 301 169 179 419 c 0
 140 500 128 522 100 523 c 0
 51 525 27 523 27 571 c 0
EndSplineSet
Validated: 1
EndChar

StartChar: x.sc
Encoding: 65574 -1 94
Width: 783
VWidth: 0
HStem: -4 66<18.016 146.602 639.897 753.948> 509 68<23.5624 161.485 575.912 732.292>
LayerCount: 3
Fore
SplineSet
18 29 m 0
 18 55 40 62 57 62 c 2
 86 62 l 2
 115 62 117 63 135 81 c 0
 165 110 324 298 324 298 c 1
 156 488 147 498 101 509 c 0
 54 522 23 508 23 551 c 0
 23 564 39 577 62 577 c 0
 73 577 136 575 211 575 c 0
 281 575 298 578 311 578 c 0
 335 578 360 570 360 551 c 0
 360 514 297 542 297 502 c 0
 297 486 395 373 395 373 c 1
 395 373 498 486 498 506 c 0
 498 535 437 518 437 551 c 0
 437 570 458 577 482 577 c 0
 492 577 534 575 572 575 c 0
 596 575 672 580 686 580 c 0
 728 580 733 560 733 550 c 0
 733 498 671 528 622 506 c 0
 601 498 579 481 558 457 c 2
 437 322 l 1
 633 98 648 83 662 74 c 0
 690 52 754 81 754 31 c 0
 754 2 736 -4 714 -4 c 0
 686 -4 672 -1 574 -1 c 0
 546 -1 455 -4 434 -4 c 0
 413 -4 394 6 394 21 c 0
 394 77 494 39 494 69 c 0
 494 93 365 245 365 245 c 1
 365 245 228 98 228 72 c 0
 228 34 301 66 301 26 c 0
 301 15 296 -4 262 -4 c 0
 221 -4 242 -1 58 -1 c 0
 37 -1 18 7 18 29 c 0
EndSplineSet
Validated: 1
EndChar

StartChar: y.sc
Encoding: 65575 -1 95
Width: 824
VWidth: 0
HStem: 523 66<299 371.971 487.085 552 707.28 803.616>
VStem: 594 211<445.5 574.5>
LayerCount: 3
Fore
SplineSet
37 561 m 0
 37 567 41 587 81 587 c 0
 92 587 111 581 186 581 c 0
 256 581 312 589 338 589 c 0
 362 589 372 578 372 557 c 0
 372 532 350 528 328 523 c 2
 299 517 l 2
 284 514 272 509 272 496 c 0
 272 464 435 148 450 148 c 0
 461 148 594 412 594 479 c 0
 594 510 569 516 552 518 c 2
 532 521 l 2
 508 524 487 529 487 554 c 0
 487 575 500 585 524 585 c 0
 534 585 571 581 633 581 c 0
 657 581 759 587 777 587 c 0
 791 587 805 582 805 567 c 0
 805 538 782 527 758 518 c 0
 710 502 716 518 643 378 c 1
 525 148 386 -124 286 -216 c 0
 252 -247 219 -262 186 -262 c 0
 141 -262 122 -244 122 -210 c 0
 122 -185 153 -167 190 -151 c 0
 233 -132 244 -136 292 -88 c 0
 334 -45 375 13 375 18 c 0
 375 21 256 291 122 506 c 0
 96 546 37 523 37 561 c 0
EndSplineSet
Validated: 1
EndChar

StartChar: z.sc
Encoding: 65576 -1 96
Width: 571
VWidth: 0
HStem: -1 109<188.021 437.773> 466 111<170.148 358.99>
VStem: 100 73<577 642.412> 438 69<-121.964 -9.05761> 484 67<121.035 222.94>
LayerCount: 3
Fore
SplineSet
26 23 m 0xf0
 26 38 37 54 38 56 c 2
 325 408 l 2
 348 437 359 449 359 457 c 0
 359 464 346 466 309 466 c 2
 208 466 l 2
 114 466 152 393 109 393 c 0
 91 393 84 407 84 426 c 0
 84 456 100 507 100 557 c 2
 100 574 l 2
 100 591 104 643 143 643 c 0
 167 643 173 613 173 596 c 0
 173 586 176 577 201 577 c 2
 471 577 l 2
 509 577 511 576 511 557 c 2
 511 554 l 2
 511 530 439 476 373 387 c 0
 253 215 188 146 188 128 c 0
 188 112 216 108 403 108 c 0
 446 108 462 108 484 189 c 0
 490 209 503 224 527 224 c 0
 535 224 551 219 551 193 c 0xe8
 551 152 517 36 507 -45 c 0
 504 -73 508 -122 474 -122 c 0
 452 -122 438 -110 438 -93 c 2
 438 -41 l 2
 438 -21 433 -1 341 -1 c 2
 52 -1 l 2
 27 -1 26 10 26 23 c 0xf0
EndSplineSet
Validated: 1
EndChar

StartChar: ampersand
Encoding: 38 38 97
Width: 1688
VWidth: 0
Flags: W
HStem: -36 168<497.658 864.626> 327 54<779.907 912.865> 733 63<378.238 594.283> 883 67<384.147 596.006> 1278 133<311.029 494.514> 1340 80<1304.16 1450.59>
VStem: 53 161<366.265 688.819> 122 90<922.426 1198.75> 600 76<802.814 872.023> 668 74<409.396 600.845> 916 100<382.945 503.5> 1141 162<1197.55 1337.28> 1162 64<358.967 608.092> 1530 86<998.913 1256.57>
LayerCount: 3
Fore
SplineSet
53 508 m 0xf62c
 53 696 179 807 225 842 c 1
 198 867 122 947 122 1088 c 0
 122 1282 320 1411 483 1411 c 0
 560 1411 689 1383 689 1273 c 0
 689 1231 669 1188 608 1188 c 0
 492 1188 490 1278 405 1278 c 0
 328 1278 212 1204 212 1075 c 0xf924
 212 953 270 903 292 886 c 1
 314 902 397 950 492 950 c 0
 543 950 676 932 676 840 c 0
 676 749 558 737 492 733 c 1
 406 733 328 769 305 780 c 1
 286 761 214 690 214 522 c 0
 214 319 425 132 754 132 c 0
 1038 132 1162 350 1162 484 c 0xfaac
 1162 630 1071 686 974 686 c 0
 862 686 742 611 742 512 c 0
 742 403 812 381 847 381 c 0
 901 381 916 397 916 426 c 0
 916 459 845 435 845 513 c 0
 845 547 877 579 925 579 c 0
 982 579 1016 531 1016 476 c 0
 1016 406 962 327 835 327 c 0
 750 327 668 381 668 507 c 0
 668 586 705 674 783 739 c 0
 958 884 1177 847 1338 888 c 1
 1463 921 1530 1027 1530 1164 c 0
 1530 1244 1441 1340 1345 1340 c 0
 1322 1340 1303 1336 1303 1319 c 0
 1303 1305 1316 1292 1316 1265 c 0
 1316 1220 1278 1182 1233 1182 c 0
 1192 1182 1141 1219 1141 1273 c 0xf474
 1141 1363 1233 1420 1322 1420 c 0
 1556 1420 1616 1181 1616 1088 c 0
 1616 977 1566 875 1499 808 c 0
 1369 678 1161 716 1161 696 c 0
 1161 673 1226 621 1226 480 c 0
 1226 140 900 -36 636 -36 c 0
 252 -36 53 260 53 508 c 0xf62c
362 836 m 1
 362 836 420 796 519 796 c 0
 587 796 600 834 600 842 c 0xf0a4
 600 850 577 883 501 883 c 0
 420 883 362 836 362 836 c 1
EndSplineSet
Validated: 1
EndChar
